<?xml version="1.0" encoding="UTF-8" standalone="no"?>
<!-- Created with Inkscape (http://www.inkscape.org/) -->

<svg
   width="361.24442mm"
   height="240.94724mm"
   viewBox="0 0 361.24442 240.94724"
   version="1.1"
   id="svg5"
   sodipodi:docname="berghain_silkscreen.svg"
   inkscape:version="1.1.1 (c3084ef, 2021-09-22)"
   xmlns:inkscape="http://www.inkscape.org/namespaces/inkscape"
   xmlns:sodipodi="http://sodipodi.sourceforge.net/DTD/sodipodi-0.dtd"
   xmlns="http://www.w3.org/2000/svg"
   xmlns:svg="http://www.w3.org/2000/svg">
  <sodipodi:namedview
     id="namedview7"
     pagecolor="#ffffff"
     bordercolor="#666666"
     borderopacity="1.0"
     inkscape:pageshadow="2"
     inkscape:pageopacity="0.0"
     inkscape:pagecheckerboard="0"
     inkscape:document-units="mm"
     showgrid="false"
     fit-margin-top="0"
     fit-margin-left="0"
     fit-margin-right="0"
     fit-margin-bottom="0"
     inkscape:zoom="2.8284271"
     inkscape:cx="63.816388"
     inkscape:cy="125.1579"
     inkscape:window-width="3008"
     inkscape:window-height="1569"
     inkscape:window-x="0"
     inkscape:window-y="25"
     inkscape:window-maximized="0"
     inkscape:current-layer="layer5"
     showguides="true"
     inkscape:guide-bbox="true">
    <sodipodi:guide
       position="-86.902689,185.3819"
       orientation="0,-1"
       id="guide24352" />
  </sodipodi:namedview>
  <defs
     id="defs2" />
  <g
     inkscape:groupmode="layer"
     id="layer5"
     inkscape:label="Silkscreen"
     style="display:inline">
    <path
       style="fill:none;stroke:#00ff00;stroke-width:0.0325533;stroke-linecap:butt;stroke-linejoin:miter;stroke-miterlimit:4;stroke-dasharray:none;stroke-opacity:1"
       d="m 0.8864881,1.4796452 98.1354879,0.0174"
       id="path1445"
       sodipodi:nodetypes="cc" />
    <rect
       style="fill:#00ff00;fill-opacity:0.97820824;stroke:#00ff00;stroke-width:0.0325533;stroke-opacity:1"
       id="rect1899"
       width="1.6714286"
       height="3.2383928"
       x="8.8257637"
       y="6.5809922" />
    <rect
       style="fill:#00ff00;fill-opacity:0.97820824;stroke:#00ff00;stroke-width:0.0325533;stroke-opacity:1"
       id="rect1899-7"
       width="1.6714286"
       height="3.2383928"
       x="19.56818"
       y="6.5809922" />
    <rect
       style="fill:#00ff00;fill-opacity:0.97820824;stroke:#00ff00;stroke-width:0.0325533;stroke-opacity:1"
       id="rect1899-8"
       width="1.6714286"
       height="3.2383928"
       x="29.213718"
       y="6.5809922" />
    <rect
       style="fill:#00ff00;fill-opacity:0.97820824;stroke:#00ff00;stroke-width:0.0325533;stroke-opacity:1"
       id="rect1899-83"
       width="1.6714286"
       height="3.2383928"
       x="39.015949"
       y="6.5809922" />
    <rect
       style="fill:#00ff00;fill-opacity:0.97820824;stroke:#00ff00;stroke-width:0.0325533;stroke-opacity:1"
       id="rect1899-5"
       width="1.6714286"
       height="3.2383928"
       x="49.183811"
       y="6.5809922" />
    <rect
       style="fill:#00ff00;fill-opacity:0.97820824;stroke:#00ff00;stroke-width:0.0325533;stroke-opacity:1"
       id="rect1899-2"
       width="1.6714286"
       height="3.2383928"
       x="59.403908"
       y="6.5809922" />
    <rect
       style="fill:#00ff00;fill-opacity:0.97820824;stroke:#00ff00;stroke-width:0.0325533;stroke-opacity:1"
       id="rect1899-26"
       width="1.6714286"
       height="3.2383928"
       x="69.066856"
       y="6.5809922" />
    <rect
       style="fill:#00ff00;fill-opacity:0.97820824;stroke:#00ff00;stroke-width:0.0325533;stroke-opacity:1"
       id="rect1899-6"
       width="1.6714286"
       height="3.2383928"
       x="78.468636"
       y="6.5809922" />
    <rect
       style="fill:#00ff00;fill-opacity:0.97820824;stroke:#00ff00;stroke-width:0.0325533;stroke-opacity:1"
       id="rect1899-78"
       width="1.6714286"
       height="3.2383928"
       x="89.106575"
       y="6.5809922" />
    <path
       style="fill:none;stroke:#00ff00;stroke-width:0.0325533;stroke-linecap:butt;stroke-linejoin:miter;stroke-miterlimit:4;stroke-dasharray:none;stroke-opacity:1"
       d="m 3.1150581,5.8062152 93.3424379,-0.013"
       id="path2094"
       sodipodi:nodetypes="cc" />
    <path
       style="fill:none;stroke:#00ff00;stroke-width:0.0325533;stroke-linecap:butt;stroke-linejoin:miter;stroke-miterlimit:4;stroke-dasharray:none;stroke-opacity:1"
       d="m 96.631996,3.3975952 0.0102,-1.06762 -93.7920779,-0.002 0.003,1.47543"
       id="path2360"
       sodipodi:nodetypes="cccc" />
    <rect
       style="fill:#00ff00;fill-opacity:0.97820824;stroke:#00ff00;stroke-width:0.0325533;stroke-miterlimit:4;stroke-dasharray:none;stroke-opacity:1"
       id="rect3878"
       width="3.9348214"
       height="8.2178574"
       x="31.451496"
       y="45.19796" />
    <rect
       style="fill:#00ff00;fill-opacity:0.97820824;stroke:#00ff00;stroke-width:0.0325533;stroke-miterlimit:4;stroke-dasharray:none;stroke-opacity:1"
       id="rect3878-0"
       width="3.9348214"
       height="8.2178574"
       x="24.926533"
       y="45.19796" />
    <rect
       style="fill:#00ff00;fill-opacity:0.97820824;stroke:#00ff00;stroke-width:0.0325533;stroke-miterlimit:4;stroke-dasharray:none;stroke-opacity:1"
       id="rect3878-0-7"
       width="3.9348214"
       height="8.2178574"
       x="18.436481"
       y="45.19796" />
    <rect
       style="fill:#00ff00;fill-opacity:0.97820824;stroke:#00ff00;stroke-width:0.0325533;stroke-miterlimit:4;stroke-dasharray:none;stroke-opacity:1"
       id="rect3878-0-5"
       width="3.9348214"
       height="8.2178574"
       x="7.6940804"
       y="45.19796" />
    <rect
       style="fill:#00ff00;fill-opacity:0.97820824;stroke:#00ff00;stroke-width:0.0325533;stroke-miterlimit:4;stroke-dasharray:none;stroke-opacity:1"
       id="rect3878-0-0"
       width="3.9348214"
       height="8.2178574"
       x="64.49485"
       y="45.19796" />
    <rect
       style="fill:#00ff00;fill-opacity:0.97820824;stroke:#00ff00;stroke-width:0.0325533;stroke-miterlimit:4;stroke-dasharray:none;stroke-opacity:1"
       id="rect3878-0-6"
       width="3.9348214"
       height="8.2178574"
       x="71.044426"
       y="45.19796" />
    <rect
       style="fill:#00ff00;fill-opacity:0.97820824;stroke:#00ff00;stroke-width:0.0325533;stroke-miterlimit:4;stroke-dasharray:none;stroke-opacity:1"
       id="rect3878-0-4"
       width="3.9348214"
       height="8.2178574"
       x="77.336937"
       y="45.19796" />
    <rect
       style="fill:#00ff00;fill-opacity:0.97820824;stroke:#00ff00;stroke-width:0.0325533;stroke-miterlimit:4;stroke-dasharray:none;stroke-opacity:1"
       id="rect3878-0-78"
       width="3.9348214"
       height="8.2178574"
       x="87.974892"
       y="45.19796" />
    <rect
       style="fill:#00ff00;fill-opacity:0.97820824;stroke:#00ff00;stroke-width:0.0325533;stroke-miterlimit:4;stroke-dasharray:none;stroke-opacity:1"
       id="rect4076"
       width="2.1241071"
       height="8.2526798"
       x="37.919071"
       y="45.18055" />
    <rect
       style="display:inline;fill:#00ff00;fill-opacity:0.97820824;stroke:#00ff00;stroke-width:0.0354486;stroke-miterlimit:4;stroke-dasharray:none;stroke-opacity:1"
       id="rect4076-04"
       width="3.168741"
       height="6.5598731"
       x="44.761478"
       y="48.579674" />
    <rect
       style="display:inline;fill:#00ff00;fill-opacity:0.97820824;stroke:#00ff00;stroke-width:0.0474952;stroke-miterlimit:4;stroke-dasharray:none;stroke-opacity:1"
       id="rect4076-04-3"
       width="5.7803121"
       height="6.4555154"
       x="49.856861"
       y="48.620659" />
    <rect
       style="fill:#00ff00;fill-opacity:0.97820824;stroke:#00ff00;stroke-width:0.0325533;stroke-miterlimit:4;stroke-dasharray:none;stroke-opacity:1"
       id="rect4076-0"
       width="2.1241071"
       height="8.2526798"
       x="60.082924"
       y="45.18055" />
    <path
       style="fill:none;stroke:#00ff00;stroke-width:0.03241;stroke-linecap:butt;stroke-linejoin:miter;stroke-miterlimit:4;stroke-dasharray:none;stroke-opacity:1"
       d="m 3.1523381,43.320525 93.6960479,0.0186"
       id="path4390-53"
       sodipodi:nodetypes="cc" />
    <path
       style="fill:none;stroke:#00ff00;stroke-width:0.0325533;stroke-linecap:butt;stroke-linejoin:miter;stroke-miterlimit:4;stroke-dasharray:none;stroke-opacity:1"
       d="m 2.8561381,45.172775 4.6304002,9.7e-4 m 4.2327997,9.8e-4 6.56996,10e-4 m 4.17189,9.8e-4 2.38285,3.2e-4 m 4.08815,6.5e-4 2.4133,3.3e-4 m 4.14144,6.5e-4 2.36762,3.3e-4 m 2.26866,3.2e-4 2.12537,3.3e-4 m 15.09438,0.003 2.6539,6.5e-4 m 2.26093,3.2e-4 2.16941,3.3e-4 m 4.05352,6.5e-4 2.51394,6.5e-4 m 4.0266,6.5e-4 2.24478,3.3e-4 m 4.0589,6.5e-4 6.59437,0.001 m 4.04275,6.5e-4 4.873468,9.8e-4"
       id="path4390-4-8"
       sodipodi:nodetypes="cccccccccccccccccccccccc" />
    <path
       style="fill:none;stroke:#00ff00;stroke-width:0.0325533;stroke-linecap:butt;stroke-linejoin:miter;stroke-miterlimit:4;stroke-dasharray:none;stroke-opacity:1"
       d="m 2.8561381,46.542745 4.6304002,9.8e-4 m 4.2327997,9.7e-4 6.56996,0.001 m 4.17189,9.7e-4 2.38285,3.3e-4 m 4.08815,6.5e-4 2.4133,3.2e-4 m 4.14144,6.6e-4 2.36762,3.2e-4 m 2.26866,3.3e-4 2.12537,3.2e-4 m 15.09438,0.003 2.6539,6.5e-4 m 2.26093,3.3e-4 2.16941,3.2e-4 m 4.05352,6.6e-4 2.51393,6.5e-4 m 4.02661,6.5e-4 2.24478,3.2e-4 m 4.0589,6.5e-4 6.59437,10e-4 m 4.04275,6.5e-4 4.873468,9.7e-4"
       id="path4390-4-8-5"
       sodipodi:nodetypes="cccccccccccccccccccccccc" />
    <path
       style="fill:none;stroke:#00ff00;stroke-width:0.0325533;stroke-linecap:butt;stroke-linejoin:miter;stroke-miterlimit:4;stroke-dasharray:none;stroke-opacity:1"
       d="m 2.8561381,47.912715 4.6304002,9.8e-4 m 4.2327997,9.8e-4 6.56996,10e-4 m 4.17189,9.7e-4 2.38285,3.3e-4 m 4.08815,6.5e-4 2.4133,3.3e-4 m 4.14144,6.5e-4 2.36762,3.2e-4 m 2.26866,3.3e-4 2.12537,3.2e-4 m 15.09438,0.003 2.6539,6.6e-4 m 2.26093,3.2e-4 2.16941,3.3e-4 m 4.05352,6.5e-4 2.51393,6.5e-4 m 4.02661,6.5e-4 2.24478,3.3e-4 m 4.0589,6.5e-4 6.59437,0.001 m 4.04275,6.5e-4 4.873468,9.8e-4"
       id="path4390-4-8-1"
       sodipodi:nodetypes="cccccccccccccccccccccccc" />
    <path
       style="fill:none;stroke:#00ff00;stroke-width:0.0325533;stroke-linecap:butt;stroke-linejoin:miter;stroke-miterlimit:4;stroke-dasharray:none;stroke-opacity:1"
       d="m 2.8561381,49.282695 4.6304002,9.7e-4 m 4.2327997,9.8e-4 6.56996,0.001 m 4.17189,9.8e-4 2.38285,3.2e-4 m 4.08815,6.5e-4 2.4133,3.3e-4 m 4.14144,6.5e-4 2.36762,3.3e-4 m 2.26866,3.2e-4 2.12537,3.3e-4 m 15.09438,0.003 2.6539,6.5e-4 m 2.26093,3.2e-4 2.16941,3.3e-4 m 4.05352,6.5e-4 2.51393,6.5e-4 m 4.02661,6.5e-4 2.24478,3.3e-4 m 4.0589,6.5e-4 6.59437,10e-4 m 4.04275,6.5e-4 4.873468,9.8e-4"
       id="path4390-4-8-7"
       sodipodi:nodetypes="cccccccccccccccccccccccc" />
    <path
       style="fill:none;stroke:#00ff00;stroke-width:0.0325533;stroke-linecap:butt;stroke-linejoin:miter;stroke-miterlimit:4;stroke-dasharray:none;stroke-opacity:1"
       d="m 2.8561381,50.652665 4.6304002,9.8e-4 m 4.2327997,9.7e-4 6.56996,10e-4 m 4.17189,9.7e-4 2.38285,3.3e-4 m 4.08815,6.5e-4 2.4133,3.3e-4 m 4.14144,6.5e-4 2.36762,3.2e-4 m 2.26866,3.3e-4 2.12537,3.2e-4 m 15.09438,0.003 2.6539,6.5e-4 m 2.26093,3.3e-4 2.16941,3.2e-4 m 4.05352,6.6e-4 2.51393,6.5e-4 m 4.02661,6.5e-4 2.24478,3.2e-4 m 4.0589,6.5e-4 6.59437,10e-4 m 4.04275,6.5e-4 4.873468,9.7e-4"
       id="path4390-4-8-4"
       sodipodi:nodetypes="cccccccccccccccccccccccc" />
    <path
       style="fill:none;stroke:#00ff00;stroke-width:0.0325533;stroke-linecap:butt;stroke-linejoin:miter;stroke-miterlimit:4;stroke-dasharray:none;stroke-opacity:1"
       d="m 2.8561381,52.022645 4.6304002,9.7e-4 m 4.2327997,9.8e-4 6.56996,0.001 m 4.17189,9.8e-4 2.38285,3.2e-4 m 4.08815,6.6e-4 2.4133,3.2e-4 m 4.14144,6.5e-4 2.36762,3.3e-4 m 2.26866,3.2e-4 2.12537,3.3e-4 m 15.09438,0.003 2.6539,6.5e-4 m 2.26093,3.2e-4 2.16941,3.3e-4 m 4.05352,6.5e-4 2.51393,6.5e-4 m 4.02661,6.5e-4 2.24478,3.3e-4 m 4.0589,6.5e-4 6.59437,10e-4 m 4.04275,6.5e-4 4.873468,9.8e-4"
       id="path4390-4-8-51"
       sodipodi:nodetypes="cccccccccccccccccccccccc" />
    <path
       style="fill:none;stroke:#00ff00;stroke-width:0.0325533;stroke-linecap:butt;stroke-linejoin:miter;stroke-miterlimit:4;stroke-dasharray:none;stroke-opacity:1"
       d="m 2.8561381,53.392615 4.5999402,9.8e-4 34.8786297,0.007 m 15.01902,0.003 39.481798,0.008"
       id="path4390-5"
       sodipodi:nodetypes="ccccc" />
    <path
       style="fill:none;fill-opacity:1;stroke:#00ff00;stroke-width:0.0325533;stroke-miterlimit:4;stroke-dasharray:none;stroke-opacity:1"
       d="m 42.479968,55.154815 -0.0492,-9.79974 14.7981,-0.0246 0.0493,9.84899"
       id="path10773" />
    <rect
       style="fill:none;fill-opacity:1;stroke:#00ff00;stroke-width:0.0325533;stroke-miterlimit:4;stroke-dasharray:none;stroke-opacity:1"
       id="rect10934"
       width="2.4513659"
       height="2.3143332"
       x="8.4914436"
       y="17.272949" />
    <rect
       style="fill:none;fill-opacity:1;stroke:#00ff00;stroke-width:0.0325533;stroke-miterlimit:4;stroke-dasharray:none;stroke-opacity:1"
       id="rect10934-06"
       width="2.4513659"
       height="2.3143332"
       x="8.4914436"
       y="30.483604" />
    <rect
       style="fill:none;fill-opacity:1;stroke:#00ff00;stroke-width:0.0325533;stroke-miterlimit:4;stroke-dasharray:none;stroke-opacity:1"
       id="rect10934-07"
       width="2.4513659"
       height="2.3143332"
       x="88.708977"
       y="30.483604" />
    <rect
       style="fill:none;fill-opacity:1;stroke:#00ff00;stroke-width:0.0325533;stroke-miterlimit:4;stroke-dasharray:none;stroke-opacity:1"
       id="rect10934-1"
       width="2.4513659"
       height="2.3143332"
       x="19.172398"
       y="17.272949" />
    <rect
       style="fill:none;fill-opacity:1;stroke:#00ff00;stroke-width:0.0325533;stroke-miterlimit:4;stroke-dasharray:none;stroke-opacity:1"
       id="rect10934-0"
       width="2.4513659"
       height="2.3143332"
       x="25.628178"
       y="17.272949" />
    <rect
       style="fill:none;fill-opacity:1;stroke:#00ff00;stroke-width:0.0325533;stroke-miterlimit:4;stroke-dasharray:none;stroke-opacity:1"
       id="rect10934-09"
       width="2.4513659"
       height="2.3143332"
       x="32.190525"
       y="17.272949" />
    <rect
       style="fill:none;fill-opacity:1;stroke:#00ff00;stroke-width:0.0325533;stroke-miterlimit:4;stroke-dasharray:none;stroke-opacity:1"
       id="rect10934-7"
       width="2.4513659"
       height="2.3143332"
       x="38.64629"
       y="17.272949" />
    <rect
       style="fill:none;fill-opacity:1;stroke:#00ff00;stroke-width:0.0325533;stroke-miterlimit:4;stroke-dasharray:none;stroke-opacity:1"
       id="rect10934-17"
       width="2.4513659"
       height="2.3143332"
       x="45.513157"
       y="17.272949" />
    <rect
       style="fill:none;fill-opacity:1;stroke:#00ff00;stroke-width:0.0325533;stroke-miterlimit:4;stroke-dasharray:none;stroke-opacity:1"
       id="rect10934-4"
       width="2.4513659"
       height="2.3143332"
       x="52.243"
       y="17.272949" />
    <rect
       style="fill:none;fill-opacity:1;stroke:#00ff00;stroke-width:0.0325533;stroke-miterlimit:4;stroke-dasharray:none;stroke-opacity:1"
       id="rect10934-5"
       width="2.4513659"
       height="2.3143332"
       x="59.018517"
       y="17.272949" />
    <rect
       style="fill:none;fill-opacity:1;stroke:#00ff00;stroke-width:0.0325533;stroke-miterlimit:4;stroke-dasharray:none;stroke-opacity:1"
       id="rect10934-178"
       width="2.4513659"
       height="2.3143332"
       x="65.382942"
       y="17.272949" />
    <rect
       style="fill:none;fill-opacity:1;stroke:#00ff00;stroke-width:0.0325533;stroke-miterlimit:4;stroke-dasharray:none;stroke-opacity:1"
       id="rect10934-2"
       width="2.4513659"
       height="2.3143332"
       x="71.838707"
       y="17.288177" />
    <rect
       style="fill:none;fill-opacity:1;stroke:#00ff00;stroke-width:0.0325533;stroke-miterlimit:4;stroke-dasharray:none;stroke-opacity:1"
       id="rect10934-54"
       width="2.4513659"
       height="2.3143332"
       x="78.14222"
       y="17.272949" />
    <rect
       style="fill:none;fill-opacity:1;stroke:#00ff00;stroke-width:0.0325533;stroke-miterlimit:4;stroke-dasharray:none;stroke-opacity:1"
       id="rect10934-1-5"
       width="2.4513659"
       height="2.3143332"
       x="19.085178"
       y="30.483604" />
    <rect
       style="fill:none;fill-opacity:1;stroke:#00ff00;stroke-width:0.0325533;stroke-miterlimit:4;stroke-dasharray:none;stroke-opacity:1"
       id="rect10934-0-9"
       width="2.4513659"
       height="2.3143332"
       x="25.540943"
       y="30.483604" />
    <rect
       style="fill:none;fill-opacity:1;stroke:#00ff00;stroke-width:0.0325533;stroke-miterlimit:4;stroke-dasharray:none;stroke-opacity:1"
       id="rect10934-09-3"
       width="2.4513659"
       height="2.3143332"
       x="32.103306"
       y="30.483604" />
    <rect
       style="fill:none;fill-opacity:1;stroke:#00ff00;stroke-width:0.0325533;stroke-miterlimit:4;stroke-dasharray:none;stroke-opacity:1"
       id="rect10934-7-9"
       width="2.4513659"
       height="2.3143332"
       x="38.559071"
       y="30.483604" />
    <rect
       style="fill:none;fill-opacity:1;stroke:#00ff00;stroke-width:0.0325533;stroke-miterlimit:4;stroke-dasharray:none;stroke-opacity:1"
       id="rect10934-17-6"
       width="2.4513659"
       height="2.3143332"
       x="45.425938"
       y="30.483604" />
    <rect
       style="fill:none;fill-opacity:1;stroke:#00ff00;stroke-width:0.0325533;stroke-miterlimit:4;stroke-dasharray:none;stroke-opacity:1"
       id="rect10934-4-6"
       width="2.4513659"
       height="2.3143332"
       x="52.155781"
       y="30.483604" />
    <rect
       style="fill:none;fill-opacity:1;stroke:#00ff00;stroke-width:0.0325533;stroke-miterlimit:4;stroke-dasharray:none;stroke-opacity:1"
       id="rect10934-5-4"
       width="2.4513659"
       height="2.3143332"
       x="58.931297"
       y="30.483604" />
    <rect
       style="fill:none;fill-opacity:1;stroke:#00ff00;stroke-width:0.0325533;stroke-miterlimit:4;stroke-dasharray:none;stroke-opacity:1"
       id="rect10934-178-0"
       width="2.4513659"
       height="2.3143332"
       x="65.295723"
       y="30.483604" />
    <rect
       style="fill:none;fill-opacity:1;stroke:#00ff00;stroke-width:0.0325533;stroke-miterlimit:4;stroke-dasharray:none;stroke-opacity:1"
       id="rect10934-2-8"
       width="2.4513659"
       height="2.3143332"
       x="71.751488"
       y="30.498833" />
    <rect
       style="fill:none;fill-opacity:1;stroke:#00ff00;stroke-width:0.0325533;stroke-miterlimit:4;stroke-dasharray:none;stroke-opacity:1"
       id="rect10934-54-2"
       width="2.4513659"
       height="2.3143332"
       x="78.055"
       y="30.483604" />
    <rect
       style="fill:none;fill-opacity:1;stroke:#00ff00;stroke-width:0.0325533;stroke-miterlimit:4;stroke-dasharray:none;stroke-opacity:1"
       id="rect10934-53"
       width="2.4513659"
       height="2.3143332"
       x="88.708977"
       y="17.272949" />
    <rect
       style="fill:none;fill-opacity:0.25;stroke:#00ff00;stroke-width:0.0325533;stroke-miterlimit:4;stroke-dasharray:none;stroke-opacity:1"
       id="rect20313"
       width="2.679754"
       height="1.6291686"
       x="65.223061"
       y="38.50544" />
    <rect
       style="fill:none;fill-opacity:0.25;stroke:#00ff00;stroke-width:0.0325533;stroke-miterlimit:4;stroke-dasharray:none;stroke-opacity:1"
       id="rect20313-7"
       width="2.679754"
       height="1.6291686"
       x="71.709282"
       y="38.50544" />
    <rect
       style="fill:none;fill-opacity:0.25;stroke:#00ff00;stroke-width:0.0325533;stroke-miterlimit:4;stroke-dasharray:none;stroke-opacity:1"
       id="rect20313-0"
       width="2.679754"
       height="1.6291686"
       x="77.890999"
       y="38.50544" />
    <rect
       style="fill:none;fill-opacity:0.25;stroke:#00ff00;stroke-width:0.0325533;stroke-miterlimit:4;stroke-dasharray:none;stroke-opacity:1"
       id="rect20313-9"
       width="2.679754"
       height="1.6291686"
       x="58.873878"
       y="38.50544" />
    <rect
       style="fill:none;fill-opacity:0.25;stroke:#00ff00;stroke-width:0.0325533;stroke-miterlimit:4;stroke-dasharray:none;stroke-opacity:1"
       id="rect20313-5"
       width="2.679754"
       height="1.6291686"
       x="51.85474"
       y="38.50544" />
    <rect
       style="fill:none;fill-opacity:0.25;stroke:#00ff00;stroke-width:0.0325533;stroke-miterlimit:4;stroke-dasharray:none;stroke-opacity:1"
       id="rect20313-72"
       width="2.679754"
       height="1.6291686"
       x="45.124897"
       y="38.50544" />
    <rect
       style="fill:none;fill-opacity:0.25;stroke:#00ff00;stroke-width:0.0325533;stroke-miterlimit:4;stroke-dasharray:none;stroke-opacity:1"
       id="rect20313-97"
       width="2.679754"
       height="1.6291686"
       x="38.532093"
       y="38.50544" />
    <rect
       style="fill:none;fill-opacity:0.25;stroke:#00ff00;stroke-width:0.0325533;stroke-miterlimit:4;stroke-dasharray:none;stroke-opacity:1"
       id="rect20313-6"
       width="2.679754"
       height="1.6291686"
       x="32.030659"
       y="38.50544" />
    <rect
       style="fill:none;fill-opacity:0.25;stroke:#00ff00;stroke-width:0.0325533;stroke-miterlimit:4;stroke-dasharray:none;stroke-opacity:1"
       id="rect20313-8"
       width="2.679754"
       height="1.6291686"
       x="25.590107"
       y="38.50544" />
    <rect
       style="fill:none;fill-opacity:0.25;stroke:#00ff00;stroke-width:0.0325533;stroke-miterlimit:4;stroke-dasharray:none;stroke-opacity:1"
       id="rect20313-2"
       width="2.679754"
       height="1.6291686"
       x="19.02776"
       y="38.490211" />
    <path
       style="fill:none;stroke:#00ff00;stroke-width:0.0325533;stroke-linecap:butt;stroke-linejoin:miter;stroke-miterlimit:4;stroke-dasharray:none;stroke-opacity:1"
       d="m 3.0840181,10.477345 93.2879179,0.004"
       id="path5656"
       sodipodi:nodetypes="cc" />
    <path
       style="fill:none;stroke:#00ff00;stroke-width:0.0325533;stroke-miterlimit:4;stroke-dasharray:none;stroke-opacity:1"
       d="m 15.715348,11.326825 0.0492,31.07355"
       id="path6790" />
    <path
       style="fill:none;stroke:#00ff00;stroke-width:0.0325533;stroke-miterlimit:4;stroke-dasharray:none;stroke-opacity:1"
       d="m 18.169658,11.326825 0.0493,31.07355"
       id="path6790-0" />
    <path
       style="fill:none;stroke:#00ff00;stroke-width:0.0325533;stroke-miterlimit:4;stroke-dasharray:none;stroke-opacity:1"
       d="m 84.288918,11.499175 0.0493,31.07356"
       id="path6790-9" />
    <path
       style="fill:none;stroke:#00ff00;stroke-width:0.0325533;stroke-miterlimit:4;stroke-dasharray:none;stroke-opacity:1"
       d="m 81.704048,11.499175 0.0493,31.07356"
       id="path6790-9-1" />
    <path
       style="fill:none;stroke:#00ff00;stroke-width:0.0325533;stroke-miterlimit:4;stroke-dasharray:none;stroke-opacity:1"
       d="m 42.985598,55.122065 -0.0348,-8.00893 13.66741,-0.0522 0.0174,8.18303"
       id="path6079" />
  </g>
</svg>
