M48
; DRILL file {KiCad 7.0.7} date 2023 November 20, Monday 21:29:22
; FORMAT={-:-/ absolute / metric / decimal}
; #@! TF.CreationDate,2023-11-20T21:29:22+01:00
; #@! TF.GenerationSoftware,Kicad,Pcbnew,7.0.7
; #@! TF.FileFunction,Plated,1,2,PTH
FMAT,2
METRIC
; #@! TA.AperFunction,Plated,PTH,ViaDrill
T1C0.400
; #@! TA.AperFunction,Plated,PTH,ComponentDrill
T2C1.000
; #@! TA.AperFunction,Plated,PTH,ComponentDrill
T3C3.000
%
G90
G05
T1
X85.852Y-111.633
X87.418Y-111.633
X88.985Y-111.633
X89.027Y-78.994
X89.027Y-80.56
X89.027Y-82.127
X89.027Y-83.693
X89.027Y-85.259
X90.551Y-111.633
X92.117Y-111.633
X99.06Y-83.439
X99.06Y-88.011
X100.457Y-83.439
X100.457Y-85.54
X105.664Y-83.439
X105.664Y-88.011
X106.934Y-83.439
X106.934Y-85.54
X112.141Y-83.439
X112.141Y-88.011
X113.665Y-83.439
X113.665Y-85.54
X118.745Y-83.439
X118.745Y-88.011
X120.015Y-83.439
X120.015Y-85.598
X125.222Y-83.439
X125.222Y-88.011
X126.492Y-70.612
X126.746Y-83.439
X126.746Y-85.542
X130.248Y-67.636
X173.27Y-111.633
X174.837Y-111.633
X175.895Y-78.994
X175.895Y-80.56
X175.895Y-82.127
X175.895Y-83.693
X175.895Y-85.259
X176.403Y-111.633
X177.969Y-111.633
X179.536Y-111.633
T2
X124.587Y-104.521
X124.587Y-110.998
X133.985Y-104.521
X133.985Y-110.998
T3
X132.927Y-60.5
T0
M30
