%TF.GenerationSoftware,KiCad,Pcbnew,7.0.7*%
%TF.CreationDate,2023-11-20T21:29:34+01:00*%
%TF.ProjectId,sss_ornament_2023,7373735f-6f72-46e6-916d-656e745f3230,rev?*%
%TF.SameCoordinates,Original*%
%TF.FileFunction,Soldermask,Top*%
%TF.FilePolarity,Negative*%
%FSLAX46Y46*%
G04 Gerber Fmt 4.6, Leading zero omitted, Abs format (unit mm)*
G04 Created by KiCad (PCBNEW 7.0.7) date 2023-11-20 21:29:34*
%MOMM*%
%LPD*%
G01*
G04 APERTURE LIST*
%ADD10C,0.032553*%
%ADD11C,4.000000*%
%ADD12C,1.700000*%
G04 APERTURE END LIST*
D10*
X130979764Y-95176136D02*
X127557240Y-95176136D01*
X127557240Y-90424000D01*
X130979764Y-90424000D01*
X130979764Y-95176136D01*
G36*
X130979764Y-95176136D02*
G01*
X127557240Y-95176136D01*
X127557240Y-90424000D01*
X130979764Y-90424000D01*
X130979764Y-95176136D01*
G37*
X150899354Y-95176136D02*
X147476830Y-95176136D01*
X147476830Y-90424000D01*
X150899354Y-90424000D01*
X150899354Y-95176136D01*
G36*
X150899354Y-95176136D02*
G01*
X147476830Y-95176136D01*
X147476830Y-90424000D01*
X150899354Y-90424000D01*
X150899354Y-95176136D01*
G37*
X137844861Y-86816816D02*
X134234517Y-86816816D01*
X134234517Y-77066318D01*
X137844861Y-77066318D01*
X137844861Y-86816816D01*
G36*
X137844861Y-86816816D02*
G01*
X134234517Y-86816816D01*
X134234517Y-77066318D01*
X137844861Y-77066318D01*
X137844861Y-86816816D01*
G37*
X111183303Y-73446809D02*
X108056249Y-73446809D01*
X108056249Y-69088632D01*
X111183303Y-69088632D01*
X111183303Y-73446809D01*
G36*
X111183303Y-73446809D02*
G01*
X108056249Y-73446809D01*
X108056249Y-69088632D01*
X111183303Y-69088632D01*
X111183303Y-73446809D01*
G37*
X117708264Y-73446809D02*
X114581212Y-73446809D01*
X114581212Y-69088632D01*
X117708264Y-69088632D01*
X117708264Y-73446809D01*
G36*
X117708264Y-73446809D02*
G01*
X114581212Y-73446809D01*
X114581212Y-69088632D01*
X117708264Y-69088632D01*
X117708264Y-73446809D01*
G37*
X157399682Y-99214225D02*
X154075646Y-99214225D01*
X154075646Y-97367542D01*
X157399682Y-97367542D01*
X157399682Y-99214225D01*
G36*
X157399682Y-99214225D02*
G01*
X154075646Y-99214225D01*
X154075646Y-97367542D01*
X157399682Y-97367542D01*
X157399682Y-99214225D01*
G37*
X117856000Y-95176136D02*
X114433476Y-95176136D01*
X114433476Y-90424000D01*
X117856000Y-90424000D01*
X117856000Y-95176136D01*
G36*
X117856000Y-95176136D02*
G01*
X114433476Y-95176136D01*
X114433476Y-90424000D01*
X117856000Y-90424000D01*
X117856000Y-95176136D01*
G37*
X163741441Y-95176136D02*
X160318917Y-95176136D01*
X160318917Y-90424000D01*
X163741441Y-90424000D01*
X163741441Y-95176136D01*
G36*
X163741441Y-95176136D02*
G01*
X160318917Y-95176136D01*
X160318917Y-90424000D01*
X163741441Y-90424000D01*
X163741441Y-95176136D01*
G37*
X144676713Y-95176136D02*
X141254189Y-95176136D01*
X141254189Y-90424000D01*
X144676713Y-90424000D01*
X144676713Y-95176136D01*
G36*
X144676713Y-95176136D02*
G01*
X141254189Y-95176136D01*
X141254189Y-90424000D01*
X144676713Y-90424000D01*
X144676713Y-95176136D01*
G37*
X168263223Y-61050715D02*
X166522149Y-61050715D01*
X166522149Y-60441340D01*
X168263223Y-60441340D01*
X168263223Y-61050715D01*
G36*
X168263223Y-61050715D02*
G01*
X166522149Y-61050715D01*
X166522149Y-60441340D01*
X168263223Y-60441340D01*
X168263223Y-61050715D01*
G37*
X111424954Y-86816816D02*
X107814610Y-86816816D01*
X107814610Y-77066318D01*
X111424954Y-77066318D01*
X111424954Y-86816816D01*
G36*
X111424954Y-86816816D02*
G01*
X107814610Y-86816816D01*
X107814610Y-77066318D01*
X111424954Y-77066318D01*
X111424954Y-86816816D01*
G37*
X94049334Y-99214225D02*
X90725301Y-99214225D01*
X90725301Y-97367542D01*
X94049334Y-97367542D01*
X94049334Y-99214225D01*
G36*
X94049334Y-99214225D02*
G01*
X90725301Y-99214225D01*
X90725301Y-97367542D01*
X94049334Y-97367542D01*
X94049334Y-99214225D01*
G37*
X104840985Y-95176136D02*
X101418462Y-95176136D01*
X101418462Y-90424000D01*
X104840985Y-90424000D01*
X104840985Y-95176136D01*
G36*
X104840985Y-95176136D02*
G01*
X101418462Y-95176136D01*
X101418462Y-90424000D01*
X104840985Y-90424000D01*
X104840985Y-95176136D01*
G37*
X124239503Y-99214225D02*
X120915471Y-99214225D01*
X120915471Y-97367542D01*
X124239503Y-97367542D01*
X124239503Y-99214225D01*
G36*
X124239503Y-99214225D02*
G01*
X120915471Y-99214225D01*
X120915471Y-97367542D01*
X124239503Y-97367542D01*
X124239503Y-99214225D01*
G37*
X174473298Y-86816816D02*
X170862954Y-86816816D01*
X170862954Y-77066318D01*
X174473298Y-77066318D01*
X174473298Y-86816816D01*
G36*
X174473298Y-86816816D02*
G01*
X170862954Y-86816816D01*
X170862954Y-77066318D01*
X174473298Y-77066318D01*
X174473298Y-86816816D01*
G37*
X150751618Y-73446809D02*
X147624566Y-73446809D01*
X147624566Y-69088632D01*
X150751618Y-69088632D01*
X150751618Y-73446809D01*
G36*
X150751618Y-73446809D02*
G01*
X147624566Y-73446809D01*
X147624566Y-69088632D01*
X150751618Y-69088632D01*
X150751618Y-73446809D01*
G37*
X124141019Y-73446809D02*
X121013967Y-73446809D01*
X121013967Y-69088632D01*
X124141019Y-69088632D01*
X124141019Y-73446809D01*
G36*
X124141019Y-73446809D02*
G01*
X121013967Y-73446809D01*
X121013967Y-69088632D01*
X124141019Y-69088632D01*
X124141019Y-73446809D01*
G37*
X94098584Y-95176136D02*
X90676061Y-95176136D01*
X90676061Y-90424000D01*
X94098584Y-90424000D01*
X94098584Y-95176136D01*
G36*
X94098584Y-95176136D02*
G01*
X90676061Y-95176136D01*
X90676061Y-90424000D01*
X94098584Y-90424000D01*
X94098584Y-95176136D01*
G37*
X157542848Y-86816816D02*
X153932504Y-86816816D01*
X153932504Y-77066318D01*
X157542848Y-77066318D01*
X157542848Y-86816816D01*
G36*
X157542848Y-86816816D02*
G01*
X153932504Y-86816816D01*
X153932504Y-77066318D01*
X157542848Y-77066318D01*
X157542848Y-86816816D01*
G37*
X174379380Y-95176136D02*
X170956857Y-95176136D01*
X170956857Y-90424000D01*
X174379380Y-90424000D01*
X174379380Y-95176136D01*
G36*
X174379380Y-95176136D02*
G01*
X170956857Y-95176136D01*
X170956857Y-90424000D01*
X174379380Y-90424000D01*
X174379380Y-95176136D01*
G37*
X137701707Y-99214225D02*
X134377675Y-99214225D01*
X134377675Y-97367542D01*
X137701707Y-97367542D01*
X137701707Y-99214225D01*
G36*
X137701707Y-99214225D02*
G01*
X134377675Y-99214225D01*
X134377675Y-97367542D01*
X137701707Y-97367542D01*
X137701707Y-99214225D01*
G37*
X123448029Y-61050715D02*
X121706960Y-61050715D01*
X121706960Y-60441340D01*
X123448029Y-60441340D01*
X123448029Y-61050715D01*
G36*
X123448029Y-61050715D02*
G01*
X121706960Y-61050715D01*
X121706960Y-60441340D01*
X123448029Y-60441340D01*
X123448029Y-61050715D01*
G37*
X157301194Y-73446809D02*
X154174142Y-73446809D01*
X154174142Y-69088632D01*
X157301194Y-69088632D01*
X157301194Y-73446809D01*
G36*
X157301194Y-73446809D02*
G01*
X154174142Y-73446809D01*
X154174142Y-69088632D01*
X157301194Y-69088632D01*
X157301194Y-73446809D01*
G37*
X150993257Y-86816816D02*
X147382913Y-86816816D01*
X147382913Y-77066318D01*
X150993257Y-77066318D01*
X150993257Y-86816816D01*
G36*
X150993257Y-86816816D02*
G01*
X147382913Y-86816816D01*
X147382913Y-77066318D01*
X150993257Y-77066318D01*
X150993257Y-86816816D01*
G37*
X111331037Y-95176136D02*
X107908513Y-95176136D01*
X107908513Y-90424000D01*
X111331037Y-90424000D01*
X111331037Y-95176136D01*
G36*
X111331037Y-95176136D02*
G01*
X107908513Y-95176136D01*
X107908513Y-90424000D01*
X111331037Y-90424000D01*
X111331037Y-95176136D01*
G37*
X104934903Y-86816816D02*
X101324559Y-86816816D01*
X101324559Y-77066318D01*
X104934903Y-77066318D01*
X104934903Y-86816816D01*
G36*
X104934903Y-86816816D02*
G01*
X101324559Y-86816816D01*
X101324559Y-77066318D01*
X104934903Y-77066318D01*
X104934903Y-86816816D01*
G37*
X94192487Y-86816816D02*
X90582143Y-86816816D01*
X90582143Y-77066318D01*
X94192487Y-77066318D01*
X94192487Y-86816816D01*
G36*
X94192487Y-86816816D02*
G01*
X90582143Y-86816816D01*
X90582143Y-77066318D01*
X94192487Y-77066318D01*
X94192487Y-86816816D01*
G37*
X153464105Y-61050715D02*
X151723031Y-61050715D01*
X151723031Y-60441340D01*
X153464105Y-60441340D01*
X153464105Y-61050715D01*
G36*
X153464105Y-61050715D02*
G01*
X151723031Y-61050715D01*
X151723031Y-60441340D01*
X153464105Y-60441340D01*
X153464105Y-61050715D01*
G37*
X93950850Y-73446809D02*
X90823796Y-73446809D01*
X90823796Y-69088632D01*
X93950850Y-69088632D01*
X93950850Y-73446809D01*
G36*
X93950850Y-73446809D02*
G01*
X90823796Y-73446809D01*
X90823796Y-69088632D01*
X93950850Y-69088632D01*
X93950850Y-73446809D01*
G37*
X163593705Y-73446809D02*
X160466653Y-73446809D01*
X160466653Y-69088632D01*
X163593705Y-69088632D01*
X163593705Y-73446809D01*
G36*
X163593705Y-73446809D02*
G01*
X160466653Y-73446809D01*
X160466653Y-69088632D01*
X163593705Y-69088632D01*
X163593705Y-73446809D01*
G37*
X163692193Y-99214225D02*
X160368157Y-99214225D01*
X160368157Y-97367542D01*
X163692193Y-97367542D01*
X163692193Y-99214225D01*
G36*
X163692193Y-99214225D02*
G01*
X160368157Y-99214225D01*
X160368157Y-97367542D01*
X163692193Y-97367542D01*
X163692193Y-99214225D01*
G37*
X174231645Y-73446809D02*
X171104592Y-73446809D01*
X171104592Y-69088632D01*
X174231645Y-69088632D01*
X174231645Y-73446809D01*
G36*
X174231645Y-73446809D02*
G01*
X171104592Y-73446809D01*
X171104592Y-69088632D01*
X174231645Y-69088632D01*
X174231645Y-73446809D01*
G37*
X143835988Y-61050715D02*
X142094918Y-61050715D01*
X142094918Y-60441340D01*
X143835988Y-60441340D01*
X143835988Y-61050715D01*
G36*
X143835988Y-61050715D02*
G01*
X142094918Y-61050715D01*
X142094918Y-60441340D01*
X143835988Y-60441340D01*
X143835988Y-61050715D01*
G37*
X138804276Y-61050715D02*
X137063207Y-61050715D01*
X137063207Y-60441340D01*
X138804276Y-60441340D01*
X138804276Y-61050715D01*
G36*
X138804276Y-61050715D02*
G01*
X137063207Y-61050715D01*
X137063207Y-60441340D01*
X138804276Y-60441340D01*
X138804276Y-61050715D01*
G37*
X117806748Y-99214225D02*
X114482717Y-99214225D01*
X114482717Y-97367542D01*
X117806748Y-97367542D01*
X117806748Y-99214225D01*
G36*
X117806748Y-99214225D02*
G01*
X114482717Y-99214225D01*
X114482717Y-97367542D01*
X117806748Y-97367542D01*
X117806748Y-99214225D01*
G37*
X98672580Y-61050715D02*
X96931508Y-61050715D01*
X96931508Y-60441340D01*
X98672580Y-60441340D01*
X98672580Y-61050715D01*
G36*
X98672580Y-61050715D02*
G01*
X96931508Y-61050715D01*
X96931508Y-60441340D01*
X98672580Y-60441340D01*
X98672580Y-61050715D01*
G37*
X124288754Y-95176136D02*
X120866231Y-95176136D01*
X120866231Y-90424000D01*
X124288754Y-90424000D01*
X124288754Y-95176136D01*
G36*
X124288754Y-95176136D02*
G01*
X120866231Y-95176136D01*
X120866231Y-90424000D01*
X124288754Y-90424000D01*
X124288754Y-95176136D01*
G37*
X108805621Y-61050715D02*
X107064549Y-61050715D01*
X107064549Y-60441340D01*
X108805621Y-60441340D01*
X108805621Y-61050715D01*
G36*
X108805621Y-61050715D02*
G01*
X107064549Y-61050715D01*
X107064549Y-60441340D01*
X108805621Y-60441340D01*
X108805621Y-61050715D01*
G37*
X162900720Y-61050715D02*
X161159646Y-61050715D01*
X161159646Y-60441340D01*
X162900720Y-60441340D01*
X162900720Y-61050715D01*
G36*
X162900720Y-61050715D02*
G01*
X161159646Y-61050715D01*
X161159646Y-60441340D01*
X162900720Y-60441340D01*
X162900720Y-61050715D01*
G37*
X124382672Y-86816816D02*
X120772328Y-86816816D01*
X120772328Y-77066318D01*
X124382672Y-77066318D01*
X124382672Y-86816816D01*
G36*
X124382672Y-86816816D02*
G01*
X120772328Y-86816816D01*
X120772328Y-77066318D01*
X124382672Y-77066318D01*
X124382672Y-86816816D01*
G37*
X118555619Y-61050715D02*
X116814549Y-61050715D01*
X116814549Y-60441340D01*
X118555619Y-60441340D01*
X118555619Y-61050715D01*
G36*
X118555619Y-61050715D02*
G01*
X116814549Y-61050715D01*
X116814549Y-60441340D01*
X118555619Y-60441340D01*
X118555619Y-61050715D01*
G37*
X144528977Y-73446809D02*
X141401925Y-73446809D01*
X141401925Y-69088632D01*
X144528977Y-69088632D01*
X144528977Y-73446809D01*
G36*
X144528977Y-73446809D02*
G01*
X141401925Y-73446809D01*
X141401925Y-69088632D01*
X144528977Y-69088632D01*
X144528977Y-73446809D01*
G37*
X93257846Y-61050715D02*
X91516774Y-61050715D01*
X91516774Y-60441340D01*
X93257846Y-60441340D01*
X93257846Y-61050715D01*
G36*
X93257846Y-61050715D02*
G01*
X91516774Y-61050715D01*
X91516774Y-60441340D01*
X93257846Y-60441340D01*
X93257846Y-61050715D01*
G37*
X130930528Y-99214225D02*
X127606496Y-99214225D01*
X127606496Y-97367542D01*
X130930528Y-97367542D01*
X130930528Y-99214225D01*
G36*
X130930528Y-99214225D02*
G01*
X127606496Y-99214225D01*
X127606496Y-97367542D01*
X130930528Y-97367542D01*
X130930528Y-99214225D01*
G37*
X137750943Y-95176136D02*
X134328420Y-95176136D01*
X134328420Y-90424000D01*
X137750943Y-90424000D01*
X137750943Y-95176136D01*
G36*
X137750943Y-95176136D02*
G01*
X134328420Y-95176136D01*
X134328420Y-90424000D01*
X137750943Y-90424000D01*
X137750943Y-95176136D01*
G37*
X174330148Y-99214225D02*
X171006112Y-99214225D01*
X171006112Y-97367542D01*
X174330148Y-97367542D01*
X174330148Y-99214225D01*
G36*
X174330148Y-99214225D02*
G01*
X171006112Y-99214225D01*
X171006112Y-97367542D01*
X174330148Y-97367542D01*
X174330148Y-99214225D01*
G37*
X163835359Y-86816816D02*
X160225015Y-86816816D01*
X160225015Y-77066318D01*
X163835359Y-77066318D01*
X163835359Y-86816816D01*
G36*
X163835359Y-86816816D02*
G01*
X160225015Y-86816816D01*
X160225015Y-77066318D01*
X163835359Y-77066318D01*
X163835359Y-86816816D01*
G37*
X104000262Y-61050715D02*
X102259191Y-61050715D01*
X102259191Y-60441340D01*
X104000262Y-60441340D01*
X104000262Y-61050715D01*
G36*
X104000262Y-61050715D02*
G01*
X102259191Y-61050715D01*
X102259191Y-60441340D01*
X104000262Y-60441340D01*
X104000262Y-61050715D01*
G37*
X133650712Y-61050715D02*
X131909642Y-61050715D01*
X131909642Y-60441340D01*
X133650712Y-60441340D01*
X133650712Y-61050715D01*
G36*
X133650712Y-61050715D02*
G01*
X131909642Y-61050715D01*
X131909642Y-60441340D01*
X133650712Y-60441340D01*
X133650712Y-61050715D01*
G37*
X131073682Y-86816816D02*
X127463338Y-86816816D01*
X127463338Y-77066318D01*
X131073682Y-77066318D01*
X131073682Y-86816816D01*
G36*
X131073682Y-86816816D02*
G01*
X127463338Y-86816816D01*
X127463338Y-77066318D01*
X131073682Y-77066318D01*
X131073682Y-86816816D01*
G37*
X148728402Y-61050715D02*
X146987328Y-61050715D01*
X146987328Y-60441340D01*
X148728402Y-60441340D01*
X148728402Y-61050715D01*
G36*
X148728402Y-61050715D02*
G01*
X146987328Y-61050715D01*
X146987328Y-60441340D01*
X148728402Y-60441340D01*
X148728402Y-61050715D01*
G37*
X130832028Y-73446809D02*
X127704976Y-73446809D01*
X127704976Y-69088632D01*
X130832028Y-69088632D01*
X130832028Y-73446809D01*
G36*
X130832028Y-73446809D02*
G01*
X127704976Y-73446809D01*
X127704976Y-69088632D01*
X130832028Y-69088632D01*
X130832028Y-73446809D01*
G37*
X158269464Y-61050715D02*
X156528390Y-61050715D01*
X156528390Y-60441340D01*
X158269464Y-60441340D01*
X158269464Y-61050715D01*
G36*
X158269464Y-61050715D02*
G01*
X156528390Y-61050715D01*
X156528390Y-60441340D01*
X158269464Y-60441340D01*
X158269464Y-61050715D01*
G37*
X113663211Y-61050715D02*
X111922139Y-61050715D01*
X111922139Y-60441340D01*
X113663211Y-60441340D01*
X113663211Y-61050715D01*
G36*
X113663211Y-61050715D02*
G01*
X111922139Y-61050715D01*
X111922139Y-60441340D01*
X113663211Y-60441340D01*
X113663211Y-61050715D01*
G37*
X173538659Y-61050715D02*
X171797585Y-61050715D01*
X171797585Y-60441340D01*
X173538659Y-60441340D01*
X173538659Y-61050715D01*
G36*
X173538659Y-61050715D02*
G01*
X171797585Y-61050715D01*
X171797585Y-60441340D01*
X173538659Y-60441340D01*
X173538659Y-61050715D01*
G37*
X117949903Y-86816816D02*
X114339559Y-86816816D01*
X114339559Y-77066318D01*
X117949903Y-77066318D01*
X117949903Y-86816816D01*
G36*
X117949903Y-86816816D02*
G01*
X114339559Y-86816816D01*
X114339559Y-77066318D01*
X117949903Y-77066318D01*
X117949903Y-86816816D01*
G37*
X128549363Y-61050715D02*
X126808293Y-61050715D01*
X126808293Y-60441340D01*
X128549363Y-60441340D01*
X128549363Y-61050715D01*
G36*
X128549363Y-61050715D02*
G01*
X126808293Y-61050715D01*
X126808293Y-60441340D01*
X128549363Y-60441340D01*
X128549363Y-61050715D01*
G37*
X104693252Y-73446809D02*
X101566197Y-73446809D01*
X101566197Y-69088632D01*
X104693252Y-69088632D01*
X104693252Y-73446809D01*
G36*
X104693252Y-73446809D02*
G01*
X101566197Y-73446809D01*
X101566197Y-69088632D01*
X104693252Y-69088632D01*
X104693252Y-73446809D01*
G37*
X144770616Y-86816816D02*
X141160272Y-86816816D01*
X141160272Y-77066318D01*
X144770616Y-77066318D01*
X144770616Y-86816816D01*
G36*
X144770616Y-86816816D02*
G01*
X141160272Y-86816816D01*
X141160272Y-77066318D01*
X144770616Y-77066318D01*
X144770616Y-86816816D01*
G37*
X111281787Y-99214225D02*
X107957753Y-99214225D01*
X107957753Y-97367542D01*
X111281787Y-97367542D01*
X111281787Y-99214225D01*
G36*
X111281787Y-99214225D02*
G01*
X107957753Y-99214225D01*
X107957753Y-97367542D01*
X111281787Y-97367542D01*
X111281787Y-99214225D01*
G37*
X104791736Y-99214225D02*
X101467702Y-99214225D01*
X101467702Y-97367542D01*
X104791736Y-97367542D01*
X104791736Y-99214225D01*
G36*
X104791736Y-99214225D02*
G01*
X101467702Y-99214225D01*
X101467702Y-97367542D01*
X104791736Y-97367542D01*
X104791736Y-99214225D01*
G37*
X137603208Y-73446809D02*
X134476155Y-73446809D01*
X134476155Y-69088632D01*
X137603208Y-69088632D01*
X137603208Y-73446809D01*
G36*
X137603208Y-73446809D02*
G01*
X134476155Y-73446809D01*
X134476155Y-69088632D01*
X137603208Y-69088632D01*
X137603208Y-73446809D01*
G37*
X150850106Y-99214225D02*
X147526071Y-99214225D01*
X147526071Y-97367542D01*
X150850106Y-97367542D01*
X150850106Y-99214225D01*
G36*
X150850106Y-99214225D02*
G01*
X147526071Y-99214225D01*
X147526071Y-97367542D01*
X150850106Y-97367542D01*
X150850106Y-99214225D01*
G37*
X144627461Y-99214225D02*
X141303430Y-99214225D01*
X141303430Y-97367542D01*
X144627461Y-97367542D01*
X144627461Y-99214225D01*
G36*
X144627461Y-99214225D02*
G01*
X141303430Y-99214225D01*
X141303430Y-97367542D01*
X144627461Y-97367542D01*
X144627461Y-99214225D01*
G37*
X157448930Y-95176136D02*
X154026406Y-95176136D01*
X154026406Y-90424000D01*
X157448930Y-90424000D01*
X157448930Y-95176136D01*
G36*
X157448930Y-95176136D02*
G01*
X154026406Y-95176136D01*
X154026406Y-90424000D01*
X157448930Y-90424000D01*
X157448930Y-95176136D01*
G37*
D11*
%TO.C,REF\u002A\u002A*%
X132926737Y-60500000D03*
%TD*%
D12*
%TO.C,J5*%
X124587000Y-110998000D03*
%TD*%
%TO.C,J4*%
X133985000Y-110998000D03*
%TD*%
%TO.C,J2*%
X133985000Y-104521000D03*
%TD*%
%TO.C,J3*%
X124587000Y-104521000D03*
%TD*%
M02*
