%TF.GenerationSoftware,KiCad,Pcbnew,7.0.7*%
%TF.CreationDate,2023-11-20T21:29:34+01:00*%
%TF.ProjectId,sss_ornament_2023,7373735f-6f72-46e6-916d-656e745f3230,rev?*%
%TF.SameCoordinates,Original*%
%TF.FileFunction,Soldermask,Bot*%
%TF.FilePolarity,Negative*%
%FSLAX46Y46*%
G04 Gerber Fmt 4.6, Leading zero omitted, Abs format (unit mm)*
G04 Created by KiCad (PCBNEW 7.0.7) date 2023-11-20 21:29:34*
%MOMM*%
%LPD*%
G01*
G04 APERTURE LIST*
G04 Aperture macros list*
%AMRoundRect*
0 Rectangle with rounded corners*
0 $1 Rounding radius*
0 $2 $3 $4 $5 $6 $7 $8 $9 X,Y pos of 4 corners*
0 Add a 4 corners polygon primitive as box body*
4,1,4,$2,$3,$4,$5,$6,$7,$8,$9,$2,$3,0*
0 Add four circle primitives for the rounded corners*
1,1,$1+$1,$2,$3*
1,1,$1+$1,$4,$5*
1,1,$1+$1,$6,$7*
1,1,$1+$1,$8,$9*
0 Add four rect primitives between the rounded corners*
20,1,$1+$1,$2,$3,$4,$5,0*
20,1,$1+$1,$4,$5,$6,$7,0*
20,1,$1+$1,$6,$7,$8,$9,0*
20,1,$1+$1,$8,$9,$2,$3,0*%
G04 Aperture macros list end*
%ADD10C,0.100000*%
%ADD11C,0.200000*%
%ADD12C,0.500000*%
%ADD13C,4.000000*%
%ADD14RoundRect,0.102000X-0.350000X0.400000X-0.350000X-0.400000X0.350000X-0.400000X0.350000X0.400000X0*%
%ADD15C,1.700000*%
%ADD16RoundRect,0.150000X0.150000X-0.825000X0.150000X0.825000X-0.150000X0.825000X-0.150000X-0.825000X0*%
%ADD17RoundRect,0.102000X-0.800000X0.750000X-0.800000X-0.750000X0.800000X-0.750000X0.800000X0.750000X0*%
%ADD18RoundRect,0.250000X0.450000X-0.350000X0.450000X0.350000X-0.450000X0.350000X-0.450000X-0.350000X0*%
%ADD19RoundRect,0.225000X0.225000X0.375000X-0.225000X0.375000X-0.225000X-0.375000X0.225000X-0.375000X0*%
%ADD20C,2.000000*%
%ADD21R,1.200000X2.500000*%
%ADD22R,0.400000X1.500000*%
%ADD23R,5.100000X5.100000*%
%ADD24C,17.800000*%
%ADD25R,0.450000X0.400000*%
%ADD26R,0.450000X0.500000*%
%ADD27RoundRect,0.250000X0.475000X-0.337500X0.475000X0.337500X-0.475000X0.337500X-0.475000X-0.337500X0*%
%ADD28R,1.500000X0.400000*%
%ADD29R,2.500000X1.000000*%
%ADD30RoundRect,0.250000X0.350000X0.450000X-0.350000X0.450000X-0.350000X-0.450000X0.350000X-0.450000X0*%
G04 APERTURE END LIST*
D10*
G36*
X169051716Y-67193752D02*
G01*
X169180920Y-67272154D01*
X169187759Y-67260726D01*
X169194538Y-67250070D01*
X169201258Y-67240186D01*
X169207916Y-67231076D01*
X169214515Y-67222738D01*
X169221054Y-67215173D01*
X169229679Y-67206289D01*
X169238197Y-67198779D01*
X169246608Y-67192642D01*
X169250773Y-67190089D01*
X169259765Y-67184937D01*
X169269397Y-67180472D01*
X169279670Y-67176694D01*
X169290585Y-67173602D01*
X169302141Y-67171198D01*
X169314338Y-67169481D01*
X169327176Y-67168450D01*
X169337225Y-67168128D01*
X169340655Y-67168107D01*
X169353047Y-67168442D01*
X169365035Y-67169446D01*
X169376620Y-67171121D01*
X169387801Y-67173465D01*
X169398579Y-67176479D01*
X169408953Y-67180163D01*
X169418924Y-67184516D01*
X169428491Y-67189539D01*
X169437654Y-67195232D01*
X169446414Y-67201595D01*
X169452030Y-67206209D01*
X169459974Y-67213342D01*
X169467136Y-67220818D01*
X169473518Y-67228637D01*
X169479118Y-67236800D01*
X169483936Y-67245307D01*
X169489145Y-67257183D01*
X169492141Y-67266491D01*
X169494355Y-67276142D01*
X169495787Y-67286137D01*
X169496438Y-67296476D01*
X169496482Y-67299998D01*
X169495471Y-67314382D01*
X169492437Y-67328225D01*
X169487382Y-67341527D01*
X169480304Y-67354289D01*
X169474463Y-67362496D01*
X169467722Y-67370462D01*
X169460083Y-67378188D01*
X169451545Y-67385674D01*
X169442108Y-67392919D01*
X169431773Y-67399924D01*
X169420538Y-67406688D01*
X169408406Y-67413212D01*
X169395374Y-67419496D01*
X169381443Y-67425539D01*
X169275686Y-67469014D01*
X169259867Y-67475668D01*
X169244587Y-67482501D01*
X169229848Y-67489513D01*
X169215648Y-67496705D01*
X169201989Y-67504076D01*
X169188869Y-67511627D01*
X169176290Y-67519357D01*
X169164250Y-67527266D01*
X169152751Y-67535355D01*
X169141792Y-67543623D01*
X169131372Y-67552070D01*
X169121493Y-67560697D01*
X169112153Y-67569503D01*
X169103354Y-67578488D01*
X169095094Y-67587653D01*
X169087375Y-67596997D01*
X169080129Y-67606565D01*
X169073350Y-67616399D01*
X169067039Y-67626501D01*
X169061195Y-67636870D01*
X169055819Y-67647506D01*
X169050910Y-67658409D01*
X169046469Y-67669580D01*
X169042495Y-67681017D01*
X169038989Y-67692722D01*
X169035950Y-67704693D01*
X169033379Y-67716932D01*
X169031275Y-67729438D01*
X169029639Y-67742211D01*
X169028470Y-67755252D01*
X169027769Y-67768559D01*
X169027536Y-67782133D01*
X169027912Y-67800312D01*
X169029043Y-67818091D01*
X169030927Y-67835468D01*
X169033565Y-67852445D01*
X169036957Y-67869021D01*
X169041102Y-67885196D01*
X169046002Y-67900971D01*
X169051654Y-67916345D01*
X169058061Y-67931318D01*
X169065221Y-67945891D01*
X169073135Y-67960062D01*
X169081803Y-67973834D01*
X169091225Y-67987204D01*
X169101400Y-68000174D01*
X169112329Y-68012743D01*
X169124011Y-68024911D01*
X169136375Y-68036623D01*
X169149104Y-68047580D01*
X169162196Y-68057781D01*
X169175654Y-68067226D01*
X169189475Y-68075916D01*
X169203661Y-68083850D01*
X169218212Y-68091028D01*
X169233127Y-68097451D01*
X169248406Y-68103118D01*
X169264050Y-68108030D01*
X169280059Y-68112186D01*
X169296432Y-68115586D01*
X169313169Y-68118231D01*
X169330271Y-68120120D01*
X169347737Y-68121253D01*
X169365568Y-68121631D01*
X169382449Y-68121305D01*
X169398960Y-68120326D01*
X169415101Y-68118694D01*
X169430872Y-68116410D01*
X169446273Y-68113474D01*
X169461303Y-68109884D01*
X169475963Y-68105643D01*
X169490254Y-68100748D01*
X169504174Y-68095201D01*
X169517723Y-68089002D01*
X169530903Y-68082150D01*
X169543712Y-68074645D01*
X169556151Y-68066487D01*
X169568220Y-68057678D01*
X169579919Y-68048215D01*
X169591248Y-68038100D01*
X169601952Y-68027424D01*
X169612142Y-68016217D01*
X169621819Y-68004480D01*
X169630983Y-67992213D01*
X169639634Y-67979415D01*
X169647771Y-67966087D01*
X169655395Y-67952228D01*
X169662506Y-67937838D01*
X169669103Y-67922918D01*
X169675187Y-67907468D01*
X169680758Y-67891487D01*
X169685816Y-67874976D01*
X169690360Y-67857935D01*
X169694391Y-67840363D01*
X169697909Y-67822260D01*
X169700913Y-67803627D01*
X169542888Y-67767967D01*
X169541448Y-67779404D01*
X169539877Y-67790388D01*
X169538174Y-67800920D01*
X169536339Y-67811000D01*
X169534373Y-67820627D01*
X169531176Y-67834221D01*
X169527684Y-67846797D01*
X169523895Y-67858355D01*
X169519810Y-67868896D01*
X169515428Y-67878419D01*
X169509126Y-67889534D01*
X169504053Y-67896683D01*
X169497707Y-67904994D01*
X169491002Y-67912769D01*
X169483938Y-67920008D01*
X169476515Y-67926710D01*
X169468733Y-67932876D01*
X169460593Y-67938506D01*
X169452094Y-67943600D01*
X169443237Y-67948158D01*
X169434020Y-67952179D01*
X169424445Y-67955664D01*
X169414512Y-67958613D01*
X169404219Y-67961026D01*
X169393568Y-67962903D01*
X169382558Y-67964243D01*
X169371189Y-67965048D01*
X169359462Y-67965316D01*
X169345582Y-67964873D01*
X169332153Y-67963547D01*
X169319175Y-67961336D01*
X169306648Y-67958240D01*
X169294571Y-67954260D01*
X169282946Y-67949396D01*
X169271771Y-67943647D01*
X169261047Y-67937014D01*
X169250774Y-67929496D01*
X169240951Y-67921094D01*
X169234653Y-67915002D01*
X169225749Y-67905332D01*
X169217721Y-67895189D01*
X169210568Y-67884575D01*
X169204291Y-67873488D01*
X169198890Y-67861929D01*
X169194365Y-67849898D01*
X169190715Y-67837394D01*
X169187942Y-67824418D01*
X169186044Y-67810970D01*
X169185023Y-67797049D01*
X169184828Y-67787507D01*
X169185128Y-67776055D01*
X169186030Y-67764964D01*
X169187533Y-67754234D01*
X169189636Y-67743864D01*
X169192341Y-67733854D01*
X169193376Y-67730598D01*
X169196917Y-67721036D01*
X169201127Y-67711765D01*
X169206007Y-67702786D01*
X169211557Y-67694099D01*
X169217777Y-67685704D01*
X169219999Y-67682971D01*
X169227154Y-67674922D01*
X169235066Y-67667080D01*
X169243732Y-67659443D01*
X169251532Y-67653237D01*
X169259856Y-67647174D01*
X169266893Y-67642427D01*
X169276092Y-67636521D01*
X169285827Y-67630711D01*
X169296099Y-67624996D01*
X169306907Y-67619376D01*
X169315941Y-67614949D01*
X169325317Y-67610583D01*
X169335037Y-67606279D01*
X169436887Y-67563536D01*
X169450230Y-67557682D01*
X169463150Y-67551662D01*
X169475647Y-67545474D01*
X169487720Y-67539119D01*
X169499369Y-67532598D01*
X169510594Y-67525909D01*
X169521396Y-67519054D01*
X169531775Y-67512031D01*
X169541730Y-67504842D01*
X169551261Y-67497486D01*
X169560368Y-67489962D01*
X169569052Y-67482272D01*
X169577313Y-67474415D01*
X169585150Y-67466390D01*
X169592563Y-67458199D01*
X169599552Y-67449841D01*
X169606118Y-67441316D01*
X169612261Y-67432624D01*
X169617979Y-67423765D01*
X169623274Y-67414739D01*
X169628146Y-67405546D01*
X169632594Y-67396186D01*
X169636618Y-67386659D01*
X169640219Y-67376965D01*
X169643396Y-67367104D01*
X169646149Y-67357077D01*
X169648479Y-67346882D01*
X169650385Y-67336520D01*
X169651868Y-67325991D01*
X169652927Y-67315296D01*
X169653562Y-67304433D01*
X169653774Y-67293404D01*
X169653418Y-67278596D01*
X169652351Y-67264094D01*
X169650571Y-67249898D01*
X169648080Y-67236006D01*
X169644877Y-67222420D01*
X169640963Y-67209140D01*
X169636337Y-67196164D01*
X169630999Y-67183494D01*
X169624949Y-67171129D01*
X169618187Y-67159070D01*
X169610714Y-67147316D01*
X169602529Y-67135867D01*
X169593632Y-67124723D01*
X169584024Y-67113885D01*
X169573704Y-67103352D01*
X169562672Y-67093124D01*
X169551142Y-67083276D01*
X169539266Y-67074062D01*
X169527046Y-67065484D01*
X169514479Y-67057541D01*
X169501568Y-67050234D01*
X169488311Y-67043562D01*
X169474709Y-67037526D01*
X169460761Y-67032125D01*
X169446468Y-67027359D01*
X169431830Y-67023229D01*
X169416846Y-67019734D01*
X169401517Y-67016875D01*
X169385843Y-67014651D01*
X169369823Y-67013062D01*
X169353458Y-67012109D01*
X169336747Y-67011792D01*
X169325422Y-67011969D01*
X169314253Y-67012502D01*
X169303240Y-67013391D01*
X169292383Y-67014635D01*
X169281681Y-67016234D01*
X169271136Y-67018189D01*
X169260747Y-67020499D01*
X169250514Y-67023164D01*
X169240437Y-67026185D01*
X169230516Y-67029561D01*
X169220750Y-67033293D01*
X169211141Y-67037380D01*
X169201688Y-67041822D01*
X169192391Y-67046620D01*
X169183250Y-67051773D01*
X169174264Y-67057282D01*
X169165435Y-67063146D01*
X169156762Y-67069365D01*
X169148245Y-67075940D01*
X169139883Y-67082870D01*
X169131678Y-67090156D01*
X169123629Y-67097797D01*
X169115736Y-67105793D01*
X169107998Y-67114145D01*
X169100417Y-67122852D01*
X169092992Y-67131914D01*
X169085722Y-67141332D01*
X169078609Y-67151105D01*
X169071652Y-67161234D01*
X169064850Y-67171718D01*
X169058205Y-67182558D01*
X169051716Y-67193752D01*
G37*
G36*
X168596162Y-67418589D02*
G01*
X168613746Y-67419719D01*
X168630882Y-67421603D01*
X168647570Y-67424241D01*
X168663809Y-67427633D01*
X168679600Y-67431779D01*
X168694943Y-67436678D01*
X168709837Y-67442331D01*
X168724282Y-67448737D01*
X168738279Y-67455898D01*
X168751828Y-67463812D01*
X168764929Y-67472479D01*
X168777581Y-67481901D01*
X168789784Y-67492076D01*
X168801539Y-67503005D01*
X168812846Y-67514688D01*
X168818241Y-67520853D01*
X168828516Y-67533536D01*
X168838106Y-67546691D01*
X168847012Y-67560317D01*
X168855232Y-67574414D01*
X168862767Y-67588983D01*
X168869617Y-67604023D01*
X168875783Y-67619534D01*
X168881263Y-67635517D01*
X168886058Y-67651971D01*
X168890168Y-67668896D01*
X168893593Y-67686293D01*
X168896333Y-67704161D01*
X168898389Y-67722500D01*
X168899759Y-67741310D01*
X168900444Y-67760592D01*
X168900529Y-67770410D01*
X168900175Y-67790041D01*
X168899113Y-67809183D01*
X168897344Y-67827837D01*
X168894866Y-67846003D01*
X168891680Y-67863680D01*
X168887787Y-67880869D01*
X168883185Y-67897569D01*
X168877876Y-67913780D01*
X168871858Y-67929504D01*
X168865133Y-67944738D01*
X168857700Y-67959484D01*
X168849559Y-67973742D01*
X168840710Y-67987511D01*
X168831153Y-68000792D01*
X168820888Y-68013584D01*
X168809915Y-68025888D01*
X168798328Y-68037482D01*
X168786281Y-68048328D01*
X168773774Y-68058426D01*
X168760807Y-68067775D01*
X168747380Y-68076377D01*
X168733494Y-68084231D01*
X168719147Y-68091337D01*
X168704341Y-68097695D01*
X168689075Y-68103305D01*
X168673349Y-68108167D01*
X168657163Y-68112281D01*
X168640517Y-68115647D01*
X168623412Y-68118265D01*
X168605846Y-68120135D01*
X168587821Y-68121257D01*
X168569336Y-68121631D01*
X168556448Y-68121459D01*
X168543797Y-68120944D01*
X168531383Y-68120085D01*
X168519205Y-68118883D01*
X168507264Y-68117338D01*
X168495559Y-68115449D01*
X168484091Y-68113216D01*
X168472860Y-68110640D01*
X168461781Y-68107698D01*
X168450893Y-68104366D01*
X168440196Y-68100645D01*
X168429690Y-68096535D01*
X168419375Y-68092036D01*
X168409250Y-68087147D01*
X168399316Y-68081869D01*
X168389573Y-68076202D01*
X168380006Y-68070081D01*
X168370599Y-68063562D01*
X168361352Y-68056647D01*
X168352265Y-68049335D01*
X168343339Y-68041626D01*
X168334573Y-68033520D01*
X168325967Y-68025018D01*
X168317522Y-68016118D01*
X168309149Y-68006730D01*
X168300883Y-67996884D01*
X168294753Y-67989199D01*
X168288684Y-67981256D01*
X168282674Y-67973056D01*
X168276725Y-67964598D01*
X168270836Y-67955883D01*
X168265007Y-67946910D01*
X168259239Y-67937679D01*
X168253530Y-67928191D01*
X168383956Y-67857605D01*
X168389838Y-67866405D01*
X168395641Y-67874854D01*
X168401364Y-67882952D01*
X168409797Y-67894441D01*
X168418050Y-67905140D01*
X168426123Y-67915049D01*
X168434016Y-67924168D01*
X168441728Y-67932497D01*
X168449260Y-67940036D01*
X168459022Y-67948860D01*
X168468464Y-67956279D01*
X168475694Y-67961036D01*
X168485890Y-67966652D01*
X168496718Y-67971436D01*
X168508181Y-67975388D01*
X168520276Y-67978507D01*
X168533006Y-67980795D01*
X168542968Y-67981965D01*
X168553287Y-67982667D01*
X168563963Y-67982901D01*
X168573109Y-67982719D01*
X168586439Y-67981762D01*
X168599301Y-67979985D01*
X168611696Y-67977389D01*
X168623622Y-67973972D01*
X168635080Y-67969735D01*
X168646070Y-67964678D01*
X168656592Y-67958801D01*
X168666647Y-67952105D01*
X168676233Y-67944588D01*
X168685351Y-67936251D01*
X168693875Y-67927122D01*
X168701677Y-67917414D01*
X168708759Y-67907127D01*
X168715118Y-67896260D01*
X168720757Y-67884813D01*
X168725674Y-67872787D01*
X168729870Y-67860181D01*
X168733345Y-67846995D01*
X168736098Y-67833230D01*
X168738131Y-67818885D01*
X168739085Y-67809000D01*
X168259636Y-67809000D01*
X168259636Y-67772608D01*
X168259719Y-67762284D01*
X168259968Y-67752101D01*
X168260383Y-67742061D01*
X168260964Y-67732163D01*
X168262624Y-67712793D01*
X168264948Y-67693992D01*
X168266594Y-67683948D01*
X168418394Y-67683948D01*
X168728827Y-67683948D01*
X168727853Y-67680278D01*
X168724613Y-67669568D01*
X168720892Y-67659304D01*
X168716691Y-67649487D01*
X168712008Y-67640116D01*
X168706845Y-67631191D01*
X168705923Y-67629733D01*
X168700176Y-67621272D01*
X168694051Y-67613309D01*
X168687548Y-67605845D01*
X168680667Y-67598878D01*
X168672162Y-67591380D01*
X168665720Y-67586380D01*
X168656340Y-67580023D01*
X168646539Y-67574413D01*
X168636318Y-67569551D01*
X168627221Y-67565979D01*
X168624124Y-67564884D01*
X168614658Y-67562025D01*
X168604935Y-67559801D01*
X168594955Y-67558212D01*
X168584717Y-67557259D01*
X168574221Y-67556942D01*
X168559129Y-67557438D01*
X168544751Y-67558926D01*
X168531087Y-67561407D01*
X168518137Y-67564879D01*
X168505900Y-67569345D01*
X168494376Y-67574802D01*
X168483567Y-67581251D01*
X168473471Y-67588693D01*
X168464088Y-67597127D01*
X168455420Y-67606553D01*
X168447464Y-67616972D01*
X168440223Y-67628383D01*
X168433695Y-67640786D01*
X168427881Y-67654181D01*
X168422781Y-67668568D01*
X168418394Y-67683948D01*
X168266594Y-67683948D01*
X168267936Y-67675760D01*
X168271589Y-67658096D01*
X168275905Y-67641001D01*
X168280885Y-67624475D01*
X168286529Y-67608517D01*
X168292838Y-67593128D01*
X168299810Y-67578307D01*
X168307447Y-67564055D01*
X168315747Y-67550372D01*
X168324711Y-67537257D01*
X168334340Y-67524711D01*
X168344633Y-67512734D01*
X168355620Y-67501288D01*
X168367088Y-67490580D01*
X168379036Y-67480611D01*
X168391466Y-67471380D01*
X168404377Y-67462888D01*
X168417768Y-67455134D01*
X168431640Y-67448119D01*
X168445993Y-67441842D01*
X168460827Y-67436304D01*
X168476142Y-67431504D01*
X168491938Y-67427442D01*
X168508214Y-67424119D01*
X168524971Y-67421535D01*
X168542210Y-67419689D01*
X168559929Y-67418581D01*
X168578129Y-67418212D01*
X168596162Y-67418589D01*
G37*
G36*
X167579664Y-67465351D02*
G01*
X167579664Y-67669293D01*
X167586183Y-67661452D01*
X167592613Y-67653925D01*
X167602089Y-67643225D01*
X167611363Y-67633234D01*
X167620436Y-67623951D01*
X167629306Y-67615377D01*
X167637975Y-67607511D01*
X167646442Y-67600353D01*
X167654708Y-67593904D01*
X167662771Y-67588163D01*
X167673209Y-67581610D01*
X167683631Y-67575828D01*
X167694504Y-67570818D01*
X167705827Y-67566578D01*
X167717600Y-67563109D01*
X167729824Y-67560411D01*
X167742498Y-67558483D01*
X167752299Y-67557544D01*
X167762353Y-67557038D01*
X167769196Y-67556942D01*
X167779830Y-67557179D01*
X167790239Y-67557892D01*
X167800423Y-67559080D01*
X167810382Y-67560743D01*
X167820115Y-67562881D01*
X167829624Y-67565494D01*
X167838907Y-67568582D01*
X167852409Y-67574106D01*
X167865405Y-67580698D01*
X167877894Y-67588359D01*
X167885939Y-67594061D01*
X167893759Y-67600238D01*
X167901353Y-67606889D01*
X167908722Y-67614016D01*
X167912323Y-67617758D01*
X167919244Y-67625450D01*
X167925718Y-67633382D01*
X167931746Y-67641555D01*
X167937327Y-67649968D01*
X167942462Y-67658621D01*
X167947150Y-67667515D01*
X167951392Y-67676649D01*
X167955187Y-67686024D01*
X167958536Y-67695639D01*
X167961438Y-67705495D01*
X167963894Y-67715591D01*
X167965903Y-67725927D01*
X167967466Y-67736504D01*
X167968582Y-67747321D01*
X167969252Y-67758379D01*
X167969475Y-67769677D01*
X167969261Y-67781210D01*
X167968617Y-67792483D01*
X167967543Y-67803497D01*
X167966041Y-67814251D01*
X167964109Y-67824746D01*
X167961747Y-67834982D01*
X167958957Y-67844957D01*
X167955737Y-67854674D01*
X167952087Y-67864130D01*
X167948009Y-67873328D01*
X167943501Y-67882265D01*
X167938564Y-67890944D01*
X167933197Y-67899362D01*
X167927401Y-67907522D01*
X167921176Y-67915421D01*
X167914521Y-67923062D01*
X167907412Y-67930308D01*
X167900069Y-67937086D01*
X167892490Y-67943398D01*
X167880683Y-67951988D01*
X167868348Y-67959526D01*
X167855484Y-67966013D01*
X167842092Y-67971447D01*
X167828173Y-67975830D01*
X167818599Y-67978168D01*
X167808792Y-67980038D01*
X167798749Y-67981440D01*
X167788472Y-67982375D01*
X167777960Y-67982843D01*
X167772616Y-67982901D01*
X167762382Y-67982693D01*
X167752380Y-67982068D01*
X167742610Y-67981027D01*
X167729943Y-67978991D01*
X167717689Y-67976215D01*
X167705847Y-67972698D01*
X167694417Y-67968441D01*
X167683400Y-67963443D01*
X167675407Y-67959210D01*
X167664989Y-67952672D01*
X167656884Y-67946883D01*
X167648531Y-67940333D01*
X167639928Y-67933024D01*
X167631077Y-67924954D01*
X167621977Y-67916125D01*
X167612627Y-67906536D01*
X167603029Y-67896187D01*
X167596491Y-67888865D01*
X167589843Y-67881206D01*
X167583085Y-67873209D01*
X167579664Y-67869084D01*
X167579664Y-68072538D01*
X167591298Y-68078483D01*
X167602936Y-68084044D01*
X167614577Y-68089222D01*
X167626223Y-68094016D01*
X167637872Y-68098427D01*
X167649525Y-68102454D01*
X167661182Y-68106098D01*
X167672843Y-68109358D01*
X167684507Y-68112234D01*
X167696175Y-68114727D01*
X167707848Y-68116837D01*
X167719523Y-68118563D01*
X167731203Y-68119905D01*
X167742887Y-68120864D01*
X167754574Y-68121439D01*
X167766265Y-68121631D01*
X167785273Y-68121241D01*
X167803890Y-68120070D01*
X167822116Y-68118119D01*
X167839950Y-68115388D01*
X167857394Y-68111876D01*
X167874446Y-68107583D01*
X167891107Y-68102510D01*
X167907377Y-68096657D01*
X167923255Y-68090024D01*
X167938743Y-68082609D01*
X167953839Y-68074415D01*
X167968544Y-68065440D01*
X167982858Y-68055685D01*
X167996781Y-68045149D01*
X168010313Y-68033832D01*
X168023453Y-68021736D01*
X168035964Y-68008997D01*
X168047668Y-67995877D01*
X168058564Y-67982374D01*
X168068653Y-67968491D01*
X168077936Y-67954225D01*
X168086411Y-67939579D01*
X168094078Y-67924550D01*
X168100939Y-67909140D01*
X168106993Y-67893348D01*
X168112239Y-67877174D01*
X168116679Y-67860619D01*
X168120311Y-67843683D01*
X168123136Y-67826364D01*
X168125154Y-67808664D01*
X168126364Y-67790583D01*
X168126768Y-67772120D01*
X168126359Y-67753707D01*
X168125131Y-67735655D01*
X168123084Y-67717963D01*
X168120219Y-67700633D01*
X168116535Y-67683663D01*
X168112033Y-67667053D01*
X168106712Y-67650804D01*
X168100573Y-67634916D01*
X168093615Y-67619389D01*
X168085838Y-67604222D01*
X168077243Y-67589415D01*
X168067829Y-67574970D01*
X168057597Y-67560885D01*
X168046546Y-67547160D01*
X168034676Y-67533797D01*
X168021988Y-67520794D01*
X168008704Y-67508372D01*
X167995048Y-67496751D01*
X167981021Y-67485932D01*
X167966621Y-67475914D01*
X167951849Y-67466698D01*
X167936705Y-67458283D01*
X167921189Y-67450669D01*
X167905301Y-67443857D01*
X167889040Y-67437846D01*
X167872408Y-67432637D01*
X167855404Y-67428229D01*
X167838027Y-67424623D01*
X167820278Y-67421818D01*
X167802158Y-67419814D01*
X167783665Y-67418612D01*
X167764800Y-67418212D01*
X167752571Y-67418396D01*
X167740429Y-67418948D01*
X167728375Y-67419869D01*
X167716409Y-67421158D01*
X167704531Y-67422815D01*
X167692741Y-67424841D01*
X167681038Y-67427234D01*
X167669423Y-67429996D01*
X167657896Y-67433127D01*
X167646457Y-67436625D01*
X167635105Y-67440492D01*
X167623841Y-67444727D01*
X167612665Y-67449331D01*
X167601577Y-67454302D01*
X167590577Y-67459642D01*
X167579664Y-67465351D01*
G37*
G36*
X167125991Y-67418608D02*
G01*
X167143847Y-67419795D01*
X167161353Y-67421775D01*
X167178510Y-67424547D01*
X167195318Y-67428110D01*
X167211777Y-67432466D01*
X167227886Y-67437613D01*
X167243647Y-67443552D01*
X167259058Y-67450283D01*
X167274120Y-67457806D01*
X167288833Y-67466120D01*
X167303196Y-67475227D01*
X167317211Y-67485126D01*
X167330876Y-67495816D01*
X167344192Y-67507298D01*
X167357159Y-67519572D01*
X167369551Y-67532380D01*
X167381144Y-67545523D01*
X167391938Y-67559002D01*
X167401931Y-67572817D01*
X167411126Y-67586968D01*
X167419521Y-67601455D01*
X167427116Y-67616277D01*
X167433912Y-67631436D01*
X167439908Y-67646930D01*
X167445105Y-67662760D01*
X167449503Y-67678926D01*
X167453100Y-67695427D01*
X167455899Y-67712265D01*
X167457897Y-67729438D01*
X167459097Y-67746947D01*
X167459496Y-67764792D01*
X167459104Y-67783732D01*
X167457928Y-67802264D01*
X167455967Y-67820391D01*
X167453222Y-67838111D01*
X167449693Y-67855424D01*
X167445380Y-67872332D01*
X167440282Y-67888832D01*
X167434400Y-67904927D01*
X167427734Y-67920614D01*
X167420284Y-67935896D01*
X167412049Y-67950771D01*
X167403031Y-67965239D01*
X167393227Y-67979301D01*
X167382640Y-67992957D01*
X167371268Y-68006206D01*
X167359113Y-68019049D01*
X167346406Y-68031471D01*
X167333322Y-68043092D01*
X167319860Y-68053911D01*
X167306020Y-68063929D01*
X167291803Y-68073145D01*
X167277207Y-68081560D01*
X167262234Y-68089173D01*
X167246883Y-68095986D01*
X167231154Y-68101996D01*
X167215047Y-68107205D01*
X167198563Y-68111613D01*
X167181701Y-68115220D01*
X167164461Y-68118025D01*
X167146843Y-68120028D01*
X167128847Y-68121230D01*
X167110473Y-68121631D01*
X167091912Y-68121238D01*
X167073719Y-68120059D01*
X167055894Y-68118093D01*
X167038437Y-68115342D01*
X167021349Y-68111804D01*
X167004628Y-68107480D01*
X166988277Y-68102370D01*
X166972293Y-68096474D01*
X166956678Y-68089792D01*
X166941431Y-68082323D01*
X166926552Y-68074069D01*
X166912041Y-68065028D01*
X166897899Y-68055201D01*
X166884125Y-68044588D01*
X166870719Y-68033188D01*
X166857682Y-68021003D01*
X166845260Y-68008175D01*
X166833639Y-67994968D01*
X166822820Y-67981384D01*
X166812802Y-67967422D01*
X166803586Y-67953082D01*
X166795171Y-67938365D01*
X166787558Y-67923270D01*
X166780746Y-67907796D01*
X166774735Y-67891945D01*
X166769526Y-67875717D01*
X166765118Y-67859110D01*
X166761511Y-67842126D01*
X166758706Y-67824763D01*
X166756703Y-67807023D01*
X166755501Y-67788905D01*
X166755100Y-67770410D01*
X166912392Y-67770410D01*
X166912444Y-67776417D01*
X166912860Y-67788204D01*
X166913692Y-67799687D01*
X166914940Y-67810867D01*
X166916604Y-67821743D01*
X166918684Y-67832316D01*
X166921180Y-67842586D01*
X166924092Y-67852552D01*
X166927420Y-67862215D01*
X166931163Y-67871574D01*
X166935323Y-67880630D01*
X166939899Y-67889383D01*
X166944891Y-67897832D01*
X166953158Y-67909937D01*
X166959190Y-67917628D01*
X166965637Y-67925016D01*
X166972403Y-67932025D01*
X166983077Y-67941692D01*
X166994382Y-67950340D01*
X167006318Y-67957972D01*
X167018885Y-67964586D01*
X167032084Y-67970182D01*
X167045913Y-67974761D01*
X167055483Y-67977248D01*
X167065334Y-67979283D01*
X167075466Y-67980866D01*
X167085877Y-67981997D01*
X167096570Y-67982675D01*
X167107542Y-67982901D01*
X167118429Y-67982672D01*
X167129047Y-67981985D01*
X167139396Y-67980840D01*
X167149476Y-67979237D01*
X167159287Y-67977177D01*
X167168828Y-67974658D01*
X167182636Y-67970021D01*
X167195839Y-67964354D01*
X167208436Y-67957656D01*
X167220428Y-67949928D01*
X167231815Y-67941170D01*
X167242596Y-67931381D01*
X167249448Y-67924283D01*
X167252693Y-67920624D01*
X167261812Y-67909163D01*
X167267377Y-67901116D01*
X167272529Y-67892745D01*
X167277268Y-67884050D01*
X167281596Y-67875030D01*
X167285512Y-67865686D01*
X167289015Y-67856017D01*
X167292106Y-67846024D01*
X167294785Y-67835707D01*
X167297052Y-67825065D01*
X167298907Y-67814099D01*
X167300349Y-67802808D01*
X167301380Y-67791193D01*
X167301998Y-67779254D01*
X167302204Y-67766990D01*
X167301994Y-67755522D01*
X167301364Y-67744322D01*
X167300315Y-67733388D01*
X167298846Y-67722721D01*
X167296957Y-67712322D01*
X167294648Y-67702190D01*
X167291919Y-67692325D01*
X167288771Y-67682727D01*
X167285202Y-67673396D01*
X167281214Y-67664332D01*
X167276807Y-67655536D01*
X167271979Y-67647006D01*
X167266732Y-67638744D01*
X167261064Y-67630749D01*
X167254977Y-67623021D01*
X167248471Y-67615560D01*
X167241595Y-67608462D01*
X167230798Y-67598673D01*
X167219421Y-67589914D01*
X167207465Y-67582186D01*
X167194929Y-67575489D01*
X167181814Y-67569822D01*
X167168119Y-67565185D01*
X167158667Y-67562666D01*
X167148957Y-67560605D01*
X167138990Y-67559002D01*
X167128765Y-67557857D01*
X167118282Y-67557171D01*
X167107542Y-67556942D01*
X167096656Y-67557171D01*
X167086038Y-67557857D01*
X167075689Y-67559002D01*
X167065609Y-67560605D01*
X167055798Y-67562666D01*
X167046257Y-67565185D01*
X167032449Y-67569822D01*
X167019246Y-67575489D01*
X167006648Y-67582186D01*
X166994656Y-67589914D01*
X166983270Y-67598673D01*
X166972489Y-67608462D01*
X166965637Y-67615560D01*
X166959190Y-67622948D01*
X166953158Y-67630642D01*
X166947542Y-67638641D01*
X166942343Y-67646945D01*
X166937559Y-67655555D01*
X166933191Y-67664469D01*
X166929239Y-67673690D01*
X166925704Y-67683215D01*
X166922584Y-67693046D01*
X166919880Y-67703182D01*
X166917592Y-67713623D01*
X166915720Y-67724370D01*
X166914264Y-67735422D01*
X166913224Y-67746779D01*
X166912600Y-67758442D01*
X166912392Y-67770410D01*
X166755100Y-67770410D01*
X166755498Y-67752058D01*
X166756691Y-67734067D01*
X166758681Y-67716437D01*
X166761466Y-67699167D01*
X166765046Y-67682258D01*
X166769423Y-67665710D01*
X166774595Y-67649522D01*
X166780562Y-67633695D01*
X166787326Y-67618228D01*
X166794885Y-67603123D01*
X166803240Y-67588377D01*
X166812390Y-67573993D01*
X166822336Y-67559969D01*
X166833078Y-67546306D01*
X166844616Y-67533003D01*
X166856949Y-67520061D01*
X166870008Y-67507728D01*
X166883415Y-67496190D01*
X166897172Y-67485448D01*
X166911278Y-67475502D01*
X166925733Y-67466351D01*
X166940538Y-67457997D01*
X166955691Y-67450437D01*
X166971194Y-67443674D01*
X166987046Y-67437706D01*
X167003247Y-67432534D01*
X167019797Y-67428158D01*
X167036697Y-67424577D01*
X167053945Y-67421792D01*
X167071543Y-67419803D01*
X167089490Y-67418609D01*
X167107787Y-67418212D01*
X167125991Y-67418608D01*
G37*
G36*
X166587061Y-67433843D02*
G01*
X166429769Y-67433843D01*
X166429769Y-67497102D01*
X166419553Y-67487549D01*
X166409180Y-67478612D01*
X166398648Y-67470292D01*
X166387957Y-67462588D01*
X166377108Y-67455500D01*
X166366101Y-67449028D01*
X166354936Y-67443173D01*
X166343612Y-67437934D01*
X166332130Y-67433312D01*
X166320489Y-67429306D01*
X166308690Y-67425916D01*
X166296733Y-67423142D01*
X166284617Y-67420985D01*
X166272343Y-67419444D01*
X166259910Y-67418520D01*
X166247319Y-67418212D01*
X166232897Y-67418499D01*
X166218880Y-67419360D01*
X166205267Y-67420796D01*
X166192059Y-67422806D01*
X166179256Y-67425391D01*
X166166856Y-67428550D01*
X166154862Y-67432283D01*
X166143272Y-67436591D01*
X166132086Y-67441473D01*
X166121305Y-67446929D01*
X166110929Y-67452960D01*
X166100957Y-67459565D01*
X166091389Y-67466744D01*
X166082226Y-67474498D01*
X166073468Y-67482826D01*
X166065114Y-67491729D01*
X166058282Y-67499854D01*
X166051891Y-67508597D01*
X166045940Y-67517958D01*
X166040430Y-67527938D01*
X166035361Y-67538536D01*
X166030733Y-67549752D01*
X166026546Y-67561586D01*
X166022799Y-67574039D01*
X166019493Y-67587109D01*
X166016628Y-67600798D01*
X166014204Y-67615106D01*
X166012220Y-67630031D01*
X166010677Y-67645575D01*
X166009575Y-67661737D01*
X166008914Y-67678517D01*
X166008694Y-67695916D01*
X166008694Y-68106000D01*
X166165986Y-68106000D01*
X166165986Y-67732064D01*
X166166093Y-67719937D01*
X166166414Y-67708288D01*
X166166948Y-67697116D01*
X166167696Y-67686421D01*
X166168658Y-67676203D01*
X166169833Y-67666462D01*
X166171997Y-67652744D01*
X166174642Y-67640101D01*
X166177767Y-67628530D01*
X166181374Y-67618033D01*
X166185461Y-67608609D01*
X166191659Y-67597713D01*
X166193342Y-67595288D01*
X166200623Y-67586300D01*
X166209278Y-67578511D01*
X166219308Y-67571921D01*
X166230711Y-67566528D01*
X166240165Y-67563270D01*
X166250391Y-67560686D01*
X166261391Y-67558777D01*
X166273163Y-67557541D01*
X166285708Y-67556979D01*
X166290062Y-67556942D01*
X166304003Y-67557388D01*
X166317158Y-67558728D01*
X166329528Y-67560960D01*
X166341112Y-67564086D01*
X166351911Y-67568104D01*
X166361923Y-67573016D01*
X166371151Y-67578820D01*
X166379592Y-67585518D01*
X166387248Y-67593109D01*
X166394118Y-67601592D01*
X166398261Y-67607744D01*
X166403892Y-67617791D01*
X166408969Y-67629156D01*
X166413492Y-67641840D01*
X166417461Y-67655841D01*
X166419799Y-67665907D01*
X166421892Y-67676560D01*
X166423738Y-67687798D01*
X166425338Y-67699621D01*
X166426692Y-67712031D01*
X166427799Y-67725026D01*
X166428661Y-67738608D01*
X166429276Y-67752775D01*
X166429646Y-67767528D01*
X166429769Y-67782866D01*
X166429769Y-68106000D01*
X166587061Y-68106000D01*
X166587061Y-67433843D01*
G37*
G36*
X165335561Y-67513955D02*
G01*
X165347044Y-67502361D01*
X165358718Y-67491515D01*
X165370583Y-67481417D01*
X165382638Y-67472067D01*
X165394885Y-67463465D01*
X165407322Y-67455611D01*
X165419950Y-67448505D01*
X165432769Y-67442147D01*
X165445779Y-67436537D01*
X165458980Y-67431676D01*
X165472371Y-67427562D01*
X165485953Y-67424196D01*
X165499726Y-67421578D01*
X165513690Y-67419708D01*
X165527845Y-67418586D01*
X165542190Y-67418212D01*
X165558652Y-67418605D01*
X165574758Y-67419784D01*
X165590510Y-67421749D01*
X165605907Y-67424501D01*
X165620949Y-67428039D01*
X165635636Y-67432362D01*
X165649968Y-67437472D01*
X165663945Y-67443369D01*
X165677567Y-67450051D01*
X165690835Y-67457519D01*
X165703747Y-67465774D01*
X165716305Y-67474815D01*
X165728507Y-67484642D01*
X165740355Y-67495255D01*
X165751848Y-67506654D01*
X165762986Y-67518840D01*
X165773692Y-67531518D01*
X165783708Y-67544581D01*
X165793033Y-67558026D01*
X165801668Y-67571856D01*
X165809611Y-67586068D01*
X165816864Y-67600665D01*
X165823426Y-67615645D01*
X165829298Y-67631008D01*
X165834478Y-67646755D01*
X165838968Y-67662886D01*
X165842767Y-67679400D01*
X165845876Y-67696297D01*
X165848293Y-67713579D01*
X165850020Y-67731243D01*
X165851056Y-67749291D01*
X165851402Y-67767723D01*
X165851056Y-67786547D01*
X165850020Y-67804978D01*
X165848293Y-67823016D01*
X165845876Y-67840660D01*
X165842767Y-67857912D01*
X165838968Y-67874770D01*
X165834478Y-67891236D01*
X165829298Y-67907308D01*
X165823426Y-67922987D01*
X165816864Y-67938273D01*
X165809611Y-67953166D01*
X165801668Y-67967666D01*
X165793033Y-67981773D01*
X165783708Y-67995487D01*
X165773692Y-68008808D01*
X165762986Y-68021736D01*
X165751663Y-68033832D01*
X165739981Y-68045149D01*
X165727941Y-68055685D01*
X165715541Y-68065440D01*
X165702784Y-68074415D01*
X165689667Y-68082609D01*
X165676192Y-68090024D01*
X165662358Y-68096657D01*
X165648165Y-68102510D01*
X165633613Y-68107583D01*
X165618703Y-68111876D01*
X165603434Y-68115388D01*
X165587806Y-68118119D01*
X165571820Y-68120070D01*
X165555475Y-68121241D01*
X165538771Y-68121631D01*
X165524668Y-68121287D01*
X165510751Y-68120253D01*
X165497022Y-68118531D01*
X165483480Y-68116120D01*
X165470125Y-68113021D01*
X165456957Y-68109232D01*
X165443976Y-68104754D01*
X165431182Y-68099588D01*
X165418575Y-68093733D01*
X165406154Y-68087189D01*
X165393921Y-68079956D01*
X165381875Y-68072034D01*
X165370016Y-68063424D01*
X165358344Y-68054125D01*
X165346859Y-68044136D01*
X165335561Y-68033459D01*
X165335561Y-68106000D01*
X165178268Y-68106000D01*
X165178268Y-67770410D01*
X165326035Y-67770410D01*
X165326236Y-67781945D01*
X165326840Y-67793224D01*
X165327847Y-67804247D01*
X165329256Y-67815015D01*
X165331068Y-67825527D01*
X165333282Y-67835783D01*
X165335899Y-67845784D01*
X165338919Y-67855528D01*
X165342341Y-67865018D01*
X165346166Y-67874251D01*
X165350394Y-67883229D01*
X165355024Y-67891951D01*
X165360056Y-67900418D01*
X165365492Y-67908628D01*
X165371330Y-67916583D01*
X165377570Y-67924283D01*
X165384169Y-67931381D01*
X165394539Y-67941170D01*
X165405475Y-67949928D01*
X165416978Y-67957656D01*
X165429048Y-67964354D01*
X165441685Y-67970021D01*
X165454889Y-67974658D01*
X165468659Y-67978264D01*
X165482996Y-67980840D01*
X165492868Y-67981985D01*
X165502993Y-67982672D01*
X165513369Y-67982901D01*
X165527879Y-67982369D01*
X165541917Y-67980772D01*
X165555483Y-67978110D01*
X165568576Y-67974383D01*
X165581197Y-67969592D01*
X165593346Y-67963736D01*
X165605022Y-67956815D01*
X165616226Y-67948829D01*
X165626958Y-67939779D01*
X165637218Y-67929664D01*
X165643795Y-67922329D01*
X165652787Y-67910796D01*
X165660894Y-67898635D01*
X165665807Y-67890180D01*
X165670328Y-67881447D01*
X165674455Y-67872435D01*
X165678189Y-67863144D01*
X165681531Y-67853575D01*
X165684479Y-67843727D01*
X165687034Y-67833600D01*
X165689196Y-67823195D01*
X165690964Y-67812511D01*
X165692340Y-67801549D01*
X165693323Y-67790308D01*
X165693913Y-67778789D01*
X165694109Y-67766990D01*
X165694059Y-67761432D01*
X165693654Y-67750483D01*
X165692845Y-67739759D01*
X165691631Y-67729260D01*
X165690013Y-67718987D01*
X165687991Y-67708938D01*
X165685563Y-67699115D01*
X165682732Y-67689517D01*
X165679496Y-67680144D01*
X165675855Y-67670997D01*
X165671810Y-67662074D01*
X165664983Y-67649113D01*
X165659927Y-67640753D01*
X165654465Y-67632619D01*
X165648600Y-67624709D01*
X165642330Y-67617025D01*
X165635695Y-67609750D01*
X165625364Y-67599716D01*
X165614578Y-67590739D01*
X165603336Y-67582817D01*
X165591640Y-67575952D01*
X165579488Y-67570144D01*
X165566881Y-67565391D01*
X165553820Y-67561694D01*
X165540303Y-67559054D01*
X165526331Y-67557470D01*
X165511904Y-67556942D01*
X165506774Y-67557000D01*
X165496696Y-67557463D01*
X165486857Y-67558391D01*
X165472550Y-67560651D01*
X165458784Y-67563955D01*
X165445560Y-67568302D01*
X165432876Y-67573692D01*
X165420733Y-67580126D01*
X165409131Y-67587602D01*
X165398070Y-67596123D01*
X165387550Y-67605686D01*
X165377570Y-67616293D01*
X165371330Y-67623993D01*
X165365492Y-67631951D01*
X165360056Y-67640166D01*
X165355024Y-67648640D01*
X165350394Y-67657370D01*
X165346166Y-67666359D01*
X165342341Y-67675604D01*
X165338919Y-67685108D01*
X165335899Y-67694869D01*
X165333282Y-67704888D01*
X165331068Y-67715164D01*
X165329256Y-67725698D01*
X165327847Y-67736490D01*
X165326840Y-67747539D01*
X165326236Y-67758846D01*
X165326035Y-67770410D01*
X165178268Y-67770410D01*
X165178268Y-66949265D01*
X165335561Y-66949265D01*
X165335561Y-67513955D01*
G37*
G36*
X163915777Y-67193752D02*
G01*
X164044981Y-67272154D01*
X164051821Y-67260726D01*
X164058600Y-67250070D01*
X164065319Y-67240186D01*
X164071978Y-67231076D01*
X164078577Y-67222738D01*
X164085115Y-67215173D01*
X164093740Y-67206289D01*
X164102258Y-67198779D01*
X164110669Y-67192642D01*
X164114835Y-67190089D01*
X164123826Y-67184937D01*
X164133458Y-67180472D01*
X164143732Y-67176694D01*
X164154646Y-67173602D01*
X164166202Y-67171198D01*
X164178399Y-67169481D01*
X164191237Y-67168450D01*
X164201286Y-67168128D01*
X164204716Y-67168107D01*
X164217108Y-67168442D01*
X164229097Y-67169446D01*
X164240681Y-67171121D01*
X164251863Y-67173465D01*
X164262640Y-67176479D01*
X164273015Y-67180163D01*
X164282985Y-67184516D01*
X164292552Y-67189539D01*
X164301715Y-67195232D01*
X164310475Y-67201595D01*
X164316091Y-67206209D01*
X164324035Y-67213342D01*
X164331198Y-67220818D01*
X164337579Y-67228637D01*
X164343179Y-67236800D01*
X164347998Y-67245307D01*
X164353207Y-67257183D01*
X164356202Y-67266491D01*
X164358416Y-67276142D01*
X164359849Y-67286137D01*
X164360500Y-67296476D01*
X164360543Y-67299998D01*
X164359532Y-67314382D01*
X164356499Y-67328225D01*
X164351443Y-67341527D01*
X164344366Y-67354289D01*
X164338524Y-67362496D01*
X164331784Y-67370462D01*
X164324144Y-67378188D01*
X164315606Y-67385674D01*
X164306170Y-67392919D01*
X164295834Y-67399924D01*
X164284600Y-67406688D01*
X164272467Y-67413212D01*
X164259435Y-67419496D01*
X164245505Y-67425539D01*
X164139748Y-67469014D01*
X164123928Y-67475668D01*
X164108649Y-67482501D01*
X164093909Y-67489513D01*
X164079710Y-67496705D01*
X164066050Y-67504076D01*
X164052931Y-67511627D01*
X164040351Y-67519357D01*
X164028312Y-67527266D01*
X164016812Y-67535355D01*
X164005853Y-67543623D01*
X163995434Y-67552070D01*
X163985554Y-67560697D01*
X163976215Y-67569503D01*
X163967415Y-67578488D01*
X163959156Y-67587653D01*
X163951436Y-67596997D01*
X163944190Y-67606565D01*
X163937412Y-67616399D01*
X163931100Y-67626501D01*
X163925257Y-67636870D01*
X163919880Y-67647506D01*
X163914972Y-67658409D01*
X163910531Y-67669580D01*
X163906557Y-67681017D01*
X163903051Y-67692722D01*
X163900012Y-67704693D01*
X163897441Y-67716932D01*
X163895337Y-67729438D01*
X163893701Y-67742211D01*
X163892532Y-67755252D01*
X163891831Y-67768559D01*
X163891597Y-67782133D01*
X163891974Y-67800312D01*
X163893104Y-67818091D01*
X163894989Y-67835468D01*
X163897627Y-67852445D01*
X163901018Y-67869021D01*
X163905164Y-67885196D01*
X163910063Y-67900971D01*
X163915716Y-67916345D01*
X163922122Y-67931318D01*
X163929283Y-67945891D01*
X163937197Y-67960062D01*
X163945865Y-67973834D01*
X163955286Y-67987204D01*
X163965461Y-68000174D01*
X163976390Y-68012743D01*
X163988073Y-68024911D01*
X164000437Y-68036623D01*
X164013165Y-68047580D01*
X164026258Y-68057781D01*
X164039715Y-68067226D01*
X164053537Y-68075916D01*
X164067723Y-68083850D01*
X164082273Y-68091028D01*
X164097188Y-68097451D01*
X164112468Y-68103118D01*
X164128112Y-68108030D01*
X164144120Y-68112186D01*
X164160493Y-68115586D01*
X164177230Y-68118231D01*
X164194332Y-68120120D01*
X164211798Y-68121253D01*
X164229629Y-68121631D01*
X164246510Y-68121305D01*
X164263022Y-68120326D01*
X164279163Y-68118694D01*
X164294933Y-68116410D01*
X164310334Y-68113474D01*
X164325365Y-68109884D01*
X164340025Y-68105643D01*
X164354315Y-68100748D01*
X164368235Y-68095201D01*
X164381785Y-68089002D01*
X164394964Y-68082150D01*
X164407774Y-68074645D01*
X164420213Y-68066487D01*
X164432282Y-68057678D01*
X164443981Y-68048215D01*
X164455309Y-68038100D01*
X164466013Y-68027424D01*
X164476204Y-68016217D01*
X164485881Y-68004480D01*
X164495045Y-67992213D01*
X164503695Y-67979415D01*
X164511833Y-67966087D01*
X164519457Y-67952228D01*
X164526567Y-67937838D01*
X164533165Y-67922918D01*
X164539249Y-67907468D01*
X164544820Y-67891487D01*
X164549877Y-67874976D01*
X164554421Y-67857935D01*
X164558452Y-67840363D01*
X164561970Y-67822260D01*
X164564974Y-67803627D01*
X164406949Y-67767967D01*
X164405510Y-67779404D01*
X164403938Y-67790388D01*
X164402235Y-67800920D01*
X164400401Y-67811000D01*
X164398434Y-67820627D01*
X164395238Y-67834221D01*
X164391745Y-67846797D01*
X164387956Y-67858355D01*
X164383871Y-67868896D01*
X164379490Y-67878419D01*
X164373187Y-67889534D01*
X164368115Y-67896683D01*
X164361768Y-67904994D01*
X164355063Y-67912769D01*
X164347999Y-67920008D01*
X164340576Y-67926710D01*
X164332795Y-67932876D01*
X164324655Y-67938506D01*
X164316156Y-67943600D01*
X164307298Y-67948158D01*
X164298082Y-67952179D01*
X164288507Y-67955664D01*
X164278573Y-67958613D01*
X164268280Y-67961026D01*
X164257629Y-67962903D01*
X164246619Y-67964243D01*
X164235250Y-67965048D01*
X164223523Y-67965316D01*
X164209643Y-67964873D01*
X164196214Y-67963547D01*
X164183236Y-67961336D01*
X164170709Y-67958240D01*
X164158633Y-67954260D01*
X164147007Y-67949396D01*
X164135832Y-67943647D01*
X164125108Y-67937014D01*
X164114835Y-67929496D01*
X164105013Y-67921094D01*
X164098715Y-67915002D01*
X164089810Y-67905332D01*
X164081782Y-67895189D01*
X164074629Y-67884575D01*
X164068352Y-67873488D01*
X164062951Y-67861929D01*
X164058426Y-67849898D01*
X164054777Y-67837394D01*
X164052003Y-67824418D01*
X164050106Y-67810970D01*
X164049084Y-67797049D01*
X164048889Y-67787507D01*
X164049190Y-67776055D01*
X164050091Y-67764964D01*
X164051594Y-67754234D01*
X164053698Y-67743864D01*
X164056403Y-67733854D01*
X164057438Y-67730598D01*
X164060978Y-67721036D01*
X164065189Y-67711765D01*
X164070069Y-67702786D01*
X164075619Y-67694099D01*
X164081838Y-67685704D01*
X164084060Y-67682971D01*
X164091216Y-67674922D01*
X164099127Y-67667080D01*
X164107794Y-67659443D01*
X164115593Y-67653237D01*
X164123918Y-67647174D01*
X164130955Y-67642427D01*
X164140153Y-67636521D01*
X164149888Y-67630711D01*
X164160160Y-67624996D01*
X164170969Y-67619376D01*
X164180002Y-67614949D01*
X164189379Y-67610583D01*
X164199099Y-67606279D01*
X164300948Y-67563536D01*
X164314292Y-67557682D01*
X164327212Y-67551662D01*
X164339708Y-67545474D01*
X164351781Y-67539119D01*
X164363430Y-67532598D01*
X164374656Y-67525909D01*
X164385458Y-67519054D01*
X164395836Y-67512031D01*
X164405791Y-67504842D01*
X164415322Y-67497486D01*
X164424430Y-67489962D01*
X164433114Y-67482272D01*
X164441374Y-67474415D01*
X164449211Y-67466390D01*
X164456624Y-67458199D01*
X164463614Y-67449841D01*
X164470180Y-67441316D01*
X164476322Y-67432624D01*
X164482041Y-67423765D01*
X164487336Y-67414739D01*
X164492207Y-67405546D01*
X164496655Y-67396186D01*
X164500679Y-67386659D01*
X164504280Y-67376965D01*
X164507457Y-67367104D01*
X164510211Y-67357077D01*
X164512540Y-67346882D01*
X164514447Y-67336520D01*
X164515929Y-67325991D01*
X164516988Y-67315296D01*
X164517624Y-67304433D01*
X164517836Y-67293404D01*
X164517480Y-67278596D01*
X164516412Y-67264094D01*
X164514633Y-67249898D01*
X164512142Y-67236006D01*
X164508939Y-67222420D01*
X164505024Y-67209140D01*
X164500398Y-67196164D01*
X164495060Y-67183494D01*
X164489010Y-67171129D01*
X164482249Y-67159070D01*
X164474775Y-67147316D01*
X164466590Y-67135867D01*
X164457694Y-67124723D01*
X164448085Y-67113885D01*
X164437765Y-67103352D01*
X164426733Y-67093124D01*
X164415203Y-67083276D01*
X164403328Y-67074062D01*
X164391107Y-67065484D01*
X164378541Y-67057541D01*
X164365629Y-67050234D01*
X164352372Y-67043562D01*
X164338770Y-67037526D01*
X164324823Y-67032125D01*
X164310530Y-67027359D01*
X164295891Y-67023229D01*
X164280908Y-67019734D01*
X164265579Y-67016875D01*
X164249904Y-67014651D01*
X164233884Y-67013062D01*
X164217519Y-67012109D01*
X164200808Y-67011792D01*
X164189483Y-67011969D01*
X164178314Y-67012502D01*
X164167301Y-67013391D01*
X164156444Y-67014635D01*
X164145743Y-67016234D01*
X164135198Y-67018189D01*
X164124809Y-67020499D01*
X164114575Y-67023164D01*
X164104498Y-67026185D01*
X164094577Y-67029561D01*
X164084812Y-67033293D01*
X164075203Y-67037380D01*
X164065749Y-67041822D01*
X164056452Y-67046620D01*
X164047311Y-67051773D01*
X164038326Y-67057282D01*
X164029497Y-67063146D01*
X164020823Y-67069365D01*
X164012306Y-67075940D01*
X164003945Y-67082870D01*
X163995740Y-67090156D01*
X163987690Y-67097797D01*
X163979797Y-67105793D01*
X163972060Y-67114145D01*
X163964478Y-67122852D01*
X163957053Y-67131914D01*
X163949784Y-67141332D01*
X163942670Y-67151105D01*
X163935713Y-67161234D01*
X163928912Y-67171718D01*
X163922266Y-67182558D01*
X163915777Y-67193752D01*
G37*
G36*
X163551611Y-67574527D02*
G01*
X163551611Y-68106000D01*
X163708903Y-68106000D01*
X163708903Y-67574527D01*
X163771429Y-67574527D01*
X163771429Y-67435797D01*
X163708903Y-67435797D01*
X163708903Y-67183739D01*
X163551611Y-67183739D01*
X163551611Y-67435797D01*
X163427536Y-67435797D01*
X163427536Y-67574527D01*
X163551611Y-67574527D01*
G37*
G36*
X163326907Y-67433843D02*
G01*
X163169615Y-67433843D01*
X163169615Y-67497835D01*
X163161732Y-67489570D01*
X163154022Y-67481812D01*
X163146483Y-67474561D01*
X163139115Y-67467816D01*
X163129559Y-67459611D01*
X163120309Y-67452306D01*
X163111363Y-67445903D01*
X163102723Y-67440400D01*
X163094388Y-67435797D01*
X163083628Y-67430731D01*
X163072259Y-67426524D01*
X163062725Y-67423776D01*
X163052803Y-67421578D01*
X163042491Y-67419929D01*
X163031791Y-67418830D01*
X163020700Y-67418280D01*
X163015009Y-67418212D01*
X163003559Y-67418549D01*
X162992014Y-67419560D01*
X162980375Y-67421245D01*
X162968641Y-67423604D01*
X162956813Y-67426637D01*
X162944891Y-67430345D01*
X162932874Y-67434726D01*
X162920762Y-67439781D01*
X162908556Y-67445511D01*
X162896256Y-67451914D01*
X162888003Y-67456558D01*
X162958345Y-67605790D01*
X162966525Y-67600203D01*
X162977379Y-67593609D01*
X162988171Y-67587991D01*
X162998903Y-67583350D01*
X163009573Y-67579687D01*
X163020182Y-67577000D01*
X163030731Y-67575290D01*
X163041218Y-67574558D01*
X163043830Y-67574527D01*
X163059062Y-67575265D01*
X163073311Y-67577477D01*
X163086577Y-67581165D01*
X163098861Y-67586327D01*
X163110162Y-67592965D01*
X163120480Y-67601077D01*
X163129816Y-67610665D01*
X163138169Y-67621727D01*
X163145539Y-67634264D01*
X163151927Y-67648277D01*
X163157331Y-67663764D01*
X163161753Y-67680727D01*
X163165193Y-67699164D01*
X163166544Y-67708936D01*
X163167650Y-67719077D01*
X163168510Y-67729586D01*
X163169124Y-67740464D01*
X163169492Y-67751711D01*
X163169615Y-67763327D01*
X163169615Y-68106000D01*
X163326907Y-68106000D01*
X163326907Y-67433843D01*
G37*
G36*
X162625442Y-67433843D02*
G01*
X162625442Y-68106000D01*
X162782734Y-68106000D01*
X162782734Y-67433843D01*
X162625442Y-67433843D01*
G37*
G36*
X162798366Y-67159314D02*
G01*
X162797900Y-67149232D01*
X162796504Y-67139500D01*
X162793448Y-67127829D01*
X162788938Y-67116707D01*
X162782972Y-67106134D01*
X162777153Y-67098070D01*
X162770402Y-67090357D01*
X162768568Y-67088484D01*
X162760878Y-67081500D01*
X162752830Y-67075447D01*
X162744423Y-67070326D01*
X162733409Y-67065234D01*
X162721835Y-67061596D01*
X162712172Y-67059734D01*
X162702150Y-67058803D01*
X162697005Y-67058686D01*
X162686636Y-67059152D01*
X162676657Y-67060549D01*
X162667066Y-67062876D01*
X162655626Y-67067096D01*
X162646911Y-67071519D01*
X162638586Y-67076873D01*
X162630650Y-67083159D01*
X162624954Y-67088484D01*
X162617970Y-67095960D01*
X162611917Y-67103856D01*
X162605661Y-67114316D01*
X162600859Y-67125432D01*
X162598066Y-67134797D01*
X162596203Y-67144582D01*
X162595272Y-67154787D01*
X162595156Y-67160047D01*
X162595621Y-67170469D01*
X162597018Y-67180487D01*
X162599346Y-67190100D01*
X162603566Y-67201548D01*
X162609240Y-67212364D01*
X162614827Y-67220561D01*
X162621345Y-67228354D01*
X162624954Y-67232099D01*
X162632426Y-67239082D01*
X162640310Y-67245135D01*
X162650745Y-67251391D01*
X162661825Y-67256193D01*
X162673548Y-67259539D01*
X162683390Y-67261169D01*
X162693644Y-67261867D01*
X162696272Y-67261896D01*
X162706645Y-67261434D01*
X162716636Y-67260049D01*
X162726246Y-67257740D01*
X162735473Y-67254508D01*
X162744320Y-67250352D01*
X162752784Y-67245272D01*
X162760867Y-67239269D01*
X162768568Y-67232343D01*
X162775552Y-67224684D01*
X162781605Y-67216604D01*
X162786726Y-67208106D01*
X162790917Y-67199187D01*
X162794176Y-67189848D01*
X162796504Y-67180090D01*
X162797900Y-67169912D01*
X162798366Y-67159314D01*
G37*
G36*
X162434933Y-67433843D02*
G01*
X162277640Y-67433843D01*
X162277640Y-67497102D01*
X162267425Y-67487549D01*
X162257051Y-67478612D01*
X162246519Y-67470292D01*
X162235829Y-67462588D01*
X162224980Y-67455500D01*
X162213973Y-67449028D01*
X162202807Y-67443173D01*
X162191484Y-67437934D01*
X162180001Y-67433312D01*
X162168361Y-67429306D01*
X162156562Y-67425916D01*
X162144604Y-67423142D01*
X162132488Y-67420985D01*
X162120214Y-67419444D01*
X162107782Y-67418520D01*
X162095191Y-67418212D01*
X162080769Y-67418499D01*
X162066752Y-67419360D01*
X162053139Y-67420796D01*
X162039931Y-67422806D01*
X162027127Y-67425391D01*
X162014728Y-67428550D01*
X162002733Y-67432283D01*
X161991143Y-67436591D01*
X161979958Y-67441473D01*
X161969177Y-67446929D01*
X161958800Y-67452960D01*
X161948828Y-67459565D01*
X161939261Y-67466744D01*
X161930098Y-67474498D01*
X161921339Y-67482826D01*
X161912986Y-67491729D01*
X161906153Y-67499854D01*
X161899762Y-67508597D01*
X161893812Y-67517958D01*
X161888302Y-67527938D01*
X161883233Y-67538536D01*
X161878605Y-67549752D01*
X161874417Y-67561586D01*
X161870671Y-67574039D01*
X161867365Y-67587109D01*
X161864500Y-67600798D01*
X161862075Y-67615106D01*
X161860092Y-67630031D01*
X161858549Y-67645575D01*
X161857447Y-67661737D01*
X161856786Y-67678517D01*
X161856566Y-67695916D01*
X161856566Y-68106000D01*
X162013858Y-68106000D01*
X162013858Y-67732064D01*
X162013965Y-67719937D01*
X162014285Y-67708288D01*
X162014820Y-67697116D01*
X162015568Y-67686421D01*
X162016529Y-67676203D01*
X162017705Y-67666462D01*
X162019869Y-67652744D01*
X162022513Y-67640101D01*
X162025639Y-67628530D01*
X162029245Y-67618033D01*
X162033332Y-67608609D01*
X162039530Y-67597713D01*
X162041213Y-67595288D01*
X162048495Y-67586300D01*
X162057150Y-67578511D01*
X162067179Y-67571921D01*
X162078582Y-67566528D01*
X162088036Y-67563270D01*
X162098263Y-67560686D01*
X162109262Y-67558777D01*
X162121035Y-67557541D01*
X162133580Y-67556979D01*
X162137933Y-67556942D01*
X162151874Y-67557388D01*
X162165030Y-67558728D01*
X162177400Y-67560960D01*
X162188984Y-67564086D01*
X162199782Y-67568104D01*
X162209795Y-67573016D01*
X162219022Y-67578820D01*
X162227464Y-67585518D01*
X162235119Y-67593109D01*
X162241989Y-67601592D01*
X162246133Y-67607744D01*
X162251764Y-67617791D01*
X162256840Y-67629156D01*
X162261363Y-67641840D01*
X162265333Y-67655841D01*
X162267671Y-67665907D01*
X162269763Y-67676560D01*
X162271609Y-67687798D01*
X162273209Y-67699621D01*
X162274563Y-67712031D01*
X162275671Y-67725026D01*
X162276532Y-67738608D01*
X162277148Y-67752775D01*
X162277517Y-67767528D01*
X162277640Y-67782866D01*
X162277640Y-68106000D01*
X162434933Y-68106000D01*
X162434933Y-67433843D01*
G37*
G36*
X161406238Y-67418632D02*
G01*
X161423443Y-67419895D01*
X161440211Y-67421998D01*
X161456542Y-67424944D01*
X161472435Y-67428730D01*
X161487892Y-67433359D01*
X161502912Y-67438828D01*
X161517495Y-67445139D01*
X161531641Y-67452292D01*
X161545351Y-67460286D01*
X161558623Y-67469122D01*
X161571458Y-67478799D01*
X161583856Y-67489318D01*
X161595817Y-67500678D01*
X161607341Y-67512880D01*
X161618429Y-67525923D01*
X161628218Y-67538793D01*
X161637377Y-67552003D01*
X161645903Y-67565553D01*
X161653798Y-67579442D01*
X161661062Y-67593672D01*
X161667693Y-67608240D01*
X161673693Y-67623149D01*
X161679062Y-67638397D01*
X161683799Y-67653984D01*
X161687904Y-67669912D01*
X161691378Y-67686178D01*
X161694220Y-67702785D01*
X161696431Y-67719731D01*
X161698010Y-67737017D01*
X161698957Y-67754643D01*
X161699273Y-67772608D01*
X161698933Y-67791068D01*
X161697915Y-67809141D01*
X161696216Y-67826827D01*
X161693839Y-67844125D01*
X161690782Y-67861036D01*
X161687046Y-67877560D01*
X161682630Y-67893696D01*
X161677536Y-67909445D01*
X161671761Y-67924807D01*
X161665308Y-67939781D01*
X161658175Y-67954368D01*
X161650363Y-67968567D01*
X161641872Y-67982379D01*
X161632702Y-67995804D01*
X161622852Y-68008841D01*
X161612323Y-68021491D01*
X161601354Y-68033381D01*
X161590001Y-68044504D01*
X161578265Y-68054859D01*
X161566145Y-68064448D01*
X161553642Y-68073269D01*
X161540756Y-68081323D01*
X161527485Y-68088611D01*
X161513832Y-68095131D01*
X161499794Y-68100884D01*
X161485374Y-68105870D01*
X161470569Y-68110089D01*
X161455381Y-68113540D01*
X161439810Y-68116225D01*
X161423855Y-68118143D01*
X161407516Y-68119294D01*
X161390794Y-68119677D01*
X161376035Y-68119308D01*
X161361493Y-68118200D01*
X161347168Y-68116354D01*
X161333061Y-68113769D01*
X161319172Y-68110446D01*
X161305500Y-68106385D01*
X161292046Y-68101585D01*
X161278809Y-68096047D01*
X161265790Y-68089770D01*
X161252988Y-68082754D01*
X161240404Y-68075001D01*
X161228037Y-68066508D01*
X161215888Y-68057278D01*
X161203956Y-68047309D01*
X161192242Y-68036601D01*
X161180746Y-68025155D01*
X161180746Y-68118700D01*
X161180909Y-68131503D01*
X161181400Y-68143899D01*
X161182218Y-68155889D01*
X161183364Y-68167472D01*
X161184836Y-68178649D01*
X161186636Y-68189420D01*
X161188763Y-68199784D01*
X161191217Y-68209742D01*
X161197108Y-68228438D01*
X161204307Y-68245508D01*
X161212816Y-68260953D01*
X161222633Y-68274771D01*
X161233760Y-68286964D01*
X161246195Y-68297532D01*
X161259939Y-68306473D01*
X161274993Y-68313789D01*
X161291355Y-68319479D01*
X161309026Y-68323544D01*
X161328007Y-68325982D01*
X161337988Y-68326592D01*
X161348296Y-68326795D01*
X161353932Y-68326734D01*
X161364950Y-68326245D01*
X161375628Y-68325269D01*
X161385966Y-68323803D01*
X161395965Y-68321849D01*
X161405624Y-68319407D01*
X161419476Y-68314827D01*
X161432563Y-68309148D01*
X161444887Y-68302371D01*
X161456446Y-68294494D01*
X161467241Y-68285518D01*
X161477271Y-68275443D01*
X161486538Y-68264269D01*
X161489027Y-68260881D01*
X161494857Y-68251618D01*
X161500127Y-68241222D01*
X161503940Y-68232090D01*
X161507394Y-68222232D01*
X161510489Y-68211650D01*
X161513225Y-68200342D01*
X161515602Y-68188309D01*
X161669964Y-68188309D01*
X161667962Y-68204481D01*
X161665377Y-68220206D01*
X161662207Y-68235484D01*
X161658454Y-68250316D01*
X161654117Y-68264702D01*
X161649196Y-68278641D01*
X161643691Y-68292134D01*
X161637602Y-68305180D01*
X161630929Y-68317779D01*
X161623672Y-68329932D01*
X161615832Y-68341639D01*
X161607407Y-68352898D01*
X161598399Y-68363712D01*
X161588807Y-68374079D01*
X161578631Y-68383999D01*
X161567870Y-68393473D01*
X161556971Y-68402198D01*
X161545705Y-68410360D01*
X161534073Y-68417960D01*
X161522075Y-68424996D01*
X161509710Y-68431469D01*
X161496979Y-68437380D01*
X161483881Y-68442727D01*
X161470418Y-68447512D01*
X161456587Y-68451734D01*
X161442391Y-68455393D01*
X161427828Y-68458489D01*
X161412898Y-68461022D01*
X161397603Y-68462992D01*
X161381941Y-68464399D01*
X161365912Y-68465244D01*
X161349517Y-68465525D01*
X161330149Y-68465119D01*
X161311305Y-68463903D01*
X161292986Y-68461876D01*
X161275191Y-68459037D01*
X161257922Y-68455388D01*
X161241177Y-68450928D01*
X161224956Y-68445656D01*
X161209261Y-68439574D01*
X161194090Y-68432681D01*
X161179444Y-68424977D01*
X161165323Y-68416462D01*
X161151726Y-68407136D01*
X161138655Y-68396999D01*
X161126108Y-68386051D01*
X161114085Y-68374292D01*
X161102588Y-68361722D01*
X161096757Y-68354920D01*
X161088474Y-68344399D01*
X161080743Y-68333496D01*
X161073567Y-68322211D01*
X161066945Y-68310544D01*
X161060876Y-68298495D01*
X161055361Y-68286064D01*
X161050400Y-68273250D01*
X161045993Y-68260055D01*
X161042140Y-68246477D01*
X161038840Y-68232517D01*
X161036828Y-68222042D01*
X161035005Y-68210948D01*
X161033630Y-68201230D01*
X161032386Y-68191084D01*
X161031273Y-68180508D01*
X161030292Y-68169503D01*
X161029725Y-68162672D01*
X161028903Y-68150849D01*
X161028357Y-68140995D01*
X161027911Y-68130790D01*
X161027563Y-68120234D01*
X161027315Y-68109327D01*
X161027166Y-68098069D01*
X161027117Y-68086460D01*
X161027117Y-67769677D01*
X161174639Y-67769677D01*
X161174822Y-67780816D01*
X161175368Y-67791701D01*
X161176280Y-67802332D01*
X161177555Y-67812710D01*
X161179195Y-67822833D01*
X161181200Y-67832703D01*
X161183569Y-67842319D01*
X161187805Y-67856268D01*
X161192862Y-67869645D01*
X161198739Y-67882451D01*
X161205436Y-67894687D01*
X161212953Y-67906351D01*
X161221290Y-67917444D01*
X161227812Y-67925134D01*
X161234616Y-67932328D01*
X161245353Y-67942188D01*
X161256724Y-67950932D01*
X161268731Y-67958560D01*
X161281374Y-67965071D01*
X161294651Y-67970467D01*
X161308565Y-67974746D01*
X161318193Y-67976978D01*
X161328104Y-67978715D01*
X161338297Y-67979955D01*
X161348773Y-67980699D01*
X161359531Y-67980947D01*
X161364959Y-67980886D01*
X161375593Y-67980395D01*
X161385932Y-67979415D01*
X161395974Y-67977943D01*
X161405721Y-67975982D01*
X161419787Y-67972120D01*
X161433187Y-67967155D01*
X161445922Y-67961086D01*
X161457991Y-67953914D01*
X161469395Y-67945639D01*
X161480133Y-67936260D01*
X161490206Y-67925778D01*
X161496552Y-67918177D01*
X161504670Y-67907083D01*
X161511990Y-67895419D01*
X161518512Y-67883184D01*
X161524235Y-67870378D01*
X161529159Y-67857000D01*
X161533285Y-67843052D01*
X161535592Y-67833436D01*
X161537544Y-67823566D01*
X161539141Y-67813442D01*
X161540384Y-67803065D01*
X161541271Y-67792434D01*
X161541803Y-67781549D01*
X161541981Y-67770410D01*
X161541803Y-67759094D01*
X161541271Y-67748043D01*
X161540384Y-67737257D01*
X161539141Y-67726736D01*
X161537544Y-67716481D01*
X161535592Y-67706491D01*
X161533285Y-67696766D01*
X161529159Y-67682676D01*
X161524235Y-67669183D01*
X161518512Y-67656286D01*
X161511990Y-67643986D01*
X161504670Y-67632284D01*
X161496552Y-67621177D01*
X161490120Y-67613399D01*
X161483404Y-67606122D01*
X161472798Y-67596148D01*
X161461551Y-67587303D01*
X161449665Y-67579587D01*
X161437139Y-67573001D01*
X161423974Y-67567543D01*
X161410169Y-67563215D01*
X161400610Y-67560956D01*
X161390767Y-67559200D01*
X161380639Y-67557945D01*
X161370227Y-67557193D01*
X161359531Y-67556942D01*
X161349478Y-67557172D01*
X161334824Y-67558379D01*
X161320681Y-67560620D01*
X161307049Y-67563897D01*
X161293928Y-67568208D01*
X161281318Y-67573554D01*
X161269219Y-67579935D01*
X161257630Y-67587350D01*
X161246553Y-67595800D01*
X161235986Y-67605285D01*
X161225930Y-67615804D01*
X161222775Y-67619430D01*
X161213909Y-67630764D01*
X161205945Y-67642785D01*
X161198882Y-67655494D01*
X161194675Y-67664347D01*
X161190868Y-67673506D01*
X161187462Y-67682971D01*
X161184457Y-67692741D01*
X161181852Y-67702816D01*
X161179648Y-67713196D01*
X161177845Y-67723882D01*
X161176443Y-67734872D01*
X161175441Y-67746169D01*
X161174840Y-67757770D01*
X161174639Y-67769677D01*
X161027117Y-67769677D01*
X161027117Y-67436774D01*
X161180746Y-67436774D01*
X161180746Y-67512245D01*
X161191260Y-67500858D01*
X161202105Y-67490206D01*
X161213280Y-67480288D01*
X161224786Y-67471105D01*
X161236621Y-67462657D01*
X161248786Y-67454943D01*
X161261282Y-67447964D01*
X161274107Y-67441720D01*
X161287263Y-67436210D01*
X161300749Y-67431435D01*
X161314565Y-67427395D01*
X161328711Y-67424089D01*
X161343187Y-67421518D01*
X161357993Y-67419681D01*
X161373130Y-67418579D01*
X161388596Y-67418212D01*
X161406238Y-67418632D01*
G37*
G36*
X159765602Y-67193752D02*
G01*
X159894807Y-67272154D01*
X159901646Y-67260726D01*
X159908425Y-67250070D01*
X159915144Y-67240186D01*
X159921803Y-67231076D01*
X159928402Y-67222738D01*
X159934941Y-67215173D01*
X159943566Y-67206289D01*
X159952084Y-67198779D01*
X159960495Y-67192642D01*
X159964660Y-67190089D01*
X159973652Y-67184937D01*
X159983284Y-67180472D01*
X159993557Y-67176694D01*
X160004472Y-67173602D01*
X160016028Y-67171198D01*
X160028225Y-67169481D01*
X160041063Y-67168450D01*
X160051112Y-67168128D01*
X160054542Y-67168107D01*
X160066934Y-67168442D01*
X160078922Y-67169446D01*
X160090507Y-67171121D01*
X160101688Y-67173465D01*
X160112466Y-67176479D01*
X160122840Y-67180163D01*
X160132811Y-67184516D01*
X160142378Y-67189539D01*
X160151541Y-67195232D01*
X160160301Y-67201595D01*
X160165917Y-67206209D01*
X160173861Y-67213342D01*
X160181023Y-67220818D01*
X160187405Y-67228637D01*
X160193005Y-67236800D01*
X160197823Y-67245307D01*
X160203032Y-67257183D01*
X160206028Y-67266491D01*
X160208242Y-67276142D01*
X160209674Y-67286137D01*
X160210325Y-67296476D01*
X160210369Y-67299998D01*
X160209358Y-67314382D01*
X160206324Y-67328225D01*
X160201269Y-67341527D01*
X160194191Y-67354289D01*
X160188350Y-67362496D01*
X160181609Y-67370462D01*
X160173970Y-67378188D01*
X160165432Y-67385674D01*
X160155995Y-67392919D01*
X160145660Y-67399924D01*
X160134425Y-67406688D01*
X160122292Y-67413212D01*
X160109261Y-67419496D01*
X160095330Y-67425539D01*
X159989573Y-67469014D01*
X159973754Y-67475668D01*
X159958474Y-67482501D01*
X159943735Y-67489513D01*
X159929535Y-67496705D01*
X159915876Y-67504076D01*
X159902756Y-67511627D01*
X159890177Y-67519357D01*
X159878137Y-67527266D01*
X159866638Y-67535355D01*
X159855678Y-67543623D01*
X159845259Y-67552070D01*
X159835380Y-67560697D01*
X159826040Y-67569503D01*
X159817241Y-67578488D01*
X159808981Y-67587653D01*
X159801262Y-67596997D01*
X159794016Y-67606565D01*
X159787237Y-67616399D01*
X159780926Y-67626501D01*
X159775082Y-67636870D01*
X159769706Y-67647506D01*
X159764797Y-67658409D01*
X159760356Y-67669580D01*
X159756382Y-67681017D01*
X159752876Y-67692722D01*
X159749837Y-67704693D01*
X159747266Y-67716932D01*
X159745162Y-67729438D01*
X159743526Y-67742211D01*
X159742357Y-67755252D01*
X159741656Y-67768559D01*
X159741422Y-67782133D01*
X159741799Y-67800312D01*
X159742930Y-67818091D01*
X159744814Y-67835468D01*
X159747452Y-67852445D01*
X159750844Y-67869021D01*
X159754989Y-67885196D01*
X159759889Y-67900971D01*
X159765541Y-67916345D01*
X159771948Y-67931318D01*
X159779108Y-67945891D01*
X159787022Y-67960062D01*
X159795690Y-67973834D01*
X159805112Y-67987204D01*
X159815287Y-68000174D01*
X159826216Y-68012743D01*
X159837898Y-68024911D01*
X159850262Y-68036623D01*
X159862991Y-68047580D01*
X159876083Y-68057781D01*
X159889540Y-68067226D01*
X159903362Y-68075916D01*
X159917548Y-68083850D01*
X159932099Y-68091028D01*
X159947014Y-68097451D01*
X159962293Y-68103118D01*
X159977937Y-68108030D01*
X159993946Y-68112186D01*
X160010319Y-68115586D01*
X160027056Y-68118231D01*
X160044158Y-68120120D01*
X160061624Y-68121253D01*
X160079455Y-68121631D01*
X160096336Y-68121305D01*
X160112847Y-68120326D01*
X160128988Y-68118694D01*
X160144759Y-68116410D01*
X160160160Y-68113474D01*
X160175190Y-68109884D01*
X160189850Y-68105643D01*
X160204141Y-68100748D01*
X160218060Y-68095201D01*
X160231610Y-68089002D01*
X160244790Y-68082150D01*
X160257599Y-68074645D01*
X160270038Y-68066487D01*
X160282107Y-68057678D01*
X160293806Y-68048215D01*
X160305135Y-68038100D01*
X160315839Y-68027424D01*
X160326029Y-68016217D01*
X160335706Y-68004480D01*
X160344870Y-67992213D01*
X160353521Y-67979415D01*
X160361658Y-67966087D01*
X160369282Y-67952228D01*
X160376393Y-67937838D01*
X160382990Y-67922918D01*
X160389074Y-67907468D01*
X160394645Y-67891487D01*
X160399703Y-67874976D01*
X160404247Y-67857935D01*
X160408278Y-67840363D01*
X160411796Y-67822260D01*
X160414800Y-67803627D01*
X160256775Y-67767967D01*
X160255335Y-67779404D01*
X160253764Y-67790388D01*
X160252061Y-67800920D01*
X160250226Y-67811000D01*
X160248260Y-67820627D01*
X160245063Y-67834221D01*
X160241571Y-67846797D01*
X160237782Y-67858355D01*
X160233697Y-67868896D01*
X160229315Y-67878419D01*
X160223013Y-67889534D01*
X160217940Y-67896683D01*
X160211594Y-67904994D01*
X160204889Y-67912769D01*
X160197825Y-67920008D01*
X160190402Y-67926710D01*
X160182620Y-67932876D01*
X160174480Y-67938506D01*
X160165981Y-67943600D01*
X160157124Y-67948158D01*
X160147907Y-67952179D01*
X160138332Y-67955664D01*
X160128399Y-67958613D01*
X160118106Y-67961026D01*
X160107455Y-67962903D01*
X160096445Y-67964243D01*
X160085076Y-67965048D01*
X160073348Y-67965316D01*
X160059469Y-67964873D01*
X160046040Y-67963547D01*
X160033062Y-67961336D01*
X160020535Y-67958240D01*
X160008458Y-67954260D01*
X159996833Y-67949396D01*
X159985658Y-67943647D01*
X159974934Y-67937014D01*
X159964661Y-67929496D01*
X159954838Y-67921094D01*
X159948540Y-67915002D01*
X159939636Y-67905332D01*
X159931607Y-67895189D01*
X159924455Y-67884575D01*
X159918178Y-67873488D01*
X159912777Y-67861929D01*
X159908252Y-67849898D01*
X159904602Y-67837394D01*
X159901829Y-67824418D01*
X159899931Y-67810970D01*
X159898909Y-67797049D01*
X159898715Y-67787507D01*
X159899015Y-67776055D01*
X159899917Y-67764964D01*
X159901420Y-67754234D01*
X159903523Y-67743864D01*
X159906228Y-67733854D01*
X159907263Y-67730598D01*
X159910804Y-67721036D01*
X159915014Y-67711765D01*
X159919894Y-67702786D01*
X159925444Y-67694099D01*
X159931664Y-67685704D01*
X159933886Y-67682971D01*
X159941041Y-67674922D01*
X159948953Y-67667080D01*
X159957619Y-67659443D01*
X159965419Y-67653237D01*
X159973743Y-67647174D01*
X159980780Y-67642427D01*
X159989979Y-67636521D01*
X159999714Y-67630711D01*
X160009986Y-67624996D01*
X160020794Y-67619376D01*
X160029827Y-67614949D01*
X160039204Y-67610583D01*
X160048924Y-67606279D01*
X160150773Y-67563536D01*
X160164117Y-67557682D01*
X160177037Y-67551662D01*
X160189534Y-67545474D01*
X160201607Y-67539119D01*
X160213256Y-67532598D01*
X160224481Y-67525909D01*
X160235283Y-67519054D01*
X160245662Y-67512031D01*
X160255617Y-67504842D01*
X160265148Y-67497486D01*
X160274255Y-67489962D01*
X160282939Y-67482272D01*
X160291200Y-67474415D01*
X160299037Y-67466390D01*
X160306450Y-67458199D01*
X160313439Y-67449841D01*
X160320005Y-67441316D01*
X160326147Y-67432624D01*
X160331866Y-67423765D01*
X160337161Y-67414739D01*
X160342033Y-67405546D01*
X160346481Y-67396186D01*
X160350505Y-67386659D01*
X160354106Y-67376965D01*
X160357283Y-67367104D01*
X160360036Y-67357077D01*
X160362366Y-67346882D01*
X160364272Y-67336520D01*
X160365755Y-67325991D01*
X160366814Y-67315296D01*
X160367449Y-67304433D01*
X160367661Y-67293404D01*
X160367305Y-67278596D01*
X160366238Y-67264094D01*
X160364458Y-67249898D01*
X160361967Y-67236006D01*
X160358764Y-67222420D01*
X160354850Y-67209140D01*
X160350224Y-67196164D01*
X160344885Y-67183494D01*
X160338836Y-67171129D01*
X160332074Y-67159070D01*
X160324601Y-67147316D01*
X160316416Y-67135867D01*
X160307519Y-67124723D01*
X160297911Y-67113885D01*
X160287590Y-67103352D01*
X160276559Y-67093124D01*
X160265029Y-67083276D01*
X160253153Y-67074062D01*
X160240932Y-67065484D01*
X160228366Y-67057541D01*
X160215455Y-67050234D01*
X160202198Y-67043562D01*
X160188596Y-67037526D01*
X160174648Y-67032125D01*
X160160355Y-67027359D01*
X160145717Y-67023229D01*
X160130733Y-67019734D01*
X160115404Y-67016875D01*
X160099730Y-67014651D01*
X160083710Y-67013062D01*
X160067344Y-67012109D01*
X160050634Y-67011792D01*
X160039309Y-67011969D01*
X160028140Y-67012502D01*
X160017127Y-67013391D01*
X160006269Y-67014635D01*
X159995568Y-67016234D01*
X159985023Y-67018189D01*
X159974634Y-67020499D01*
X159964401Y-67023164D01*
X159954324Y-67026185D01*
X159944403Y-67029561D01*
X159934637Y-67033293D01*
X159925028Y-67037380D01*
X159915575Y-67041822D01*
X159906278Y-67046620D01*
X159897137Y-67051773D01*
X159888151Y-67057282D01*
X159879322Y-67063146D01*
X159870649Y-67069365D01*
X159862132Y-67075940D01*
X159853770Y-67082870D01*
X159845565Y-67090156D01*
X159837516Y-67097797D01*
X159829623Y-67105793D01*
X159821885Y-67114145D01*
X159814304Y-67122852D01*
X159806879Y-67131914D01*
X159799609Y-67141332D01*
X159792496Y-67151105D01*
X159785539Y-67161234D01*
X159778737Y-67171718D01*
X159772092Y-67182558D01*
X159765602Y-67193752D01*
G37*
G36*
X159401436Y-67574527D02*
G01*
X159401436Y-68106000D01*
X159558729Y-68106000D01*
X159558729Y-67574527D01*
X159621255Y-67574527D01*
X159621255Y-67435797D01*
X159558729Y-67435797D01*
X159558729Y-67183739D01*
X159401436Y-67183739D01*
X159401436Y-67435797D01*
X159277361Y-67435797D01*
X159277361Y-67574527D01*
X159401436Y-67574527D01*
G37*
G36*
X159019441Y-67433843D02*
G01*
X159019441Y-67817304D01*
X159019319Y-67827493D01*
X159018956Y-67837357D01*
X159017502Y-67856116D01*
X159015079Y-67873581D01*
X159011686Y-67889753D01*
X159007324Y-67904631D01*
X159001992Y-67918215D01*
X158995692Y-67930505D01*
X158988422Y-67941502D01*
X158980182Y-67951205D01*
X158970974Y-67959614D01*
X158960796Y-67966730D01*
X158949648Y-67972551D01*
X158937531Y-67977079D01*
X158924445Y-67980314D01*
X158910390Y-67982254D01*
X158895365Y-67982901D01*
X158880340Y-67982254D01*
X158866285Y-67980314D01*
X158853199Y-67977079D01*
X158841082Y-67972551D01*
X158829935Y-67966730D01*
X158819757Y-67959614D01*
X158810548Y-67951205D01*
X158802309Y-67941502D01*
X158795039Y-67930505D01*
X158788738Y-67918215D01*
X158783407Y-67904631D01*
X158779045Y-67889753D01*
X158775652Y-67873581D01*
X158773229Y-67856116D01*
X158771775Y-67837357D01*
X158771411Y-67827493D01*
X158771290Y-67817304D01*
X158771290Y-67433843D01*
X158613997Y-67433843D01*
X158613997Y-67820968D01*
X158614074Y-67830927D01*
X158614303Y-67840714D01*
X158614932Y-67855072D01*
X158615906Y-67869044D01*
X158617222Y-67882629D01*
X158618882Y-67895829D01*
X158620886Y-67908641D01*
X158623233Y-67921068D01*
X158625923Y-67933108D01*
X158628957Y-67944761D01*
X158632335Y-67956028D01*
X158633537Y-67959698D01*
X158637310Y-67969362D01*
X158641577Y-67978846D01*
X158646337Y-67988150D01*
X158651592Y-67997273D01*
X158657340Y-68006216D01*
X158663582Y-68014979D01*
X158670317Y-68023561D01*
X158677546Y-68031963D01*
X158685269Y-68040185D01*
X158693486Y-68048227D01*
X158699238Y-68053487D01*
X158709048Y-68061739D01*
X158719182Y-68069458D01*
X158729641Y-68076646D01*
X158740424Y-68083300D01*
X158751531Y-68089422D01*
X158762963Y-68095012D01*
X158774719Y-68100070D01*
X158786799Y-68104595D01*
X158799204Y-68108588D01*
X158811933Y-68112048D01*
X158824987Y-68114976D01*
X158838365Y-68117372D01*
X158852067Y-68119235D01*
X158866094Y-68120566D01*
X158880445Y-68121365D01*
X158895121Y-68121631D01*
X158909767Y-68121365D01*
X158924090Y-68120566D01*
X158938092Y-68119235D01*
X158951770Y-68117372D01*
X158965126Y-68114976D01*
X158978160Y-68112048D01*
X158990871Y-68108588D01*
X159003260Y-68104595D01*
X159015326Y-68100070D01*
X159027069Y-68095012D01*
X159038491Y-68089422D01*
X159049589Y-68083300D01*
X159060366Y-68076646D01*
X159070819Y-68069458D01*
X159080951Y-68061739D01*
X159090760Y-68053487D01*
X159099399Y-68045566D01*
X159107549Y-68037465D01*
X159115210Y-68029183D01*
X159122381Y-68020721D01*
X159129063Y-68012078D01*
X159135256Y-68003255D01*
X159140959Y-67994252D01*
X159146172Y-67985069D01*
X159150896Y-67975705D01*
X159155131Y-67966161D01*
X159157682Y-67959698D01*
X159162147Y-67947326D01*
X159165105Y-67937115D01*
X159167728Y-67926105D01*
X159170017Y-67914297D01*
X159171970Y-67901690D01*
X159173589Y-67888285D01*
X159174873Y-67874081D01*
X159175542Y-67864169D01*
X159176063Y-67853901D01*
X159176435Y-67843278D01*
X159176659Y-67832301D01*
X159176733Y-67820968D01*
X159176733Y-67433843D01*
X159019441Y-67433843D01*
G37*
G36*
X157930117Y-67513955D02*
G01*
X157941601Y-67502361D01*
X157953275Y-67491515D01*
X157965140Y-67481417D01*
X157977195Y-67472067D01*
X157989442Y-67463465D01*
X158001879Y-67455611D01*
X158014507Y-67448505D01*
X158027326Y-67442147D01*
X158040336Y-67436537D01*
X158053536Y-67431676D01*
X158066928Y-67427562D01*
X158080510Y-67424196D01*
X158094283Y-67421578D01*
X158108247Y-67419708D01*
X158122401Y-67418586D01*
X158136747Y-67418212D01*
X158153209Y-67418605D01*
X158169315Y-67419784D01*
X158185067Y-67421749D01*
X158200464Y-67424501D01*
X158215506Y-67428039D01*
X158230193Y-67432362D01*
X158244525Y-67437472D01*
X158258502Y-67443369D01*
X158272124Y-67450051D01*
X158285392Y-67457519D01*
X158298304Y-67465774D01*
X158310862Y-67474815D01*
X158323064Y-67484642D01*
X158334912Y-67495255D01*
X158346405Y-67506654D01*
X158357542Y-67518840D01*
X158368249Y-67531518D01*
X158378265Y-67544581D01*
X158387590Y-67558026D01*
X158396224Y-67571856D01*
X158404168Y-67586068D01*
X158411421Y-67600665D01*
X158417983Y-67615645D01*
X158423854Y-67631008D01*
X158429035Y-67646755D01*
X158433525Y-67662886D01*
X158437324Y-67679400D01*
X158440432Y-67696297D01*
X158442850Y-67713579D01*
X158444577Y-67731243D01*
X158445613Y-67749291D01*
X158445958Y-67767723D01*
X158445613Y-67786547D01*
X158444577Y-67804978D01*
X158442850Y-67823016D01*
X158440432Y-67840660D01*
X158437324Y-67857912D01*
X158433525Y-67874770D01*
X158429035Y-67891236D01*
X158423854Y-67907308D01*
X158417983Y-67922987D01*
X158411421Y-67938273D01*
X158404168Y-67953166D01*
X158396224Y-67967666D01*
X158387590Y-67981773D01*
X158378265Y-67995487D01*
X158368249Y-68008808D01*
X158357542Y-68021736D01*
X158346220Y-68033832D01*
X158334538Y-68045149D01*
X158322497Y-68055685D01*
X158310098Y-68065440D01*
X158297340Y-68074415D01*
X158284224Y-68082609D01*
X158270748Y-68090024D01*
X158256914Y-68096657D01*
X158242722Y-68102510D01*
X158228170Y-68107583D01*
X158213260Y-68111876D01*
X158197991Y-68115388D01*
X158182363Y-68118119D01*
X158166377Y-68120070D01*
X158150031Y-68121241D01*
X158133328Y-68121631D01*
X158119224Y-68121287D01*
X158105308Y-68120253D01*
X158091579Y-68118531D01*
X158078037Y-68116120D01*
X158064682Y-68113021D01*
X158051514Y-68109232D01*
X158038533Y-68104754D01*
X158025739Y-68099588D01*
X158013131Y-68093733D01*
X158000711Y-68087189D01*
X157988478Y-68079956D01*
X157976432Y-68072034D01*
X157964573Y-68063424D01*
X157952901Y-68054125D01*
X157941416Y-68044136D01*
X157930117Y-68033459D01*
X157930117Y-68106000D01*
X157772825Y-68106000D01*
X157772825Y-67770410D01*
X157920592Y-67770410D01*
X157920793Y-67781945D01*
X157921397Y-67793224D01*
X157922404Y-67804247D01*
X157923813Y-67815015D01*
X157925625Y-67825527D01*
X157927839Y-67835783D01*
X157930456Y-67845784D01*
X157933476Y-67855528D01*
X157936898Y-67865018D01*
X157940723Y-67874251D01*
X157944950Y-67883229D01*
X157949581Y-67891951D01*
X157954613Y-67900418D01*
X157960049Y-67908628D01*
X157965887Y-67916583D01*
X157972127Y-67924283D01*
X157978726Y-67931381D01*
X157989095Y-67941170D01*
X158000032Y-67949928D01*
X158011535Y-67957656D01*
X158023605Y-67964354D01*
X158036242Y-67970021D01*
X158049445Y-67974658D01*
X158063216Y-67978264D01*
X158077552Y-67980840D01*
X158087425Y-67981985D01*
X158097550Y-67982672D01*
X158107926Y-67982901D01*
X158122436Y-67982369D01*
X158136474Y-67980772D01*
X158150040Y-67978110D01*
X158163133Y-67974383D01*
X158175754Y-67969592D01*
X158187902Y-67963736D01*
X158199579Y-67956815D01*
X158210783Y-67948829D01*
X158221515Y-67939779D01*
X158231775Y-67929664D01*
X158238352Y-67922329D01*
X158247344Y-67910796D01*
X158255451Y-67898635D01*
X158260364Y-67890180D01*
X158264885Y-67881447D01*
X158269012Y-67872435D01*
X158272746Y-67863144D01*
X158276087Y-67853575D01*
X158279036Y-67843727D01*
X158281591Y-67833600D01*
X158283753Y-67823195D01*
X158285521Y-67812511D01*
X158286897Y-67801549D01*
X158287880Y-67790308D01*
X158288469Y-67778789D01*
X158288666Y-67766990D01*
X158288615Y-67761432D01*
X158288211Y-67750483D01*
X158287402Y-67739759D01*
X158286188Y-67729260D01*
X158284570Y-67718987D01*
X158282548Y-67708938D01*
X158280120Y-67699115D01*
X158277289Y-67689517D01*
X158274052Y-67680144D01*
X158270412Y-67670997D01*
X158266366Y-67662074D01*
X158259540Y-67649113D01*
X158254483Y-67640753D01*
X158249022Y-67632619D01*
X158243157Y-67624709D01*
X158236887Y-67617025D01*
X158230252Y-67609750D01*
X158219921Y-67599716D01*
X158209134Y-67590739D01*
X158197893Y-67582817D01*
X158186197Y-67575952D01*
X158174045Y-67570144D01*
X158161438Y-67565391D01*
X158148377Y-67561694D01*
X158134860Y-67559054D01*
X158120888Y-67557470D01*
X158106461Y-67556942D01*
X158101331Y-67557000D01*
X158091252Y-67557463D01*
X158081414Y-67558391D01*
X158067107Y-67560651D01*
X158053341Y-67563955D01*
X158040116Y-67568302D01*
X158027433Y-67573692D01*
X158015290Y-67580126D01*
X158003688Y-67587602D01*
X157992626Y-67596123D01*
X157982106Y-67605686D01*
X157972127Y-67616293D01*
X157965887Y-67623993D01*
X157960049Y-67631951D01*
X157954613Y-67640166D01*
X157949581Y-67648640D01*
X157944950Y-67657370D01*
X157940723Y-67666359D01*
X157936898Y-67675604D01*
X157933476Y-67685108D01*
X157930456Y-67694869D01*
X157927839Y-67704888D01*
X157925625Y-67715164D01*
X157923813Y-67725698D01*
X157922404Y-67736490D01*
X157921397Y-67747539D01*
X157920793Y-67758846D01*
X157920592Y-67770410D01*
X157772825Y-67770410D01*
X157772825Y-66949265D01*
X157930117Y-66949265D01*
X157930117Y-67513955D01*
G37*
G36*
X157418184Y-67433843D02*
G01*
X157418184Y-68106000D01*
X157575477Y-68106000D01*
X157575477Y-67433843D01*
X157418184Y-67433843D01*
G37*
G36*
X157591108Y-67159314D02*
G01*
X157590643Y-67149232D01*
X157589246Y-67139500D01*
X157586191Y-67127829D01*
X157581680Y-67116707D01*
X157575715Y-67106134D01*
X157569895Y-67098070D01*
X157563144Y-67090357D01*
X157561311Y-67088484D01*
X157553621Y-67081500D01*
X157545572Y-67075447D01*
X157537165Y-67070326D01*
X157526152Y-67065234D01*
X157514577Y-67061596D01*
X157504915Y-67059734D01*
X157494893Y-67058803D01*
X157489748Y-67058686D01*
X157479379Y-67059152D01*
X157469399Y-67060549D01*
X157459809Y-67062876D01*
X157448368Y-67067096D01*
X157439654Y-67071519D01*
X157431329Y-67076873D01*
X157423393Y-67083159D01*
X157417696Y-67088484D01*
X157410712Y-67095960D01*
X157404660Y-67103856D01*
X157398403Y-67114316D01*
X157393602Y-67125432D01*
X157390808Y-67134797D01*
X157388946Y-67144582D01*
X157388015Y-67154787D01*
X157387898Y-67160047D01*
X157388364Y-67170469D01*
X157389761Y-67180487D01*
X157392089Y-67190100D01*
X157396308Y-67201548D01*
X157401982Y-67212364D01*
X157407569Y-67220561D01*
X157414088Y-67228354D01*
X157417696Y-67232099D01*
X157425168Y-67239082D01*
X157433053Y-67245135D01*
X157443488Y-67251391D01*
X157454567Y-67256193D01*
X157466290Y-67259539D01*
X157476133Y-67261169D01*
X157486387Y-67261867D01*
X157489015Y-67261896D01*
X157499388Y-67261434D01*
X157509379Y-67260049D01*
X157518988Y-67257740D01*
X157528216Y-67254508D01*
X157537062Y-67250352D01*
X157545527Y-67245272D01*
X157553610Y-67239269D01*
X157561311Y-67232343D01*
X157568295Y-67224684D01*
X157574347Y-67216604D01*
X157579469Y-67208106D01*
X157583659Y-67199187D01*
X157586918Y-67189848D01*
X157589246Y-67180090D01*
X157590643Y-67169912D01*
X157591108Y-67159314D01*
G37*
G36*
X156925433Y-67418608D02*
G01*
X156943289Y-67419795D01*
X156960795Y-67421775D01*
X156977952Y-67424547D01*
X156994760Y-67428110D01*
X157011219Y-67432466D01*
X157027328Y-67437613D01*
X157043089Y-67443552D01*
X157058500Y-67450283D01*
X157073562Y-67457806D01*
X157088274Y-67466120D01*
X157102638Y-67475227D01*
X157116652Y-67485126D01*
X157130318Y-67495816D01*
X157143634Y-67507298D01*
X157156600Y-67519572D01*
X157168993Y-67532380D01*
X157180586Y-67545523D01*
X157191379Y-67559002D01*
X157201373Y-67572817D01*
X157210568Y-67586968D01*
X157218962Y-67601455D01*
X157226558Y-67616277D01*
X157233354Y-67631436D01*
X157239350Y-67646930D01*
X157244547Y-67662760D01*
X157248944Y-67678926D01*
X157252542Y-67695427D01*
X157255340Y-67712265D01*
X157257339Y-67729438D01*
X157258538Y-67746947D01*
X157258938Y-67764792D01*
X157258546Y-67783732D01*
X157257370Y-67802264D01*
X157255409Y-67820391D01*
X157252664Y-67838111D01*
X157249135Y-67855424D01*
X157244822Y-67872332D01*
X157239724Y-67888832D01*
X157233842Y-67904927D01*
X157227176Y-67920614D01*
X157219726Y-67935896D01*
X157211491Y-67950771D01*
X157202472Y-67965239D01*
X157192669Y-67979301D01*
X157182082Y-67992957D01*
X157170710Y-68006206D01*
X157158554Y-68019049D01*
X157145848Y-68031471D01*
X157132764Y-68043092D01*
X157119302Y-68053911D01*
X157105462Y-68063929D01*
X157091244Y-68073145D01*
X157076649Y-68081560D01*
X157061676Y-68089173D01*
X157046325Y-68095986D01*
X157030596Y-68101996D01*
X157014489Y-68107205D01*
X156998005Y-68111613D01*
X156981142Y-68115220D01*
X156963902Y-68118025D01*
X156946284Y-68120028D01*
X156928289Y-68121230D01*
X156909915Y-68121631D01*
X156891354Y-68121238D01*
X156873160Y-68120059D01*
X156855335Y-68118093D01*
X156837879Y-68115342D01*
X156820790Y-68111804D01*
X156804070Y-68107480D01*
X156787718Y-68102370D01*
X156771735Y-68096474D01*
X156756119Y-68089792D01*
X156740872Y-68082323D01*
X156725994Y-68074069D01*
X156711483Y-68065028D01*
X156697341Y-68055201D01*
X156683567Y-68044588D01*
X156670161Y-68033188D01*
X156657124Y-68021003D01*
X156644702Y-68008175D01*
X156633081Y-67994968D01*
X156622262Y-67981384D01*
X156612244Y-67967422D01*
X156603028Y-67953082D01*
X156594613Y-67938365D01*
X156586999Y-67923270D01*
X156580187Y-67907796D01*
X156574177Y-67891945D01*
X156568967Y-67875717D01*
X156564560Y-67859110D01*
X156560953Y-67842126D01*
X156558148Y-67824763D01*
X156556145Y-67807023D01*
X156554942Y-67788905D01*
X156554542Y-67770410D01*
X156711834Y-67770410D01*
X156711886Y-67776417D01*
X156712302Y-67788204D01*
X156713134Y-67799687D01*
X156714382Y-67810867D01*
X156716046Y-67821743D01*
X156718126Y-67832316D01*
X156720622Y-67842586D01*
X156723534Y-67852552D01*
X156726861Y-67862215D01*
X156730605Y-67871574D01*
X156734765Y-67880630D01*
X156739341Y-67889383D01*
X156744332Y-67897832D01*
X156752600Y-67909937D01*
X156758631Y-67917628D01*
X156765079Y-67925016D01*
X156771844Y-67932025D01*
X156782518Y-67941692D01*
X156793823Y-67950340D01*
X156805760Y-67957972D01*
X156818327Y-67964586D01*
X156831525Y-67970182D01*
X156845355Y-67974761D01*
X156854925Y-67977248D01*
X156864776Y-67979283D01*
X156874907Y-67980866D01*
X156885319Y-67981997D01*
X156896011Y-67982675D01*
X156906984Y-67982901D01*
X156917871Y-67982672D01*
X156928489Y-67981985D01*
X156938838Y-67980840D01*
X156948918Y-67979237D01*
X156958728Y-67977177D01*
X156968270Y-67974658D01*
X156982078Y-67970021D01*
X156995281Y-67964354D01*
X157007878Y-67957656D01*
X157019870Y-67949928D01*
X157031257Y-67941170D01*
X157042038Y-67931381D01*
X157048889Y-67924283D01*
X157052135Y-67920624D01*
X157061254Y-67909163D01*
X157066818Y-67901116D01*
X157071970Y-67892745D01*
X157076710Y-67884050D01*
X157081038Y-67875030D01*
X157084953Y-67865686D01*
X157088457Y-67856017D01*
X157091548Y-67846024D01*
X157094227Y-67835707D01*
X157096494Y-67825065D01*
X157098348Y-67814099D01*
X157099791Y-67802808D01*
X157100821Y-67791193D01*
X157101440Y-67779254D01*
X157101646Y-67766990D01*
X157101436Y-67755522D01*
X157100806Y-67744322D01*
X157099757Y-67733388D01*
X157098287Y-67722721D01*
X157096398Y-67712322D01*
X157094089Y-67702190D01*
X157091361Y-67692325D01*
X157088212Y-67682727D01*
X157084644Y-67673396D01*
X157080656Y-67664332D01*
X157076248Y-67655536D01*
X157071421Y-67647006D01*
X157066173Y-67638744D01*
X157060506Y-67630749D01*
X157054419Y-67623021D01*
X157047912Y-67615560D01*
X157041036Y-67608462D01*
X157030239Y-67598673D01*
X157018863Y-67589914D01*
X157006906Y-67582186D01*
X156994371Y-67575489D01*
X156981255Y-67569822D01*
X156967560Y-67565185D01*
X156958108Y-67562666D01*
X156948399Y-67560605D01*
X156938431Y-67559002D01*
X156928207Y-67557857D01*
X156917724Y-67557171D01*
X156906984Y-67556942D01*
X156896097Y-67557171D01*
X156885479Y-67557857D01*
X156875131Y-67559002D01*
X156865051Y-67560605D01*
X156855240Y-67562666D01*
X156845698Y-67565185D01*
X156831890Y-67569822D01*
X156818688Y-67575489D01*
X156806090Y-67582186D01*
X156794098Y-67589914D01*
X156782712Y-67598673D01*
X156771930Y-67608462D01*
X156765079Y-67615560D01*
X156758631Y-67622948D01*
X156752600Y-67630642D01*
X156746984Y-67638641D01*
X156741784Y-67646945D01*
X156737001Y-67655555D01*
X156732633Y-67664469D01*
X156728681Y-67673690D01*
X156725145Y-67683215D01*
X156722026Y-67693046D01*
X156719322Y-67703182D01*
X156717034Y-67713623D01*
X156715162Y-67724370D01*
X156713706Y-67735422D01*
X156712666Y-67746779D01*
X156712042Y-67758442D01*
X156711834Y-67770410D01*
X156554542Y-67770410D01*
X156554940Y-67752058D01*
X156556133Y-67734067D01*
X156558122Y-67716437D01*
X156560907Y-67699167D01*
X156564488Y-67682258D01*
X156568864Y-67665710D01*
X156574036Y-67649522D01*
X156580004Y-67633695D01*
X156586768Y-67618228D01*
X156594327Y-67603123D01*
X156602681Y-67588377D01*
X156611832Y-67573993D01*
X156621778Y-67559969D01*
X156632520Y-67546306D01*
X156644058Y-67533003D01*
X156656391Y-67520061D01*
X156669449Y-67507728D01*
X156682857Y-67496190D01*
X156696614Y-67485448D01*
X156710720Y-67475502D01*
X156725175Y-67466351D01*
X156739979Y-67457997D01*
X156755133Y-67450437D01*
X156770636Y-67443674D01*
X156786488Y-67437706D01*
X156802689Y-67432534D01*
X156819239Y-67428158D01*
X156836139Y-67424577D01*
X156853387Y-67421792D01*
X156870985Y-67419803D01*
X156888932Y-67418609D01*
X156907228Y-67418212D01*
X156925433Y-67418608D01*
G37*
G36*
X155991074Y-67550347D02*
G01*
X156118324Y-67618247D01*
X156124175Y-67607291D01*
X156130280Y-67597412D01*
X156136637Y-67588612D01*
X156143248Y-67580889D01*
X156152457Y-67572268D01*
X156162116Y-67565563D01*
X156172225Y-67560773D01*
X156182785Y-67557899D01*
X156193795Y-67556942D01*
X156204160Y-67557812D01*
X156213762Y-67560422D01*
X156222600Y-67564773D01*
X156230676Y-67570863D01*
X156237301Y-67578328D01*
X156242491Y-67587930D01*
X156245094Y-67597536D01*
X156245819Y-67606767D01*
X156243636Y-67618662D01*
X156238748Y-67628161D01*
X156231066Y-67637644D01*
X156223471Y-67644747D01*
X156214304Y-67651841D01*
X156203567Y-67658926D01*
X156191258Y-67666003D01*
X156182179Y-67670716D01*
X156172401Y-67675426D01*
X156161926Y-67680131D01*
X156156426Y-67682482D01*
X156141324Y-67689044D01*
X156126853Y-67695538D01*
X156113015Y-67701966D01*
X156099807Y-67708326D01*
X156087232Y-67714620D01*
X156075288Y-67720848D01*
X156063975Y-67727008D01*
X156053294Y-67733102D01*
X156043245Y-67739129D01*
X156033827Y-67745089D01*
X156025041Y-67750982D01*
X156016887Y-67756809D01*
X156005839Y-67765423D01*
X155996213Y-67773887D01*
X155990585Y-67779447D01*
X155982946Y-67788011D01*
X155976059Y-67797124D01*
X155969923Y-67806787D01*
X155964539Y-67816999D01*
X155959906Y-67827761D01*
X155956024Y-67839073D01*
X155952893Y-67850934D01*
X155950514Y-67863344D01*
X155948886Y-67876304D01*
X155948010Y-67889814D01*
X155947843Y-67899126D01*
X155948119Y-67911004D01*
X155948949Y-67922642D01*
X155950333Y-67934039D01*
X155952269Y-67945196D01*
X155954760Y-67956113D01*
X155957803Y-67966789D01*
X155961400Y-67977224D01*
X155965550Y-67987420D01*
X155970254Y-67997374D01*
X155975511Y-68007089D01*
X155981321Y-68016563D01*
X155987685Y-68025796D01*
X155994602Y-68034789D01*
X156002072Y-68043542D01*
X156010096Y-68052054D01*
X156018673Y-68060326D01*
X156027393Y-68067750D01*
X156036335Y-68074694D01*
X156045498Y-68081160D01*
X156054882Y-68087147D01*
X156064488Y-68092655D01*
X156074315Y-68097684D01*
X156084363Y-68102234D01*
X156094633Y-68106305D01*
X156105123Y-68109897D01*
X156115836Y-68113010D01*
X156126770Y-68115644D01*
X156137925Y-68117799D01*
X156149301Y-68119476D01*
X156160899Y-68120673D01*
X156172718Y-68121392D01*
X156184758Y-68121631D01*
X156195104Y-68121470D01*
X156205259Y-68120988D01*
X156215224Y-68120184D01*
X156224997Y-68119059D01*
X156243972Y-68115844D01*
X156262183Y-68111342D01*
X156279631Y-68105555D01*
X156296316Y-68098481D01*
X156312238Y-68090122D01*
X156327396Y-68080476D01*
X156341791Y-68069544D01*
X156355423Y-68057326D01*
X156368291Y-68043823D01*
X156380397Y-68029032D01*
X156391739Y-68012956D01*
X156397123Y-68004436D01*
X156402317Y-67995594D01*
X156407321Y-67986431D01*
X156412133Y-67976946D01*
X156416754Y-67967139D01*
X156421185Y-67957011D01*
X156292469Y-67896439D01*
X156287452Y-67905064D01*
X156281109Y-67915616D01*
X156275163Y-67925085D01*
X156269614Y-67933469D01*
X156263236Y-67942425D01*
X156256401Y-67950938D01*
X156250459Y-67957011D01*
X156241414Y-67964470D01*
X156231831Y-67970664D01*
X156221712Y-67975594D01*
X156211056Y-67979260D01*
X156199864Y-67981662D01*
X156188135Y-67982800D01*
X156183293Y-67982901D01*
X156169325Y-67982279D01*
X156156731Y-67980411D01*
X156145511Y-67977298D01*
X156135665Y-67972941D01*
X156127193Y-67967338D01*
X156120095Y-67960490D01*
X156114370Y-67952397D01*
X156110020Y-67943059D01*
X156107043Y-67932476D01*
X156105440Y-67920648D01*
X156105135Y-67912071D01*
X156106070Y-67901900D01*
X156108875Y-67891905D01*
X156113550Y-67882086D01*
X156120095Y-67872442D01*
X156128510Y-67862974D01*
X156136048Y-67855988D01*
X156144638Y-67849101D01*
X156154280Y-67842312D01*
X156164974Y-67835623D01*
X156175031Y-67830624D01*
X156185110Y-67825672D01*
X156195213Y-67820766D01*
X156205339Y-67815908D01*
X156211136Y-67813152D01*
X156221311Y-67808320D01*
X156231533Y-67803442D01*
X156241801Y-67798516D01*
X156250639Y-67794257D01*
X156258031Y-67790682D01*
X156270185Y-67784545D01*
X156281644Y-67778409D01*
X156292408Y-67772272D01*
X156302476Y-67766136D01*
X156311848Y-67759999D01*
X156320525Y-67753862D01*
X156328506Y-67747726D01*
X156338066Y-67739544D01*
X156346389Y-67731362D01*
X156351820Y-67725225D01*
X156358018Y-67717229D01*
X156363607Y-67708813D01*
X156368586Y-67699976D01*
X156372955Y-67690718D01*
X156376714Y-67681039D01*
X156379864Y-67670940D01*
X156382404Y-67660420D01*
X156384335Y-67649479D01*
X156385656Y-67638118D01*
X156386367Y-67626335D01*
X156386503Y-67618247D01*
X156386272Y-67607526D01*
X156385579Y-67597039D01*
X156384425Y-67586788D01*
X156382809Y-67576771D01*
X156380731Y-67566989D01*
X156378191Y-67557442D01*
X156375189Y-67548129D01*
X156369821Y-67534600D01*
X156363414Y-67521599D01*
X156355968Y-67509126D01*
X156347483Y-67497181D01*
X156341249Y-67489511D01*
X156334553Y-67482076D01*
X156327396Y-67474876D01*
X156319754Y-67468014D01*
X156311909Y-67461595D01*
X156303863Y-67455619D01*
X156295614Y-67450085D01*
X156287163Y-67444994D01*
X156278509Y-67440346D01*
X156269653Y-67436141D01*
X156260596Y-67432378D01*
X156251335Y-67429058D01*
X156241873Y-67426180D01*
X156232208Y-67423745D01*
X156222341Y-67421753D01*
X156212272Y-67420204D01*
X156202000Y-67419097D01*
X156191526Y-67418433D01*
X156180850Y-67418212D01*
X156165168Y-67418728D01*
X156149995Y-67420276D01*
X156135332Y-67422857D01*
X156121179Y-67426470D01*
X156107534Y-67431115D01*
X156094400Y-67436793D01*
X156081774Y-67443503D01*
X156069659Y-67451245D01*
X156058052Y-67460020D01*
X156046956Y-67469827D01*
X156036368Y-67480666D01*
X156026290Y-67492538D01*
X156016722Y-67505442D01*
X156007663Y-67519378D01*
X155999114Y-67534346D01*
X155991074Y-67550347D01*
G37*
D11*
G36*
X170598359Y-63632181D02*
G01*
X170598359Y-63996469D01*
X170614938Y-63982936D01*
X170631553Y-63969832D01*
X170648205Y-63957159D01*
X170664893Y-63944914D01*
X170681618Y-63933100D01*
X170698378Y-63921715D01*
X170715175Y-63910760D01*
X170732008Y-63900234D01*
X170748878Y-63890138D01*
X170765783Y-63880472D01*
X170782725Y-63871235D01*
X170799703Y-63862428D01*
X170816718Y-63854050D01*
X170833768Y-63846102D01*
X170850855Y-63838584D01*
X170885138Y-63824836D01*
X170919565Y-63812807D01*
X170954138Y-63802496D01*
X170988855Y-63793903D01*
X171023718Y-63787029D01*
X171058726Y-63781874D01*
X171093878Y-63778437D01*
X171129176Y-63776718D01*
X171146879Y-63776504D01*
X171166303Y-63776721D01*
X171185534Y-63777372D01*
X171204573Y-63778457D01*
X171223420Y-63779977D01*
X171242075Y-63781931D01*
X171260538Y-63784318D01*
X171296887Y-63790397D01*
X171332467Y-63798211D01*
X171367279Y-63807763D01*
X171401323Y-63819051D01*
X171434597Y-63832075D01*
X171467103Y-63846836D01*
X171498841Y-63863334D01*
X171529810Y-63881568D01*
X171560010Y-63901539D01*
X171589441Y-63923247D01*
X171618105Y-63946691D01*
X171632148Y-63959064D01*
X171645999Y-63971872D01*
X171659658Y-63985113D01*
X171673125Y-63998789D01*
X171686372Y-64012749D01*
X171699199Y-64026899D01*
X171711606Y-64041241D01*
X171723591Y-64055774D01*
X171735157Y-64070499D01*
X171746301Y-64085415D01*
X171767329Y-64115820D01*
X171786675Y-64146990D01*
X171804338Y-64178925D01*
X171820319Y-64211625D01*
X171834618Y-64245090D01*
X171847235Y-64279320D01*
X171858169Y-64314315D01*
X171867422Y-64350075D01*
X171871417Y-64368241D01*
X171874992Y-64386599D01*
X171878146Y-64405149D01*
X171880879Y-64423889D01*
X171883192Y-64442821D01*
X171885085Y-64461944D01*
X171886557Y-64481258D01*
X171887608Y-64500764D01*
X171888239Y-64520461D01*
X171888449Y-64540349D01*
X171888239Y-64560004D01*
X171887608Y-64579468D01*
X171886557Y-64598739D01*
X171885085Y-64617818D01*
X171883192Y-64636705D01*
X171880879Y-64655400D01*
X171878146Y-64673902D01*
X171874992Y-64692213D01*
X171867422Y-64728257D01*
X171858169Y-64763533D01*
X171847235Y-64798041D01*
X171834618Y-64831779D01*
X171820319Y-64864749D01*
X171804338Y-64896951D01*
X171786675Y-64928384D01*
X171767329Y-64959048D01*
X171746301Y-64988944D01*
X171723591Y-65018071D01*
X171711606Y-65032346D01*
X171699199Y-65046429D01*
X171686372Y-65060321D01*
X171673125Y-65074019D01*
X171659572Y-65087381D01*
X171645830Y-65100319D01*
X171631899Y-65112832D01*
X171617778Y-65124921D01*
X171588968Y-65147827D01*
X171559401Y-65169036D01*
X171529075Y-65188548D01*
X171497992Y-65206364D01*
X171466152Y-65222483D01*
X171433553Y-65236905D01*
X171400197Y-65249630D01*
X171366083Y-65260659D01*
X171331211Y-65269991D01*
X171295582Y-65277626D01*
X171259195Y-65283565D01*
X171240717Y-65285898D01*
X171222050Y-65287807D01*
X171203193Y-65289291D01*
X171184147Y-65290352D01*
X171164912Y-65290988D01*
X171145487Y-65291200D01*
X171125545Y-65290995D01*
X171105977Y-65290381D01*
X171086781Y-65289357D01*
X171067960Y-65287923D01*
X171040427Y-65285004D01*
X171013735Y-65281163D01*
X170987883Y-65276400D01*
X170962872Y-65270716D01*
X170938700Y-65264110D01*
X170915369Y-65256582D01*
X170892878Y-65248133D01*
X170871227Y-65238761D01*
X170851524Y-65230198D01*
X170831573Y-65220752D01*
X170811372Y-65210421D01*
X170795032Y-65201521D01*
X170778533Y-65192055D01*
X170761874Y-65182023D01*
X170745055Y-65171426D01*
X170740825Y-65168688D01*
X170723778Y-65157376D01*
X170706514Y-65145485D01*
X170689032Y-65133013D01*
X170671332Y-65119961D01*
X170653415Y-65106330D01*
X170635280Y-65092118D01*
X170616928Y-65077326D01*
X170598359Y-65061954D01*
X170598359Y-65434131D01*
X170614684Y-65443610D01*
X170631060Y-65452788D01*
X170647487Y-65461665D01*
X170663965Y-65470241D01*
X170697073Y-65486490D01*
X170730384Y-65501536D01*
X170763898Y-65515378D01*
X170797615Y-65528016D01*
X170831535Y-65539451D01*
X170865658Y-65549682D01*
X170899984Y-65558710D01*
X170934513Y-65566534D01*
X170969245Y-65573154D01*
X171004180Y-65578570D01*
X171039318Y-65582783D01*
X171074660Y-65585792D01*
X171110204Y-65587598D01*
X171145951Y-65588199D01*
X171172830Y-65587903D01*
X171199461Y-65587012D01*
X171225845Y-65585528D01*
X171251982Y-65583450D01*
X171277871Y-65580779D01*
X171303513Y-65577513D01*
X171328907Y-65573654D01*
X171354054Y-65569202D01*
X171378953Y-65564156D01*
X171403605Y-65558516D01*
X171428009Y-65552282D01*
X171452166Y-65545455D01*
X171476076Y-65538034D01*
X171499738Y-65530020D01*
X171523153Y-65521411D01*
X171546320Y-65512209D01*
X171569240Y-65502414D01*
X171591912Y-65492025D01*
X171614337Y-65481042D01*
X171636515Y-65469465D01*
X171658445Y-65457295D01*
X171680127Y-65444531D01*
X171701563Y-65431173D01*
X171722750Y-65417222D01*
X171743691Y-65402677D01*
X171764384Y-65387538D01*
X171784829Y-65371806D01*
X171805027Y-65355480D01*
X171824978Y-65338560D01*
X171844681Y-65321047D01*
X171864136Y-65302940D01*
X171883345Y-65284239D01*
X171902045Y-65264944D01*
X171920152Y-65245401D01*
X171937666Y-65225611D01*
X171954585Y-65205574D01*
X171970911Y-65185289D01*
X171986644Y-65164756D01*
X172001782Y-65143976D01*
X172016327Y-65122949D01*
X172030279Y-65101674D01*
X172043636Y-65080152D01*
X172056400Y-65058382D01*
X172068570Y-65036365D01*
X172080147Y-65014101D01*
X172091130Y-64991589D01*
X172101519Y-64968829D01*
X172111315Y-64945822D01*
X172120517Y-64922568D01*
X172129125Y-64899066D01*
X172137140Y-64875317D01*
X172144560Y-64851321D01*
X172151388Y-64827077D01*
X172157621Y-64802585D01*
X172163261Y-64777846D01*
X172168307Y-64752860D01*
X172172760Y-64727626D01*
X172176619Y-64702145D01*
X172179884Y-64676416D01*
X172182555Y-64650440D01*
X172184633Y-64624217D01*
X172186118Y-64597746D01*
X172187008Y-64571027D01*
X172187305Y-64544061D01*
X172187057Y-64519868D01*
X172186311Y-64495841D01*
X172185070Y-64471979D01*
X172183331Y-64448283D01*
X172181096Y-64424754D01*
X172178364Y-64401390D01*
X172175136Y-64378191D01*
X172171411Y-64355159D01*
X172167189Y-64332293D01*
X172162470Y-64309592D01*
X172157255Y-64287058D01*
X172151543Y-64264689D01*
X172145334Y-64242486D01*
X172138629Y-64220449D01*
X172131427Y-64198578D01*
X172123728Y-64176873D01*
X172115533Y-64155333D01*
X172106841Y-64133960D01*
X172097652Y-64112752D01*
X172087967Y-64091710D01*
X172077785Y-64070834D01*
X172067106Y-64050124D01*
X172055930Y-64029580D01*
X172044258Y-64009201D01*
X172032089Y-63988989D01*
X172019423Y-63968942D01*
X172006261Y-63949062D01*
X171992602Y-63929347D01*
X171978446Y-63909798D01*
X171963794Y-63890414D01*
X171948645Y-63871197D01*
X171932999Y-63852146D01*
X171913242Y-63829220D01*
X171893126Y-63807021D01*
X171872651Y-63785551D01*
X171851817Y-63764808D01*
X171830625Y-63744793D01*
X171809073Y-63725506D01*
X171787162Y-63706947D01*
X171764893Y-63689115D01*
X171742265Y-63672011D01*
X171719277Y-63655636D01*
X171695931Y-63639988D01*
X171672226Y-63625067D01*
X171648162Y-63610875D01*
X171623739Y-63597410D01*
X171598957Y-63584674D01*
X171573816Y-63572665D01*
X171548316Y-63561384D01*
X171522457Y-63550830D01*
X171496239Y-63541005D01*
X171469663Y-63531907D01*
X171442727Y-63523537D01*
X171415433Y-63515895D01*
X171387780Y-63508981D01*
X171359767Y-63502794D01*
X171331396Y-63497336D01*
X171302666Y-63492605D01*
X171273577Y-63488602D01*
X171244129Y-63485327D01*
X171214322Y-63482780D01*
X171184156Y-63480960D01*
X171153632Y-63479868D01*
X171122748Y-63479504D01*
X171088886Y-63480101D01*
X171055169Y-63481890D01*
X171021597Y-63484872D01*
X170988170Y-63489047D01*
X170954888Y-63494414D01*
X170921751Y-63500974D01*
X170888760Y-63508728D01*
X170855913Y-63517673D01*
X170823211Y-63527812D01*
X170790654Y-63539144D01*
X170758242Y-63551668D01*
X170725975Y-63565385D01*
X170693854Y-63580295D01*
X170661877Y-63596397D01*
X170630045Y-63613692D01*
X170598359Y-63632181D01*
G37*
G36*
X170293934Y-63360705D02*
G01*
X169995079Y-63360705D01*
X169995079Y-64391849D01*
X169975347Y-64374878D01*
X169955365Y-64359002D01*
X169935133Y-64344221D01*
X169914651Y-64330535D01*
X169893919Y-64317944D01*
X169872936Y-64306447D01*
X169851704Y-64296046D01*
X169830221Y-64286739D01*
X169808488Y-64278527D01*
X169786505Y-64271411D01*
X169764272Y-64265389D01*
X169741788Y-64260462D01*
X169719055Y-64256630D01*
X169696071Y-64253892D01*
X169672837Y-64252250D01*
X169649353Y-64251703D01*
X169622718Y-64252248D01*
X169596762Y-64253885D01*
X169571483Y-64256613D01*
X169546882Y-64260433D01*
X169522960Y-64265343D01*
X169499715Y-64271345D01*
X169477148Y-64278439D01*
X169455259Y-64286623D01*
X169434048Y-64295899D01*
X169413516Y-64306266D01*
X169393661Y-64317724D01*
X169374484Y-64330274D01*
X169355985Y-64343915D01*
X169338164Y-64358647D01*
X169321020Y-64374470D01*
X169304555Y-64391385D01*
X169291293Y-64407149D01*
X169278887Y-64424043D01*
X169267336Y-64442069D01*
X169256641Y-64461226D01*
X169246801Y-64481514D01*
X169237818Y-64502934D01*
X169229689Y-64525484D01*
X169222417Y-64549166D01*
X169215999Y-64573979D01*
X169210438Y-64599923D01*
X169205732Y-64626998D01*
X169201882Y-64655204D01*
X169198887Y-64684541D01*
X169196748Y-64715010D01*
X169195465Y-64746610D01*
X169195037Y-64779340D01*
X169195037Y-65558500D01*
X169493892Y-65558500D01*
X169493892Y-64805792D01*
X169494103Y-64786979D01*
X169495207Y-64759998D01*
X169497257Y-64734500D01*
X169500253Y-64710488D01*
X169504196Y-64687960D01*
X169509085Y-64666917D01*
X169514920Y-64647358D01*
X169521702Y-64629285D01*
X169532216Y-64607495D01*
X169544412Y-64588346D01*
X169547724Y-64583971D01*
X169562088Y-64567873D01*
X169578497Y-64553923D01*
X169596950Y-64542118D01*
X169617449Y-64532460D01*
X169639992Y-64524948D01*
X169658241Y-64520722D01*
X169677641Y-64517704D01*
X169698190Y-64515893D01*
X169719890Y-64515289D01*
X169738565Y-64515663D01*
X169765259Y-64517623D01*
X169790370Y-64521264D01*
X169813898Y-64526586D01*
X169835844Y-64533587D01*
X169856207Y-64542269D01*
X169874988Y-64552632D01*
X169892187Y-64564675D01*
X169907803Y-64578398D01*
X169921836Y-64593802D01*
X169934287Y-64610886D01*
X169945151Y-64630283D01*
X169954947Y-64652102D01*
X169963673Y-64676345D01*
X169971332Y-64703010D01*
X169975844Y-64722132D01*
X169979881Y-64742331D01*
X169983443Y-64763608D01*
X169986530Y-64785961D01*
X169989142Y-64809390D01*
X169991279Y-64833897D01*
X169992942Y-64859480D01*
X169994129Y-64886140D01*
X169994841Y-64913877D01*
X169995079Y-64942690D01*
X169995079Y-65558500D01*
X170293934Y-65558500D01*
X170293934Y-63360705D01*
G37*
G36*
X168836781Y-64281403D02*
G01*
X168537926Y-64281403D01*
X168537926Y-64402987D01*
X168522949Y-64387284D01*
X168508299Y-64372543D01*
X168493974Y-64358766D01*
X168479976Y-64345951D01*
X168461820Y-64330361D01*
X168444244Y-64316483D01*
X168427247Y-64304316D01*
X168410831Y-64293860D01*
X168394995Y-64285115D01*
X168374550Y-64275489D01*
X168352949Y-64267495D01*
X168334836Y-64262274D01*
X168315983Y-64258098D01*
X168296391Y-64254966D01*
X168276059Y-64252877D01*
X168254988Y-64251833D01*
X168244175Y-64251703D01*
X168222419Y-64252343D01*
X168200484Y-64254264D01*
X168178370Y-64257466D01*
X168156076Y-64261948D01*
X168133602Y-64267711D01*
X168110950Y-64274755D01*
X168088117Y-64283080D01*
X168065105Y-64292685D01*
X168041914Y-64303571D01*
X168018543Y-64315738D01*
X168002863Y-64324560D01*
X168136513Y-64608102D01*
X168152055Y-64597486D01*
X168172677Y-64584957D01*
X168193183Y-64574283D01*
X168213572Y-64565466D01*
X168233846Y-64558505D01*
X168254004Y-64553400D01*
X168274045Y-64550152D01*
X168293971Y-64548760D01*
X168298934Y-64548702D01*
X168327875Y-64550103D01*
X168354948Y-64554307D01*
X168380154Y-64561313D01*
X168403493Y-64571122D01*
X168424965Y-64583733D01*
X168444570Y-64599147D01*
X168462307Y-64617363D01*
X168478178Y-64638382D01*
X168492181Y-64662203D01*
X168504318Y-64688827D01*
X168514587Y-64718253D01*
X168522989Y-64750482D01*
X168529524Y-64785513D01*
X168532091Y-64804079D01*
X168534192Y-64823346D01*
X168535825Y-64843314D01*
X168536992Y-64863983D01*
X168537693Y-64885352D01*
X168537926Y-64907421D01*
X168537926Y-65558500D01*
X168836781Y-65558500D01*
X168836781Y-64281403D01*
G37*
G36*
X167503997Y-64281403D02*
G01*
X167503997Y-65558500D01*
X167802853Y-65558500D01*
X167802853Y-64281403D01*
X167503997Y-64281403D01*
G37*
G36*
X167832553Y-63759797D02*
G01*
X167831668Y-63740640D01*
X167829014Y-63722150D01*
X167823209Y-63699976D01*
X167814639Y-63678844D01*
X167803305Y-63658754D01*
X167792247Y-63643433D01*
X167779420Y-63628779D01*
X167775937Y-63625220D01*
X167761326Y-63611950D01*
X167746034Y-63600450D01*
X167730060Y-63590720D01*
X167709134Y-63581044D01*
X167687144Y-63574133D01*
X167668784Y-63570595D01*
X167649743Y-63568825D01*
X167639967Y-63568604D01*
X167620266Y-63569489D01*
X167601305Y-63572143D01*
X167583083Y-63576566D01*
X167561346Y-63584583D01*
X167544789Y-63592986D01*
X167528971Y-63603160D01*
X167513892Y-63615102D01*
X167503069Y-63625220D01*
X167489800Y-63639424D01*
X167478300Y-63654427D01*
X167466413Y-63674301D01*
X167457290Y-63695422D01*
X167451982Y-63713215D01*
X167448444Y-63731807D01*
X167446675Y-63751196D01*
X167446453Y-63761190D01*
X167447338Y-63780992D01*
X167449992Y-63800026D01*
X167454415Y-63818291D01*
X167462432Y-63840042D01*
X167473213Y-63860591D01*
X167483829Y-63876166D01*
X167496213Y-63890973D01*
X167503069Y-63898088D01*
X167517266Y-63911357D01*
X167532247Y-63922857D01*
X167552074Y-63934744D01*
X167573124Y-63943867D01*
X167595398Y-63950225D01*
X167614098Y-63953321D01*
X167633582Y-63954648D01*
X167638575Y-63954703D01*
X167658283Y-63953826D01*
X167677266Y-63951194D01*
X167695524Y-63946807D01*
X167713057Y-63940665D01*
X167729864Y-63932769D01*
X167745947Y-63923118D01*
X167761305Y-63911712D01*
X167775937Y-63898552D01*
X167789206Y-63883999D01*
X167800706Y-63868649D01*
X167810437Y-63852501D01*
X167818399Y-63835556D01*
X167824591Y-63817812D01*
X167829014Y-63799272D01*
X167831668Y-63779933D01*
X167832553Y-63759797D01*
G37*
G36*
X166390714Y-64502760D02*
G01*
X166632490Y-64631769D01*
X166643607Y-64610953D01*
X166655205Y-64592184D01*
X166667285Y-64575463D01*
X166679846Y-64560789D01*
X166697342Y-64544409D01*
X166715695Y-64531669D01*
X166734902Y-64522569D01*
X166754966Y-64517109D01*
X166775885Y-64515289D01*
X166795578Y-64516943D01*
X166813822Y-64521902D01*
X166830615Y-64530168D01*
X166845958Y-64541741D01*
X166858546Y-64555924D01*
X166868408Y-64574168D01*
X166873353Y-64592418D01*
X166874730Y-64609958D01*
X166870583Y-64632558D01*
X166861295Y-64650606D01*
X166846699Y-64668625D01*
X166832268Y-64682120D01*
X166814852Y-64695598D01*
X166794451Y-64709060D01*
X166771064Y-64722506D01*
X166753814Y-64731461D01*
X166735237Y-64740409D01*
X166715333Y-64749350D01*
X166704883Y-64753817D01*
X166676189Y-64766283D01*
X166648696Y-64778623D01*
X166622402Y-64790835D01*
X166597308Y-64802921D01*
X166573414Y-64814879D01*
X166550721Y-64826711D01*
X166529227Y-64838416D01*
X166508933Y-64849994D01*
X166489840Y-64861445D01*
X166471946Y-64872769D01*
X166455253Y-64883966D01*
X166439759Y-64895037D01*
X166418769Y-64911404D01*
X166400479Y-64927487D01*
X166389786Y-64938049D01*
X166375272Y-64954321D01*
X166362187Y-64971636D01*
X166350529Y-64989995D01*
X166340298Y-65009399D01*
X166331495Y-65029847D01*
X166324119Y-65051338D01*
X166318171Y-65073874D01*
X166313651Y-65097454D01*
X166310558Y-65122079D01*
X166308892Y-65147747D01*
X166308575Y-65165439D01*
X166309101Y-65188008D01*
X166310678Y-65210120D01*
X166313306Y-65231775D01*
X166316986Y-65252973D01*
X166321717Y-65273714D01*
X166327500Y-65293999D01*
X166334334Y-65313827D01*
X166342219Y-65333198D01*
X166351156Y-65352112D01*
X166361144Y-65370569D01*
X166372184Y-65388570D01*
X166384275Y-65406113D01*
X166397417Y-65423200D01*
X166411611Y-65439830D01*
X166426856Y-65456004D01*
X166443153Y-65471720D01*
X166459721Y-65485825D01*
X166476710Y-65499020D01*
X166494120Y-65511305D01*
X166511950Y-65522680D01*
X166530200Y-65533145D01*
X166548872Y-65542700D01*
X166567963Y-65551345D01*
X166587476Y-65559080D01*
X166607409Y-65565905D01*
X166627762Y-65571820D01*
X166648536Y-65576824D01*
X166669731Y-65580919D01*
X166691346Y-65584104D01*
X166713381Y-65586379D01*
X166735838Y-65587744D01*
X166758714Y-65588199D01*
X166778372Y-65587894D01*
X166797667Y-65586978D01*
X166816599Y-65585450D01*
X166835169Y-65583312D01*
X166871220Y-65577203D01*
X166905822Y-65568651D01*
X166938973Y-65557655D01*
X166970675Y-65544215D01*
X167000926Y-65528332D01*
X167029726Y-65510005D01*
X167057077Y-65489235D01*
X167082977Y-65466021D01*
X167107428Y-65440363D01*
X167130428Y-65412262D01*
X167151978Y-65381717D01*
X167162209Y-65365529D01*
X167172077Y-65348729D01*
X167181583Y-65331319D01*
X167190727Y-65313297D01*
X167199508Y-65294665D01*
X167207926Y-65275422D01*
X166963366Y-65160335D01*
X166953832Y-65176723D01*
X166941781Y-65196772D01*
X166930484Y-65214761D01*
X166919941Y-65230692D01*
X166907823Y-65247709D01*
X166894837Y-65263882D01*
X166883547Y-65275422D01*
X166866360Y-65289593D01*
X166848153Y-65301362D01*
X166828927Y-65310730D01*
X166808681Y-65317695D01*
X166787415Y-65322259D01*
X166765130Y-65324420D01*
X166755930Y-65324613D01*
X166729392Y-65323430D01*
X166705463Y-65319881D01*
X166684146Y-65313967D01*
X166665438Y-65305688D01*
X166649341Y-65295042D01*
X166635854Y-65282031D01*
X166624978Y-65266655D01*
X166616712Y-65248913D01*
X166611056Y-65228805D01*
X166608011Y-65206331D01*
X166607430Y-65190035D01*
X166609207Y-65170711D01*
X166614536Y-65151721D01*
X166623419Y-65133064D01*
X166635854Y-65114741D01*
X166651843Y-65096751D01*
X166666165Y-65083478D01*
X166682487Y-65070392D01*
X166700807Y-65057494D01*
X166721126Y-65044784D01*
X166740232Y-65035286D01*
X166759383Y-65025877D01*
X166778579Y-65016556D01*
X166797819Y-65007325D01*
X166808833Y-65002090D01*
X166828165Y-64992909D01*
X166847586Y-64983640D01*
X166867095Y-64974282D01*
X166883889Y-64966189D01*
X166897933Y-64959396D01*
X166921026Y-64947737D01*
X166942798Y-64936077D01*
X166963249Y-64924418D01*
X166982378Y-64912758D01*
X167000185Y-64901099D01*
X167016671Y-64889439D01*
X167031835Y-64877779D01*
X167049999Y-64862233D01*
X167065813Y-64846687D01*
X167076132Y-64835028D01*
X167087909Y-64819836D01*
X167098527Y-64803845D01*
X167107987Y-64787055D01*
X167116288Y-64769465D01*
X167123431Y-64751075D01*
X167129416Y-64731886D01*
X167134243Y-64711898D01*
X167137911Y-64691111D01*
X167140420Y-64669524D01*
X167141772Y-64647137D01*
X167142029Y-64631769D01*
X167141591Y-64611399D01*
X167140274Y-64591475D01*
X167138081Y-64571997D01*
X167135010Y-64552965D01*
X167131062Y-64534379D01*
X167126237Y-64516239D01*
X167120534Y-64498545D01*
X167110334Y-64472840D01*
X167098161Y-64448138D01*
X167084013Y-64424440D01*
X167067892Y-64401745D01*
X167056047Y-64387172D01*
X167043326Y-64373046D01*
X167029726Y-64359365D01*
X167015206Y-64346328D01*
X167000302Y-64334131D01*
X166985013Y-64322776D01*
X166969340Y-64312263D01*
X166953283Y-64302590D01*
X166936842Y-64293758D01*
X166920016Y-64285768D01*
X166902806Y-64278618D01*
X166885211Y-64272310D01*
X166867232Y-64266843D01*
X166848869Y-64262216D01*
X166830122Y-64258431D01*
X166810990Y-64255488D01*
X166791474Y-64253385D01*
X166771574Y-64252123D01*
X166751289Y-64251703D01*
X166721493Y-64252683D01*
X166692665Y-64255625D01*
X166664805Y-64260529D01*
X166637913Y-64267394D01*
X166611990Y-64276220D01*
X166587034Y-64287007D01*
X166563046Y-64299756D01*
X166540026Y-64314467D01*
X166517974Y-64331139D01*
X166496890Y-64349772D01*
X166476774Y-64370366D01*
X166457626Y-64392922D01*
X166439446Y-64417440D01*
X166422234Y-64443918D01*
X166405990Y-64472358D01*
X166390714Y-64502760D01*
G37*
G36*
X165764695Y-64548702D02*
G01*
X165764695Y-65558500D01*
X166063550Y-65558500D01*
X166063550Y-64548702D01*
X166182350Y-64548702D01*
X166182350Y-64285115D01*
X166063550Y-64285115D01*
X166063550Y-63806204D01*
X165764695Y-63806204D01*
X165764695Y-64285115D01*
X165528952Y-64285115D01*
X165528952Y-64548702D01*
X165764695Y-64548702D01*
G37*
G36*
X165337758Y-64281403D02*
G01*
X165038903Y-64281403D01*
X165038903Y-64401130D01*
X165023627Y-64385353D01*
X165008775Y-64370562D01*
X164994348Y-64356759D01*
X164980344Y-64343942D01*
X164962333Y-64328389D01*
X164945075Y-64314590D01*
X164928572Y-64302546D01*
X164912823Y-64292257D01*
X164897828Y-64283723D01*
X164877614Y-64274498D01*
X164855836Y-64266837D01*
X164837288Y-64261834D01*
X164817740Y-64257831D01*
X164797190Y-64254830D01*
X164775640Y-64252828D01*
X164753090Y-64251828D01*
X164741440Y-64251703D01*
X164715563Y-64252426D01*
X164690371Y-64254596D01*
X164665865Y-64258212D01*
X164642043Y-64263275D01*
X164618907Y-64269785D01*
X164596457Y-64277741D01*
X164574691Y-64287143D01*
X164553611Y-64297993D01*
X164533216Y-64310289D01*
X164513506Y-64324031D01*
X164494481Y-64339220D01*
X164476141Y-64355855D01*
X164458487Y-64373937D01*
X164441518Y-64393466D01*
X164425234Y-64414441D01*
X164409636Y-64436863D01*
X164392203Y-64414441D01*
X164374012Y-64393466D01*
X164355063Y-64373937D01*
X164335357Y-64355855D01*
X164314893Y-64339220D01*
X164293671Y-64324031D01*
X164271692Y-64310289D01*
X164248954Y-64297993D01*
X164225459Y-64287143D01*
X164201207Y-64277741D01*
X164176196Y-64269785D01*
X164150428Y-64263275D01*
X164123902Y-64258212D01*
X164096619Y-64254596D01*
X164068578Y-64252426D01*
X164039779Y-64251703D01*
X164013655Y-64252211D01*
X163988360Y-64253738D01*
X163963895Y-64256283D01*
X163940259Y-64259845D01*
X163917453Y-64264426D01*
X163895476Y-64270024D01*
X163874328Y-64276640D01*
X163854009Y-64284274D01*
X163834520Y-64292926D01*
X163815860Y-64302595D01*
X163798029Y-64313283D01*
X163781028Y-64324988D01*
X163764856Y-64337711D01*
X163749514Y-64351452D01*
X163735000Y-64366211D01*
X163721317Y-64381988D01*
X163708462Y-64398782D01*
X163696437Y-64416595D01*
X163685241Y-64435425D01*
X163674874Y-64455273D01*
X163665337Y-64476139D01*
X163656629Y-64498023D01*
X163648750Y-64520925D01*
X163641701Y-64544844D01*
X163635481Y-64569782D01*
X163630090Y-64595737D01*
X163625529Y-64622710D01*
X163621797Y-64650701D01*
X163618894Y-64679710D01*
X163616821Y-64709737D01*
X163615577Y-64740781D01*
X163615162Y-64772844D01*
X163615162Y-65558500D01*
X163914018Y-65558500D01*
X163914018Y-64851270D01*
X163914185Y-64828777D01*
X163914685Y-64807126D01*
X163915519Y-64786316D01*
X163916686Y-64766347D01*
X163918187Y-64747219D01*
X163921064Y-64720104D01*
X163924691Y-64694881D01*
X163929069Y-64671551D01*
X163934197Y-64650114D01*
X163940076Y-64630569D01*
X163946705Y-64612916D01*
X163956712Y-64592324D01*
X163968625Y-64574269D01*
X163982322Y-64558621D01*
X163997803Y-64545381D01*
X164015067Y-64534548D01*
X164034116Y-64526122D01*
X164054948Y-64520104D01*
X164077563Y-64516493D01*
X164101963Y-64515289D01*
X164123335Y-64516097D01*
X164143598Y-64518520D01*
X164162751Y-64522558D01*
X164180795Y-64528211D01*
X164203128Y-64538260D01*
X164223489Y-64551182D01*
X164241877Y-64566974D01*
X164254374Y-64580703D01*
X164265762Y-64596047D01*
X164272738Y-64607174D01*
X164282275Y-64625290D01*
X164290874Y-64645355D01*
X164298535Y-64667371D01*
X164305258Y-64691335D01*
X164311043Y-64717250D01*
X164314378Y-64735609D01*
X164317297Y-64754835D01*
X164319799Y-64774928D01*
X164321883Y-64795887D01*
X164323551Y-64817712D01*
X164324802Y-64840404D01*
X164325636Y-64863962D01*
X164326052Y-64888387D01*
X164326105Y-64900924D01*
X164326105Y-65558500D01*
X164624960Y-65558500D01*
X164624960Y-64855446D01*
X164625142Y-64834519D01*
X164625689Y-64814256D01*
X164626600Y-64794657D01*
X164627875Y-64775722D01*
X164631519Y-64739846D01*
X164636620Y-64706628D01*
X164643178Y-64676067D01*
X164651194Y-64648163D01*
X164660667Y-64622917D01*
X164671598Y-64600329D01*
X164683987Y-64580398D01*
X164697832Y-64563124D01*
X164713135Y-64548508D01*
X164729896Y-64536549D01*
X164748114Y-64527248D01*
X164767790Y-64520604D01*
X164788922Y-64516618D01*
X164811513Y-64515289D01*
X164833221Y-64516109D01*
X164853795Y-64518569D01*
X164873235Y-64522668D01*
X164891542Y-64528406D01*
X164908714Y-64535785D01*
X164929847Y-64548173D01*
X164948964Y-64563476D01*
X164961979Y-64576866D01*
X164973860Y-64591896D01*
X164984608Y-64608566D01*
X164994311Y-64626906D01*
X165003060Y-64647123D01*
X165010854Y-64669216D01*
X165017694Y-64693184D01*
X165023579Y-64719030D01*
X165026973Y-64737302D01*
X165029942Y-64756408D01*
X165032487Y-64776348D01*
X165034608Y-64797122D01*
X165036305Y-64818730D01*
X165037577Y-64841172D01*
X165038426Y-64864448D01*
X165038850Y-64888557D01*
X165038903Y-64900924D01*
X165038903Y-65558500D01*
X165337758Y-65558500D01*
X165337758Y-64281403D01*
G37*
G36*
X162730214Y-64252444D02*
G01*
X162761123Y-64254668D01*
X162791368Y-64258375D01*
X162820950Y-64263565D01*
X162849869Y-64270238D01*
X162878124Y-64278393D01*
X162905716Y-64288032D01*
X162932644Y-64299153D01*
X162958909Y-64311757D01*
X162984510Y-64325844D01*
X163009448Y-64341413D01*
X163033723Y-64358466D01*
X163057333Y-64377001D01*
X163080281Y-64397019D01*
X163102565Y-64418520D01*
X163124186Y-64441504D01*
X163144753Y-64465599D01*
X163163993Y-64490433D01*
X163181907Y-64516007D01*
X163198493Y-64542321D01*
X163213753Y-64569374D01*
X163227686Y-64597167D01*
X163240292Y-64625700D01*
X163251570Y-64654972D01*
X163261522Y-64684984D01*
X163270147Y-64715735D01*
X163277445Y-64747226D01*
X163283417Y-64779456D01*
X163288061Y-64812427D01*
X163291378Y-64846136D01*
X163293369Y-64880586D01*
X163294032Y-64915774D01*
X163293369Y-64951540D01*
X163291378Y-64986558D01*
X163288061Y-65020830D01*
X163283417Y-65054355D01*
X163277445Y-65087133D01*
X163270147Y-65119164D01*
X163261522Y-65150448D01*
X163251570Y-65180986D01*
X163240292Y-65210776D01*
X163227686Y-65239820D01*
X163213753Y-65268117D01*
X163198493Y-65295667D01*
X163181907Y-65322470D01*
X163163993Y-65348526D01*
X163144753Y-65373836D01*
X163124186Y-65398398D01*
X163102371Y-65421382D01*
X163079853Y-65442883D01*
X163056632Y-65462901D01*
X163032707Y-65481436D01*
X163008080Y-65498489D01*
X162982748Y-65514058D01*
X162956714Y-65528145D01*
X162929976Y-65540749D01*
X162902535Y-65551870D01*
X162874390Y-65561509D01*
X162845542Y-65569664D01*
X162815991Y-65576337D01*
X162785736Y-65581527D01*
X162754778Y-65585234D01*
X162723117Y-65587458D01*
X162690752Y-65588199D01*
X162664872Y-65587545D01*
X162639205Y-65585582D01*
X162613752Y-65582310D01*
X162588514Y-65577729D01*
X162563489Y-65571839D01*
X162538678Y-65564641D01*
X162514081Y-65556134D01*
X162489698Y-65546318D01*
X162465528Y-65535193D01*
X162441573Y-65522760D01*
X162417831Y-65509017D01*
X162394304Y-65493966D01*
X162370990Y-65477606D01*
X162347891Y-65459937D01*
X162325005Y-65440960D01*
X162302333Y-65420673D01*
X162302333Y-65558500D01*
X162016935Y-65558500D01*
X162016935Y-64920879D01*
X162284234Y-64920879D01*
X162284624Y-64942795D01*
X162285793Y-64964225D01*
X162287742Y-64985170D01*
X162290470Y-65005628D01*
X162293978Y-65025601D01*
X162298265Y-65045088D01*
X162303332Y-65064089D01*
X162309178Y-65082605D01*
X162315803Y-65100634D01*
X162323208Y-65118178D01*
X162331393Y-65135236D01*
X162340357Y-65151808D01*
X162350100Y-65167894D01*
X162360623Y-65183494D01*
X162371926Y-65198609D01*
X162384008Y-65213238D01*
X162403266Y-65233142D01*
X162423625Y-65251088D01*
X162445086Y-65267076D01*
X162467647Y-65281107D01*
X162491310Y-65293180D01*
X162516075Y-65303295D01*
X162541940Y-65311452D01*
X162568907Y-65317652D01*
X162587497Y-65320697D01*
X162606576Y-65322872D01*
X162626144Y-65324177D01*
X162646202Y-65324613D01*
X162655636Y-65324500D01*
X162674198Y-65323601D01*
X162701281Y-65320567D01*
X162727449Y-65315509D01*
X162752704Y-65308428D01*
X162777046Y-65299325D01*
X162800474Y-65288198D01*
X162822988Y-65275049D01*
X162844589Y-65259876D01*
X162865276Y-65242680D01*
X162885049Y-65223462D01*
X162897724Y-65209525D01*
X162909524Y-65195049D01*
X162920564Y-65180043D01*
X162930842Y-65164508D01*
X162940359Y-65148443D01*
X162949115Y-65131849D01*
X162957109Y-65114726D01*
X162964342Y-65097074D01*
X162970813Y-65078892D01*
X162976523Y-65060181D01*
X162981472Y-65040941D01*
X162985660Y-65021171D01*
X162989086Y-65000872D01*
X162991750Y-64980043D01*
X162993654Y-64958686D01*
X162994796Y-64936799D01*
X162995176Y-64914382D01*
X162994785Y-64893365D01*
X162993610Y-64872776D01*
X162991652Y-64852615D01*
X162988912Y-64832881D01*
X162985388Y-64813576D01*
X162981081Y-64794698D01*
X162975990Y-64776248D01*
X162970117Y-64758226D01*
X162963461Y-64740631D01*
X162956021Y-64723464D01*
X162947799Y-64706726D01*
X162938793Y-64690415D01*
X162929004Y-64674531D01*
X162918432Y-64659076D01*
X162907077Y-64644048D01*
X162894939Y-64629449D01*
X162888596Y-64622425D01*
X162875617Y-64609047D01*
X162855414Y-64590652D01*
X162834330Y-64574264D01*
X162812365Y-64559883D01*
X162789519Y-64547508D01*
X162765792Y-64537140D01*
X162741184Y-64528779D01*
X162715695Y-64522424D01*
X162689326Y-64518077D01*
X162662075Y-64515735D01*
X162643418Y-64515289D01*
X162623697Y-64515730D01*
X162604444Y-64517051D01*
X162585659Y-64519254D01*
X162558357Y-64524209D01*
X162532108Y-64531147D01*
X162506912Y-64540067D01*
X162482767Y-64550970D01*
X162459675Y-64563854D01*
X162437636Y-64578721D01*
X162416648Y-64595570D01*
X162396713Y-64614401D01*
X162384008Y-64628056D01*
X162371926Y-64642687D01*
X162360623Y-64657807D01*
X162350100Y-64673417D01*
X162340357Y-64689516D01*
X162331393Y-64706104D01*
X162323208Y-64723182D01*
X162315803Y-64740749D01*
X162309178Y-64758806D01*
X162303332Y-64777352D01*
X162298265Y-64796387D01*
X162293978Y-64815912D01*
X162290470Y-64835927D01*
X162287742Y-64856431D01*
X162285793Y-64877424D01*
X162284624Y-64898907D01*
X162284234Y-64920879D01*
X162016935Y-64920879D01*
X162016935Y-64281403D01*
X162302333Y-64281403D01*
X162302333Y-64431758D01*
X162324437Y-64409955D01*
X162346897Y-64389558D01*
X162369712Y-64370568D01*
X162392883Y-64352984D01*
X162416408Y-64336807D01*
X162440290Y-64322037D01*
X162464526Y-64308673D01*
X162489117Y-64296717D01*
X162514064Y-64286166D01*
X162539367Y-64277023D01*
X162565024Y-64269286D01*
X162591037Y-64262956D01*
X162617405Y-64258033D01*
X162644128Y-64254516D01*
X162671207Y-64252406D01*
X162698641Y-64251703D01*
X162730214Y-64252444D01*
G37*
G36*
X160888802Y-64502760D02*
G01*
X161130578Y-64631769D01*
X161141695Y-64610953D01*
X161153293Y-64592184D01*
X161165373Y-64575463D01*
X161177934Y-64560789D01*
X161195430Y-64544409D01*
X161213782Y-64531669D01*
X161232990Y-64522569D01*
X161253054Y-64517109D01*
X161273973Y-64515289D01*
X161293666Y-64516943D01*
X161311910Y-64521902D01*
X161328703Y-64530168D01*
X161344046Y-64541741D01*
X161356634Y-64555924D01*
X161366496Y-64574168D01*
X161371441Y-64592418D01*
X161372818Y-64609958D01*
X161368671Y-64632558D01*
X161359383Y-64650606D01*
X161344786Y-64668625D01*
X161330356Y-64682120D01*
X161312940Y-64695598D01*
X161292539Y-64709060D01*
X161269152Y-64722506D01*
X161251902Y-64731461D01*
X161233325Y-64740409D01*
X161213421Y-64749350D01*
X161202971Y-64753817D01*
X161174277Y-64766283D01*
X161146784Y-64778623D01*
X161120490Y-64790835D01*
X161095396Y-64802921D01*
X161071502Y-64814879D01*
X161048809Y-64826711D01*
X161027315Y-64838416D01*
X161007021Y-64849994D01*
X160987928Y-64861445D01*
X160970034Y-64872769D01*
X160953341Y-64883966D01*
X160937847Y-64895037D01*
X160916857Y-64911404D01*
X160898567Y-64927487D01*
X160887874Y-64938049D01*
X160873360Y-64954321D01*
X160860275Y-64971636D01*
X160848616Y-64989995D01*
X160838386Y-65009399D01*
X160829583Y-65029847D01*
X160822207Y-65051338D01*
X160816259Y-65073874D01*
X160811739Y-65097454D01*
X160808646Y-65122079D01*
X160806980Y-65147747D01*
X160806663Y-65165439D01*
X160807189Y-65188008D01*
X160808766Y-65210120D01*
X160811394Y-65231775D01*
X160815074Y-65252973D01*
X160819805Y-65273714D01*
X160825588Y-65293999D01*
X160832422Y-65313827D01*
X160840307Y-65333198D01*
X160849244Y-65352112D01*
X160859232Y-65370569D01*
X160870272Y-65388570D01*
X160882363Y-65406113D01*
X160895505Y-65423200D01*
X160909699Y-65439830D01*
X160924944Y-65456004D01*
X160941241Y-65471720D01*
X160957809Y-65485825D01*
X160974798Y-65499020D01*
X160992208Y-65511305D01*
X161010038Y-65522680D01*
X161028288Y-65533145D01*
X161046960Y-65542700D01*
X161066051Y-65551345D01*
X161085564Y-65559080D01*
X161105497Y-65565905D01*
X161125850Y-65571820D01*
X161146624Y-65576824D01*
X161167819Y-65580919D01*
X161189434Y-65584104D01*
X161211469Y-65586379D01*
X161233926Y-65587744D01*
X161256802Y-65588199D01*
X161276460Y-65587894D01*
X161295755Y-65586978D01*
X161314687Y-65585450D01*
X161333257Y-65583312D01*
X161369308Y-65577203D01*
X161403910Y-65568651D01*
X161437061Y-65557655D01*
X161468762Y-65544215D01*
X161499013Y-65528332D01*
X161527814Y-65510005D01*
X161555165Y-65489235D01*
X161581065Y-65466021D01*
X161605516Y-65440363D01*
X161628516Y-65412262D01*
X161650065Y-65381717D01*
X161660297Y-65365529D01*
X161670165Y-65348729D01*
X161679671Y-65331319D01*
X161688815Y-65313297D01*
X161697595Y-65294665D01*
X161706014Y-65275422D01*
X161461453Y-65160335D01*
X161451920Y-65176723D01*
X161439869Y-65196772D01*
X161428572Y-65214761D01*
X161418029Y-65230692D01*
X161405911Y-65247709D01*
X161392925Y-65263882D01*
X161381635Y-65275422D01*
X161364448Y-65289593D01*
X161346241Y-65301362D01*
X161327015Y-65310730D01*
X161306769Y-65317695D01*
X161285503Y-65322259D01*
X161263218Y-65324420D01*
X161254018Y-65324613D01*
X161227480Y-65323430D01*
X161203551Y-65319881D01*
X161182234Y-65313967D01*
X161163526Y-65305688D01*
X161147429Y-65295042D01*
X161133942Y-65282031D01*
X161123066Y-65266655D01*
X161114800Y-65248913D01*
X161109144Y-65228805D01*
X161106098Y-65206331D01*
X161105518Y-65190035D01*
X161107295Y-65170711D01*
X161112624Y-65151721D01*
X161121507Y-65133064D01*
X161133942Y-65114741D01*
X161149931Y-65096751D01*
X161164253Y-65083478D01*
X161180575Y-65070392D01*
X161198895Y-65057494D01*
X161219213Y-65044784D01*
X161238320Y-65035286D01*
X161257471Y-65025877D01*
X161276667Y-65016556D01*
X161295907Y-65007325D01*
X161306921Y-65002090D01*
X161326253Y-64992909D01*
X161345674Y-64983640D01*
X161365183Y-64974282D01*
X161381977Y-64966189D01*
X161396021Y-64959396D01*
X161419114Y-64947737D01*
X161440886Y-64936077D01*
X161461337Y-64924418D01*
X161480466Y-64912758D01*
X161498273Y-64901099D01*
X161514759Y-64889439D01*
X161529923Y-64877779D01*
X161548087Y-64862233D01*
X161563901Y-64846687D01*
X161574220Y-64835028D01*
X161585997Y-64819836D01*
X161596615Y-64803845D01*
X161606075Y-64787055D01*
X161614376Y-64769465D01*
X161621519Y-64751075D01*
X161627504Y-64731886D01*
X161632331Y-64711898D01*
X161635999Y-64691111D01*
X161638508Y-64669524D01*
X161639860Y-64647137D01*
X161640117Y-64631769D01*
X161639678Y-64611399D01*
X161638362Y-64591475D01*
X161636169Y-64571997D01*
X161633098Y-64552965D01*
X161629150Y-64534379D01*
X161624325Y-64516239D01*
X161618622Y-64498545D01*
X161608422Y-64472840D01*
X161596249Y-64448138D01*
X161582101Y-64424440D01*
X161565980Y-64401745D01*
X161554135Y-64387172D01*
X161541413Y-64373046D01*
X161527814Y-64359365D01*
X161513294Y-64346328D01*
X161498390Y-64334131D01*
X161483101Y-64322776D01*
X161467428Y-64312263D01*
X161451371Y-64302590D01*
X161434929Y-64293758D01*
X161418104Y-64285768D01*
X161400893Y-64278618D01*
X161383299Y-64272310D01*
X161365320Y-64266843D01*
X161346957Y-64262216D01*
X161328210Y-64258431D01*
X161309078Y-64255488D01*
X161289562Y-64253385D01*
X161269662Y-64252123D01*
X161249377Y-64251703D01*
X161219581Y-64252683D01*
X161190753Y-64255625D01*
X161162893Y-64260529D01*
X161136001Y-64267394D01*
X161110077Y-64276220D01*
X161085121Y-64287007D01*
X161061133Y-64299756D01*
X161038113Y-64314467D01*
X161016061Y-64331139D01*
X160994978Y-64349772D01*
X160974862Y-64370366D01*
X160955714Y-64392922D01*
X160937534Y-64417440D01*
X160920322Y-64443918D01*
X160904078Y-64472358D01*
X160888802Y-64502760D01*
G37*
G36*
X159238599Y-65261500D02*
G01*
X158491925Y-65261500D01*
X158491925Y-65558500D01*
X159838631Y-65558500D01*
X159142539Y-64707411D01*
X159129849Y-64691705D01*
X159117421Y-64676261D01*
X159105254Y-64661077D01*
X159093348Y-64646155D01*
X159081703Y-64631493D01*
X159064725Y-64609991D01*
X159048334Y-64589075D01*
X159032531Y-64568747D01*
X159017315Y-64549006D01*
X159002686Y-64529853D01*
X158988644Y-64511287D01*
X158975190Y-64493308D01*
X158970836Y-64487446D01*
X158958074Y-64470222D01*
X158945891Y-64453528D01*
X158934287Y-64437364D01*
X158923262Y-64421730D01*
X158909464Y-64401710D01*
X158896695Y-64382633D01*
X158884956Y-64364498D01*
X158874246Y-64347306D01*
X158864566Y-64331057D01*
X158851380Y-64308215D01*
X158839490Y-64285806D01*
X158828898Y-64263828D01*
X158819603Y-64242284D01*
X158811604Y-64221171D01*
X158804903Y-64200491D01*
X158799499Y-64180243D01*
X158795392Y-64160427D01*
X158792581Y-64141044D01*
X158791068Y-64122093D01*
X158790780Y-64109700D01*
X158791649Y-64083565D01*
X158794255Y-64058238D01*
X158798599Y-64033718D01*
X158804680Y-64010006D01*
X158812499Y-63987102D01*
X158822055Y-63965005D01*
X158833349Y-63943716D01*
X158846380Y-63923234D01*
X158861149Y-63903560D01*
X158877656Y-63884693D01*
X158889625Y-63872564D01*
X158908484Y-63855397D01*
X158928166Y-63839919D01*
X158948672Y-63826129D01*
X158970002Y-63814027D01*
X158992156Y-63803615D01*
X159015134Y-63794890D01*
X159038936Y-63787855D01*
X159063561Y-63782507D01*
X159089011Y-63778849D01*
X159115284Y-63776879D01*
X159133257Y-63776504D01*
X159152002Y-63776856D01*
X159187970Y-63779677D01*
X159221912Y-63785318D01*
X159253827Y-63793780D01*
X159283715Y-63805062D01*
X159311577Y-63819166D01*
X159337412Y-63836089D01*
X159361221Y-63855834D01*
X159383003Y-63878399D01*
X159402758Y-63903784D01*
X159420486Y-63931991D01*
X159436188Y-63963017D01*
X159449864Y-63996865D01*
X159455941Y-64014846D01*
X159461512Y-64033533D01*
X159466577Y-64052925D01*
X159471134Y-64073022D01*
X159475185Y-64093824D01*
X159478730Y-64115331D01*
X159481768Y-64137543D01*
X159782943Y-64137543D01*
X159777905Y-64099114D01*
X159771897Y-64061905D01*
X159764918Y-64025916D01*
X159756970Y-63991147D01*
X159748053Y-63957597D01*
X159738165Y-63925268D01*
X159727308Y-63894159D01*
X159715480Y-63864269D01*
X159702683Y-63835600D01*
X159688917Y-63808150D01*
X159674180Y-63781921D01*
X159658473Y-63756912D01*
X159641797Y-63733122D01*
X159624151Y-63710553D01*
X159605535Y-63689203D01*
X159585949Y-63669073D01*
X159565394Y-63650164D01*
X159543868Y-63632474D01*
X159521373Y-63616005D01*
X159497908Y-63600755D01*
X159473473Y-63586725D01*
X159448069Y-63573916D01*
X159421694Y-63562326D01*
X159394350Y-63551956D01*
X159366036Y-63542806D01*
X159336752Y-63534876D01*
X159306498Y-63528166D01*
X159275275Y-63522677D01*
X159243081Y-63518407D01*
X159209918Y-63515357D01*
X159175785Y-63513527D01*
X159140682Y-63512917D01*
X159106686Y-63513595D01*
X159073379Y-63515629D01*
X159040761Y-63519018D01*
X159008831Y-63523764D01*
X158977590Y-63529866D01*
X158947038Y-63537324D01*
X158917175Y-63546137D01*
X158888001Y-63556307D01*
X158859516Y-63567832D01*
X158831719Y-63580713D01*
X158804611Y-63594951D01*
X158778192Y-63610544D01*
X158752462Y-63627493D01*
X158727421Y-63645798D01*
X158703069Y-63665459D01*
X158679405Y-63686476D01*
X158656703Y-63708493D01*
X158635465Y-63731156D01*
X158615691Y-63754464D01*
X158597382Y-63778418D01*
X158580539Y-63803017D01*
X158565159Y-63828261D01*
X158551245Y-63854151D01*
X158538795Y-63880685D01*
X158527810Y-63907866D01*
X158518289Y-63935691D01*
X158510233Y-63964162D01*
X158503642Y-63993278D01*
X158498516Y-64023040D01*
X158494854Y-64053447D01*
X158492657Y-64084499D01*
X158491925Y-64116197D01*
X158492267Y-64136532D01*
X158493295Y-64156817D01*
X158495008Y-64177050D01*
X158497406Y-64197233D01*
X158500490Y-64217366D01*
X158504258Y-64237447D01*
X158508712Y-64257478D01*
X158513851Y-64277458D01*
X158519676Y-64297387D01*
X158526185Y-64317266D01*
X158533380Y-64337093D01*
X158541260Y-64356870D01*
X158549825Y-64376597D01*
X158559076Y-64396272D01*
X158569011Y-64415897D01*
X158579632Y-64435471D01*
X158591306Y-64456470D01*
X158600918Y-64472828D01*
X158611264Y-64489708D01*
X158622345Y-64507110D01*
X158634159Y-64525035D01*
X158646708Y-64543481D01*
X158659991Y-64562450D01*
X158674008Y-64581940D01*
X158688759Y-64601953D01*
X158704244Y-64622488D01*
X158709569Y-64629449D01*
X158725975Y-64650777D01*
X158743172Y-64672824D01*
X158755076Y-64687920D01*
X158767332Y-64703336D01*
X158779940Y-64719070D01*
X158792899Y-64735124D01*
X158806210Y-64751497D01*
X158819873Y-64768188D01*
X158833887Y-64785199D01*
X158848253Y-64802529D01*
X158862971Y-64820178D01*
X158878040Y-64838146D01*
X158893461Y-64856433D01*
X158909234Y-64875039D01*
X158925358Y-64893964D01*
X159238599Y-65261500D01*
G37*
G36*
X157481909Y-63513928D02*
G01*
X157516757Y-63516963D01*
X157550939Y-63522020D01*
X157584452Y-63529101D01*
X157617299Y-63538205D01*
X157649479Y-63549331D01*
X157680992Y-63562481D01*
X157711837Y-63577653D01*
X157742016Y-63594849D01*
X157771527Y-63614068D01*
X157800372Y-63635309D01*
X157828549Y-63658574D01*
X157842387Y-63670965D01*
X157856059Y-63683862D01*
X157869564Y-63697264D01*
X157882902Y-63711173D01*
X157896073Y-63725587D01*
X157909078Y-63740506D01*
X157921916Y-63755932D01*
X157934587Y-63771863D01*
X157948434Y-63789919D01*
X157961841Y-63808355D01*
X157974809Y-63827171D01*
X157987338Y-63846367D01*
X157999426Y-63865942D01*
X158011075Y-63885897D01*
X158022285Y-63906232D01*
X158033055Y-63926947D01*
X158043385Y-63948041D01*
X158053276Y-63969515D01*
X158062727Y-63991369D01*
X158071739Y-64013603D01*
X158080311Y-64036216D01*
X158088443Y-64059210D01*
X158096136Y-64082583D01*
X158103389Y-64106335D01*
X158110203Y-64130468D01*
X158116577Y-64154980D01*
X158122511Y-64179872D01*
X158128006Y-64205144D01*
X158133061Y-64230796D01*
X158137677Y-64256827D01*
X158141853Y-64283238D01*
X158145590Y-64310029D01*
X158148887Y-64337200D01*
X158151744Y-64364750D01*
X158154162Y-64392681D01*
X158156140Y-64420991D01*
X158157678Y-64449681D01*
X158158777Y-64478750D01*
X158159437Y-64508199D01*
X158159657Y-64538028D01*
X158159437Y-64569400D01*
X158158777Y-64600343D01*
X158157678Y-64630859D01*
X158156140Y-64660947D01*
X158154162Y-64690607D01*
X158151744Y-64719839D01*
X158148887Y-64748643D01*
X158145590Y-64777020D01*
X158141853Y-64804969D01*
X158137677Y-64832490D01*
X158133061Y-64859583D01*
X158128006Y-64886249D01*
X158122511Y-64912486D01*
X158116577Y-64938296D01*
X158110203Y-64963678D01*
X158103389Y-64988632D01*
X158096136Y-65013158D01*
X158088443Y-65037257D01*
X158080311Y-65060928D01*
X158071739Y-65084171D01*
X158062727Y-65106986D01*
X158053276Y-65129373D01*
X158043385Y-65151333D01*
X158033055Y-65172864D01*
X158022285Y-65193968D01*
X158011075Y-65214644D01*
X157999426Y-65234893D01*
X157987338Y-65254713D01*
X157974809Y-65274106D01*
X157961841Y-65293071D01*
X157948434Y-65311608D01*
X157934587Y-65329717D01*
X157921746Y-65345620D01*
X157908746Y-65361018D01*
X157895588Y-65375911D01*
X157882271Y-65390299D01*
X157868796Y-65404182D01*
X157855162Y-65417561D01*
X157841369Y-65430434D01*
X157827418Y-65442803D01*
X157799039Y-65466026D01*
X157770026Y-65487230D01*
X157740379Y-65506414D01*
X157710097Y-65523579D01*
X157679181Y-65538724D01*
X157647630Y-65551850D01*
X157615445Y-65562957D01*
X157582625Y-65572044D01*
X157549171Y-65579112D01*
X157515083Y-65584161D01*
X157480359Y-65587190D01*
X157445002Y-65588199D01*
X157427275Y-65587947D01*
X157392311Y-65585928D01*
X157358000Y-65581889D01*
X157324341Y-65575831D01*
X157291334Y-65567753D01*
X157258980Y-65557656D01*
X157227279Y-65545540D01*
X157196231Y-65531404D01*
X157165835Y-65515249D01*
X157136091Y-65497074D01*
X157107000Y-65476880D01*
X157078562Y-65454667D01*
X157050776Y-65430434D01*
X157037128Y-65417561D01*
X157023643Y-65404182D01*
X157010321Y-65390299D01*
X156997163Y-65375911D01*
X156984167Y-65361018D01*
X156971335Y-65345620D01*
X156958666Y-65329717D01*
X156944847Y-65311621D01*
X156931467Y-65293123D01*
X156918526Y-65274224D01*
X156906024Y-65254924D01*
X156893960Y-65235221D01*
X156882335Y-65215118D01*
X156871148Y-65194612D01*
X156860401Y-65173706D01*
X156850092Y-65152397D01*
X156840221Y-65130687D01*
X156830790Y-65108576D01*
X156821797Y-65086063D01*
X156813242Y-65063149D01*
X156805127Y-65039833D01*
X156797450Y-65016115D01*
X156790211Y-64991997D01*
X156783412Y-64967476D01*
X156777051Y-64942554D01*
X156771129Y-64917231D01*
X156765645Y-64891505D01*
X156760600Y-64865379D01*
X156755994Y-64838851D01*
X156751827Y-64811921D01*
X156748098Y-64784590D01*
X156744808Y-64756857D01*
X156741956Y-64728723D01*
X156739543Y-64700188D01*
X156737569Y-64671250D01*
X156736034Y-64641912D01*
X156734937Y-64612171D01*
X156734279Y-64582030D01*
X156734060Y-64551486D01*
X156734063Y-64551022D01*
X157032915Y-64551022D01*
X157033031Y-64571764D01*
X157033376Y-64592282D01*
X157033951Y-64612576D01*
X157034757Y-64632646D01*
X157035793Y-64652493D01*
X157037059Y-64672115D01*
X157038556Y-64691514D01*
X157040282Y-64710688D01*
X157042239Y-64729639D01*
X157044426Y-64748366D01*
X157049491Y-64785148D01*
X157055477Y-64821035D01*
X157062383Y-64856027D01*
X157070211Y-64890122D01*
X157078959Y-64923323D01*
X157088628Y-64955628D01*
X157099218Y-64987037D01*
X157110729Y-65017551D01*
X157123161Y-65047169D01*
X157136514Y-65075892D01*
X157150787Y-65103719D01*
X157165704Y-65130468D01*
X157181103Y-65155491D01*
X157196985Y-65178789D01*
X157213348Y-65200360D01*
X157230194Y-65220206D01*
X157247522Y-65238326D01*
X157265332Y-65254721D01*
X157283625Y-65269389D01*
X157302399Y-65282332D01*
X157321656Y-65293549D01*
X157341395Y-65303041D01*
X157361616Y-65310807D01*
X157382319Y-65316847D01*
X157403505Y-65321161D01*
X157425172Y-65323750D01*
X157447322Y-65324613D01*
X157469635Y-65323750D01*
X157491444Y-65321161D01*
X157512750Y-65316847D01*
X157533551Y-65310807D01*
X157553848Y-65303041D01*
X157573641Y-65293549D01*
X157592931Y-65282332D01*
X157611716Y-65269389D01*
X157629998Y-65254721D01*
X157647775Y-65238326D01*
X157665049Y-65220206D01*
X157681818Y-65200360D01*
X157698084Y-65178789D01*
X157713846Y-65155491D01*
X157729104Y-65130468D01*
X157743858Y-65103719D01*
X157751052Y-65089598D01*
X157764757Y-65060677D01*
X157777547Y-65030854D01*
X157789424Y-65000128D01*
X157800388Y-64968499D01*
X157810438Y-64935968D01*
X157819574Y-64902534D01*
X157827796Y-64868197D01*
X157835105Y-64832957D01*
X157841501Y-64796815D01*
X157844356Y-64778405D01*
X157846982Y-64759770D01*
X157849381Y-64740908D01*
X157851551Y-64721822D01*
X157853492Y-64702509D01*
X157855205Y-64682971D01*
X157856690Y-64663207D01*
X157857946Y-64643218D01*
X157858974Y-64623002D01*
X157859773Y-64602562D01*
X157860344Y-64581895D01*
X157860687Y-64561003D01*
X157860801Y-64539885D01*
X157860686Y-64519601D01*
X157860341Y-64499529D01*
X157859765Y-64479670D01*
X157858959Y-64460023D01*
X157857923Y-64440587D01*
X157856657Y-64421364D01*
X157855161Y-64402353D01*
X157853434Y-64383554D01*
X157849290Y-64346592D01*
X157844225Y-64310479D01*
X157838240Y-64275214D01*
X157831333Y-64240797D01*
X157823506Y-64207229D01*
X157814757Y-64174509D01*
X157805088Y-64142637D01*
X157794498Y-64111614D01*
X157782987Y-64081439D01*
X157770556Y-64052113D01*
X157757203Y-64023635D01*
X157742929Y-63996005D01*
X157728016Y-63969425D01*
X157712628Y-63944559D01*
X157696764Y-63921409D01*
X157680426Y-63899973D01*
X157663613Y-63880252D01*
X157646325Y-63862246D01*
X157628562Y-63845955D01*
X157610324Y-63831379D01*
X157591611Y-63818518D01*
X157572423Y-63807371D01*
X157552760Y-63797939D01*
X157532623Y-63790223D01*
X157512010Y-63784221D01*
X157490922Y-63779933D01*
X157469360Y-63777361D01*
X157447322Y-63776504D01*
X157425172Y-63777361D01*
X157403505Y-63779933D01*
X157382319Y-63784221D01*
X157361616Y-63790223D01*
X157341395Y-63797939D01*
X157321656Y-63807371D01*
X157302399Y-63818518D01*
X157283625Y-63831379D01*
X157265332Y-63845955D01*
X157247522Y-63862246D01*
X157230194Y-63880252D01*
X157213348Y-63899973D01*
X157196985Y-63921409D01*
X157181103Y-63944559D01*
X157165704Y-63969425D01*
X157150787Y-63996005D01*
X157143535Y-64009893D01*
X157129722Y-64038339D01*
X157116830Y-64067676D01*
X157104859Y-64097905D01*
X157093808Y-64129026D01*
X157083679Y-64161039D01*
X157074470Y-64193944D01*
X157066182Y-64227741D01*
X157058815Y-64262429D01*
X157052369Y-64298010D01*
X157046844Y-64334482D01*
X157044426Y-64353053D01*
X157042239Y-64371846D01*
X157040282Y-64390863D01*
X157038556Y-64410103D01*
X157037059Y-64429565D01*
X157035793Y-64449250D01*
X157034757Y-64469159D01*
X157033951Y-64489290D01*
X157033376Y-64509645D01*
X157033031Y-64530222D01*
X157032915Y-64551022D01*
X156734063Y-64551022D01*
X156734279Y-64520829D01*
X156734937Y-64490578D01*
X156736034Y-64460733D01*
X156737569Y-64431294D01*
X156739543Y-64402261D01*
X156741956Y-64373635D01*
X156744808Y-64345414D01*
X156748098Y-64317599D01*
X156751827Y-64290191D01*
X156755994Y-64263188D01*
X156760600Y-64236592D01*
X156765645Y-64210401D01*
X156771129Y-64184617D01*
X156777051Y-64159238D01*
X156783412Y-64134266D01*
X156790211Y-64109700D01*
X156797450Y-64085540D01*
X156805127Y-64061785D01*
X156813242Y-64038437D01*
X156821797Y-64015495D01*
X156830790Y-63992959D01*
X156840221Y-63970829D01*
X156850092Y-63949106D01*
X156860401Y-63927788D01*
X156871148Y-63906876D01*
X156882335Y-63886370D01*
X156893960Y-63866271D01*
X156906024Y-63846577D01*
X156918526Y-63827289D01*
X156931467Y-63808408D01*
X156944847Y-63789932D01*
X156958666Y-63771863D01*
X156971336Y-63755932D01*
X156984173Y-63740506D01*
X156997175Y-63725587D01*
X157010343Y-63711173D01*
X157023677Y-63697264D01*
X157037177Y-63683862D01*
X157050843Y-63670965D01*
X157064675Y-63658574D01*
X157092836Y-63635309D01*
X157121660Y-63614068D01*
X157151148Y-63594849D01*
X157181299Y-63577653D01*
X157212114Y-63562481D01*
X157243592Y-63549331D01*
X157275734Y-63538205D01*
X157308539Y-63529101D01*
X157342008Y-63522020D01*
X157376140Y-63516963D01*
X157410935Y-63513928D01*
X157446394Y-63512917D01*
X157481909Y-63513928D01*
G37*
G36*
X155956757Y-65261500D02*
G01*
X155210082Y-65261500D01*
X155210082Y-65558500D01*
X156556788Y-65558500D01*
X155860696Y-64707411D01*
X155848007Y-64691705D01*
X155835579Y-64676261D01*
X155823412Y-64661077D01*
X155811506Y-64646155D01*
X155799861Y-64631493D01*
X155782883Y-64609991D01*
X155766492Y-64589075D01*
X155750688Y-64568747D01*
X155735472Y-64549006D01*
X155720843Y-64529853D01*
X155706802Y-64511287D01*
X155693348Y-64493308D01*
X155688994Y-64487446D01*
X155676231Y-64470222D01*
X155664049Y-64453528D01*
X155652445Y-64437364D01*
X155641420Y-64421730D01*
X155627621Y-64401710D01*
X155614853Y-64382633D01*
X155603113Y-64364498D01*
X155592404Y-64347306D01*
X155582724Y-64331057D01*
X155569537Y-64308215D01*
X155557648Y-64285806D01*
X155547056Y-64263828D01*
X155537760Y-64242284D01*
X155529762Y-64221171D01*
X155523061Y-64200491D01*
X155517657Y-64180243D01*
X155513549Y-64160427D01*
X155510739Y-64141044D01*
X155509226Y-64122093D01*
X155508938Y-64109700D01*
X155509807Y-64083565D01*
X155512413Y-64058238D01*
X155516757Y-64033718D01*
X155522838Y-64010006D01*
X155530657Y-63987102D01*
X155540213Y-63965005D01*
X155551507Y-63943716D01*
X155564538Y-63923234D01*
X155579307Y-63903560D01*
X155595813Y-63884693D01*
X155607783Y-63872564D01*
X155626641Y-63855397D01*
X155646324Y-63839919D01*
X155666830Y-63826129D01*
X155688160Y-63814027D01*
X155710314Y-63803615D01*
X155733292Y-63794890D01*
X155757093Y-63787855D01*
X155781719Y-63782507D01*
X155807168Y-63778849D01*
X155833442Y-63776879D01*
X155851415Y-63776504D01*
X155870159Y-63776856D01*
X155906128Y-63779677D01*
X155940069Y-63785318D01*
X155971985Y-63793780D01*
X156001873Y-63805062D01*
X156029735Y-63819166D01*
X156055570Y-63836089D01*
X156079378Y-63855834D01*
X156101160Y-63878399D01*
X156120916Y-63903784D01*
X156138644Y-63931991D01*
X156154346Y-63963017D01*
X156168021Y-63996865D01*
X156174099Y-64014846D01*
X156179670Y-64033533D01*
X156184734Y-64052925D01*
X156189292Y-64073022D01*
X156193343Y-64093824D01*
X156196888Y-64115331D01*
X156199925Y-64137543D01*
X156501101Y-64137543D01*
X156496063Y-64099114D01*
X156490054Y-64061905D01*
X156483076Y-64025916D01*
X156475128Y-63991147D01*
X156466210Y-63957597D01*
X156456323Y-63925268D01*
X156445465Y-63894159D01*
X156433638Y-63864269D01*
X156420841Y-63835600D01*
X156407074Y-63808150D01*
X156392338Y-63781921D01*
X156376631Y-63756912D01*
X156359955Y-63733122D01*
X156342309Y-63710553D01*
X156323693Y-63689203D01*
X156304107Y-63669073D01*
X156283551Y-63650164D01*
X156262026Y-63632474D01*
X156239531Y-63616005D01*
X156216066Y-63600755D01*
X156191631Y-63586725D01*
X156166226Y-63573916D01*
X156139852Y-63562326D01*
X156112508Y-63551956D01*
X156084194Y-63542806D01*
X156054910Y-63534876D01*
X156024656Y-63528166D01*
X155993432Y-63522677D01*
X155961239Y-63518407D01*
X155928076Y-63515357D01*
X155893943Y-63513527D01*
X155858840Y-63512917D01*
X155824844Y-63513595D01*
X155791537Y-63515629D01*
X155758918Y-63519018D01*
X155726989Y-63523764D01*
X155695748Y-63529866D01*
X155665196Y-63537324D01*
X155635333Y-63546137D01*
X155606159Y-63556307D01*
X155577673Y-63567832D01*
X155549877Y-63580713D01*
X155522769Y-63594951D01*
X155496350Y-63610544D01*
X155470620Y-63627493D01*
X155445579Y-63645798D01*
X155421227Y-63665459D01*
X155397563Y-63686476D01*
X155374860Y-63708493D01*
X155353622Y-63731156D01*
X155333849Y-63754464D01*
X155315540Y-63778418D01*
X155298696Y-63803017D01*
X155283317Y-63828261D01*
X155269402Y-63854151D01*
X155256952Y-63880685D01*
X155245967Y-63907866D01*
X155236447Y-63935691D01*
X155228391Y-63964162D01*
X155221800Y-63993278D01*
X155216673Y-64023040D01*
X155213012Y-64053447D01*
X155210815Y-64084499D01*
X155210082Y-64116197D01*
X155210425Y-64136532D01*
X155211453Y-64156817D01*
X155213166Y-64177050D01*
X155215564Y-64197233D01*
X155218647Y-64217366D01*
X155222416Y-64237447D01*
X155226870Y-64257478D01*
X155232009Y-64277458D01*
X155237833Y-64297387D01*
X155244343Y-64317266D01*
X155251538Y-64337093D01*
X155259418Y-64356870D01*
X155267983Y-64376597D01*
X155277233Y-64396272D01*
X155287169Y-64415897D01*
X155297790Y-64435471D01*
X155309464Y-64456470D01*
X155319076Y-64472828D01*
X155329422Y-64489708D01*
X155340503Y-64507110D01*
X155352317Y-64525035D01*
X155364866Y-64543481D01*
X155378149Y-64562450D01*
X155392166Y-64581940D01*
X155406917Y-64601953D01*
X155422402Y-64622488D01*
X155427727Y-64629449D01*
X155444133Y-64650777D01*
X155461330Y-64672824D01*
X155473234Y-64687920D01*
X155485490Y-64703336D01*
X155498098Y-64719070D01*
X155511057Y-64735124D01*
X155524368Y-64751497D01*
X155538030Y-64768188D01*
X155552045Y-64785199D01*
X155566411Y-64802529D01*
X155581128Y-64820178D01*
X155596198Y-64838146D01*
X155611619Y-64856433D01*
X155627391Y-64875039D01*
X155643516Y-64893964D01*
X155956757Y-65261500D01*
G37*
G36*
X154298666Y-64634089D02*
G01*
X154298666Y-64370502D01*
X154275428Y-64370330D01*
X154253166Y-64369813D01*
X154231879Y-64368952D01*
X154211567Y-64367747D01*
X154192231Y-64366197D01*
X154165054Y-64363226D01*
X154140073Y-64359481D01*
X154117285Y-64354960D01*
X154096692Y-64349665D01*
X154078293Y-64343594D01*
X154057175Y-64334295D01*
X154043896Y-64326416D01*
X154023080Y-64311053D01*
X154004311Y-64294026D01*
X153987590Y-64275335D01*
X153972916Y-64254980D01*
X153960290Y-64232961D01*
X153949711Y-64209277D01*
X153941180Y-64183930D01*
X153934696Y-64156918D01*
X153931511Y-64137986D01*
X153929236Y-64118314D01*
X153927872Y-64097902D01*
X153927417Y-64076751D01*
X153928163Y-64052385D01*
X153930402Y-64028884D01*
X153934134Y-64006248D01*
X153939359Y-63984476D01*
X153946076Y-63963568D01*
X153954287Y-63943526D01*
X153963990Y-63924348D01*
X153975186Y-63906035D01*
X153987875Y-63888586D01*
X154002056Y-63872002D01*
X154012340Y-63861427D01*
X154028525Y-63846250D01*
X154045584Y-63832566D01*
X154063515Y-63820375D01*
X154082319Y-63809677D01*
X154101996Y-63800471D01*
X154122545Y-63792759D01*
X154143968Y-63786539D01*
X154166263Y-63781811D01*
X154189431Y-63778577D01*
X154213472Y-63776835D01*
X154229985Y-63776504D01*
X154252814Y-63777062D01*
X154274665Y-63778739D01*
X154295537Y-63781533D01*
X154315430Y-63785444D01*
X154334344Y-63790473D01*
X154352279Y-63796620D01*
X154374670Y-63806553D01*
X154395321Y-63818474D01*
X154414231Y-63832381D01*
X154423034Y-63840080D01*
X154438870Y-63857475D01*
X154450062Y-63872339D01*
X154460667Y-63888761D01*
X154470684Y-63906741D01*
X154480114Y-63926280D01*
X154488956Y-63947376D01*
X154497211Y-63970030D01*
X154504879Y-63994242D01*
X154511960Y-64020013D01*
X154516354Y-64038058D01*
X154520487Y-64056797D01*
X154822127Y-64056797D01*
X154815884Y-64022175D01*
X154808872Y-63988732D01*
X154801092Y-63956467D01*
X154792543Y-63925380D01*
X154783226Y-63895472D01*
X154773139Y-63866742D01*
X154762285Y-63839190D01*
X154750661Y-63812816D01*
X154738270Y-63787621D01*
X154725109Y-63763604D01*
X154711180Y-63740766D01*
X154696482Y-63719105D01*
X154681016Y-63698623D01*
X154664781Y-63679319D01*
X154647778Y-63661193D01*
X154630005Y-63644246D01*
X154611396Y-63628343D01*
X154591880Y-63613466D01*
X154571458Y-63599615D01*
X154550129Y-63586790D01*
X154527894Y-63574990D01*
X154504752Y-63564217D01*
X154480705Y-63554470D01*
X154455750Y-63545749D01*
X154429890Y-63538054D01*
X154403123Y-63531385D01*
X154375450Y-63525742D01*
X154346870Y-63521125D01*
X154317384Y-63517534D01*
X154286992Y-63514969D01*
X154255693Y-63513430D01*
X154223488Y-63512917D01*
X154190978Y-63513533D01*
X154159230Y-63515382D01*
X154128243Y-63518464D01*
X154098017Y-63522778D01*
X154068553Y-63528325D01*
X154039850Y-63535105D01*
X154011908Y-63543117D01*
X153984728Y-63552362D01*
X153958309Y-63562840D01*
X153932652Y-63574550D01*
X153907756Y-63587493D01*
X153883621Y-63601669D01*
X153860247Y-63617077D01*
X153837635Y-63633718D01*
X153815784Y-63651591D01*
X153794695Y-63670698D01*
X153774577Y-63690487D01*
X153755757Y-63710991D01*
X153738235Y-63732209D01*
X153722011Y-63754142D01*
X153707085Y-63776788D01*
X153693457Y-63800149D01*
X153681127Y-63824224D01*
X153670094Y-63849013D01*
X153660360Y-63874517D01*
X153651924Y-63900734D01*
X153644785Y-63927666D01*
X153638944Y-63955312D01*
X153634402Y-63983673D01*
X153631157Y-64012747D01*
X153629210Y-64042536D01*
X153628561Y-64073039D01*
X153629429Y-64107249D01*
X153632034Y-64140502D01*
X153636376Y-64172798D01*
X153642454Y-64204136D01*
X153650269Y-64234518D01*
X153659820Y-64263942D01*
X153671108Y-64292409D01*
X153684132Y-64319920D01*
X153698893Y-64346473D01*
X153715391Y-64372068D01*
X153733626Y-64396707D01*
X153753597Y-64420389D01*
X153775304Y-64443113D01*
X153798748Y-64464881D01*
X153823929Y-64485691D01*
X153850846Y-64505544D01*
X153820557Y-64524471D01*
X153792222Y-64544823D01*
X153765842Y-64566599D01*
X153741415Y-64589800D01*
X153718942Y-64614426D01*
X153698424Y-64640477D01*
X153679860Y-64667953D01*
X153663250Y-64696853D01*
X153648594Y-64727179D01*
X153635892Y-64758929D01*
X153625144Y-64792104D01*
X153616350Y-64826704D01*
X153609511Y-64862728D01*
X153606824Y-64881275D01*
X153604626Y-64900178D01*
X153602916Y-64919437D01*
X153601694Y-64939052D01*
X153600962Y-64959023D01*
X153600717Y-64979351D01*
X153601426Y-65012497D01*
X153603552Y-65044878D01*
X153607096Y-65076494D01*
X153612058Y-65107345D01*
X153618437Y-65137431D01*
X153626233Y-65166752D01*
X153635448Y-65195308D01*
X153646079Y-65223099D01*
X153658129Y-65250125D01*
X153671595Y-65276386D01*
X153686480Y-65301883D01*
X153702782Y-65326614D01*
X153720501Y-65350580D01*
X153739638Y-65373781D01*
X153760193Y-65396218D01*
X153782165Y-65417889D01*
X153805187Y-65438512D01*
X153829006Y-65457805D01*
X153853623Y-65475768D01*
X153879038Y-65492400D01*
X153905250Y-65507701D01*
X153932260Y-65521672D01*
X153960068Y-65534312D01*
X153988673Y-65545622D01*
X154018075Y-65555601D01*
X154048275Y-65564250D01*
X154079273Y-65571568D01*
X154111069Y-65577555D01*
X154143662Y-65582212D01*
X154177053Y-65585538D01*
X154211241Y-65587534D01*
X154246227Y-65588199D01*
X154268610Y-65587944D01*
X154290630Y-65587179D01*
X154312286Y-65585903D01*
X154333579Y-65584117D01*
X154354508Y-65581821D01*
X154375074Y-65579014D01*
X154395277Y-65575697D01*
X154415116Y-65571870D01*
X154434592Y-65567533D01*
X154453704Y-65562685D01*
X154472453Y-65557327D01*
X154490838Y-65551459D01*
X154508860Y-65545080D01*
X154526518Y-65538191D01*
X154543813Y-65530792D01*
X154560744Y-65522883D01*
X154577312Y-65514463D01*
X154609358Y-65496093D01*
X154639950Y-65475681D01*
X154669088Y-65453229D01*
X154696772Y-65428735D01*
X154710069Y-65415723D01*
X154723002Y-65402200D01*
X154735572Y-65388167D01*
X154747779Y-65373624D01*
X154759622Y-65358571D01*
X154771101Y-65343007D01*
X154782218Y-65326933D01*
X154795326Y-65305656D01*
X154807505Y-65282894D01*
X154818754Y-65258648D01*
X154829073Y-65232917D01*
X154835436Y-65214938D01*
X154841385Y-65196300D01*
X154846922Y-65177001D01*
X154852044Y-65157043D01*
X154856754Y-65136425D01*
X154861050Y-65115147D01*
X154864933Y-65093209D01*
X154868403Y-65070611D01*
X154871459Y-65047354D01*
X154874102Y-65023437D01*
X154581743Y-65023437D01*
X154576730Y-65050242D01*
X154570568Y-65075839D01*
X154563255Y-65100230D01*
X154554791Y-65123413D01*
X154545178Y-65145389D01*
X154534414Y-65166157D01*
X154522500Y-65185719D01*
X154509437Y-65204073D01*
X154495222Y-65221219D01*
X154479858Y-65237159D01*
X154468976Y-65247114D01*
X154451706Y-65260964D01*
X154433481Y-65273452D01*
X154414302Y-65284577D01*
X154394168Y-65294340D01*
X154373080Y-65302740D01*
X154351037Y-65309779D01*
X154328041Y-65315455D01*
X154304089Y-65319769D01*
X154279184Y-65322721D01*
X154253324Y-65324310D01*
X154235553Y-65324613D01*
X154208755Y-65323752D01*
X154182830Y-65321170D01*
X154157777Y-65316867D01*
X154133598Y-65310843D01*
X154110291Y-65303098D01*
X154087857Y-65293631D01*
X154066295Y-65282443D01*
X154045607Y-65269534D01*
X154025792Y-65254904D01*
X154006849Y-65238553D01*
X153994705Y-65226696D01*
X153977704Y-65207436D01*
X153962375Y-65187247D01*
X153948718Y-65166127D01*
X153936734Y-65144078D01*
X153926422Y-65121099D01*
X153917782Y-65097190D01*
X153910814Y-65072351D01*
X153905519Y-65046582D01*
X153901895Y-65019883D01*
X153899944Y-64992254D01*
X153899573Y-64973318D01*
X153900128Y-64948313D01*
X153901792Y-64924229D01*
X153904565Y-64901066D01*
X153908448Y-64878824D01*
X153913440Y-64857502D01*
X153919542Y-64837102D01*
X153926753Y-64817622D01*
X153935074Y-64799063D01*
X153944503Y-64781425D01*
X153955043Y-64764708D01*
X153966691Y-64748912D01*
X153979449Y-64734036D01*
X153993317Y-64720082D01*
X154008294Y-64707048D01*
X154024380Y-64694936D01*
X154041576Y-64683744D01*
X154057950Y-64674870D01*
X154075923Y-64666869D01*
X154095496Y-64659741D01*
X154116667Y-64653485D01*
X154139436Y-64648103D01*
X154163805Y-64643593D01*
X154189773Y-64639957D01*
X154217339Y-64637193D01*
X154236605Y-64635835D01*
X154256581Y-64634865D01*
X154277268Y-64634283D01*
X154298666Y-64634089D01*
G37*
D12*
X151352250Y-61468000D02*
X174339250Y-61468000D01*
X174339250Y-70104000D01*
X151352250Y-70104000D01*
X151352250Y-61468000D01*
D13*
%TO.C,REF\u002A\u002A*%
X132926737Y-60500000D03*
%TD*%
D14*
%TO.C,D15*%
X102574000Y-83415000D03*
X102574000Y-80415000D03*
X103674000Y-83439000D03*
X103674000Y-80415000D03*
%TD*%
D15*
%TO.C,J5*%
X124587000Y-110998000D03*
%TD*%
D16*
%TO.C,U1*%
X126365000Y-64832000D03*
X125095000Y-64832000D03*
X123825000Y-64832000D03*
X122555000Y-64832000D03*
X122555000Y-59882000D03*
X123825000Y-59882000D03*
X125095000Y-59882000D03*
X126365000Y-59882000D03*
%TD*%
D17*
%TO.C,D6*%
X149098000Y-80115000D03*
X149098000Y-83715000D03*
%TD*%
D18*
%TO.C,R1*%
X143002000Y-77454000D03*
X143002000Y-75454000D03*
%TD*%
%TO.C,R7*%
X162052000Y-76819000D03*
X162052000Y-74819000D03*
%TD*%
%TO.C,R13*%
X143002000Y-88249000D03*
X143002000Y-86249000D03*
%TD*%
D14*
%TO.C,D17*%
X91779000Y-83264000D03*
X91779000Y-80264000D03*
X92879000Y-83288000D03*
X92879000Y-80264000D03*
%TD*%
D19*
%TO.C,D1*%
X99440000Y-66635000D03*
X96140000Y-66635000D03*
%TD*%
D17*
%TO.C,D12*%
X136017000Y-90924500D03*
X136017000Y-94524500D03*
%TD*%
D20*
%TO.C,TP1*%
X92329000Y-66675000D03*
%TD*%
%TO.C,TP4*%
X141224000Y-110490000D03*
%TD*%
D15*
%TO.C,J4*%
X133985000Y-110998000D03*
%TD*%
D20*
%TO.C,TP7*%
X118110000Y-64135000D03*
%TD*%
D17*
%TO.C,D4*%
X155702000Y-80115000D03*
X155702000Y-83715000D03*
%TD*%
D15*
%TO.C,J2*%
X133985000Y-104521000D03*
%TD*%
D18*
%TO.C,R16*%
X126873000Y-75930000D03*
X126873000Y-73930000D03*
%TD*%
D20*
%TO.C,TP10*%
X147955000Y-63500000D03*
%TD*%
%TO.C,TP5*%
X166878000Y-92075000D03*
%TD*%
D21*
%TO.C,S2*%
X170394000Y-104985000D03*
X167894000Y-104985000D03*
X165394000Y-104985000D03*
X170394000Y-99485000D03*
X167894000Y-99485000D03*
X165394000Y-99485000D03*
%TD*%
D18*
%TO.C,R15*%
X129540000Y-75930000D03*
X129540000Y-73930000D03*
%TD*%
D20*
%TO.C,TP11*%
X122555000Y-93853000D03*
%TD*%
D18*
%TO.C,R14*%
X132207000Y-75930000D03*
X132207000Y-73930000D03*
%TD*%
D17*
%TO.C,D9*%
X142875000Y-69447000D03*
X142875000Y-73047000D03*
%TD*%
D14*
%TO.C,D5*%
X128736000Y-83415000D03*
X128736000Y-80415000D03*
X129836000Y-83439000D03*
X129836000Y-80415000D03*
%TD*%
%TO.C,D3*%
X122005000Y-83415000D03*
X122005000Y-80415000D03*
X123105000Y-83439000D03*
X123105000Y-80415000D03*
%TD*%
D17*
%TO.C,D13*%
X143002000Y-90924500D03*
X143002000Y-94524500D03*
%TD*%
D20*
%TO.C,TP8*%
X92329000Y-63563500D03*
%TD*%
D18*
%TO.C,R5*%
X136017000Y-77454000D03*
X136017000Y-75454000D03*
%TD*%
%TO.C,R2*%
X142875000Y-66532000D03*
X142875000Y-64532000D03*
%TD*%
D22*
%TO.C,Q3*%
X106792000Y-61027000D03*
X107442000Y-61027000D03*
X108092000Y-61027000D03*
X108092000Y-63687000D03*
X107442000Y-63687000D03*
X106792000Y-63687000D03*
%TD*%
D23*
%TO.C,BT1*%
X89308000Y-100838000D03*
X114908000Y-100838000D03*
D24*
X102108000Y-100838000D03*
%TD*%
D20*
%TO.C,TP6*%
X125222000Y-68072000D03*
%TD*%
D14*
%TO.C,D14*%
X109051000Y-83415000D03*
X109051000Y-80415000D03*
X110151000Y-83439000D03*
X110151000Y-80415000D03*
%TD*%
D18*
%TO.C,R11*%
X149225000Y-76819000D03*
X149225000Y-74819000D03*
%TD*%
D17*
%TO.C,D2*%
X162022831Y-80115000D03*
X162022831Y-83715000D03*
%TD*%
D20*
%TO.C,TP9*%
X118110000Y-60198000D03*
%TD*%
D17*
%TO.C,D8*%
X143002000Y-80115000D03*
X143002000Y-83715000D03*
%TD*%
D25*
%TO.C,Q1*%
X154245000Y-103740000D03*
X154245000Y-104540000D03*
D26*
X153095000Y-104140000D03*
%TD*%
D18*
%TO.C,R9*%
X155829000Y-76819000D03*
X155829000Y-74819000D03*
%TD*%
D20*
%TO.C,TP2*%
X92329000Y-60452000D03*
%TD*%
D14*
%TO.C,D7*%
X115570000Y-83415000D03*
X115570000Y-80415000D03*
X116670000Y-83439000D03*
X116670000Y-80415000D03*
%TD*%
D27*
%TO.C,C1*%
X128651000Y-63902500D03*
X128651000Y-61827500D03*
%TD*%
D15*
%TO.C,J3*%
X124587000Y-104521000D03*
%TD*%
D28*
%TO.C,Q2*%
X128083000Y-69738000D03*
X128083000Y-69088000D03*
X128083000Y-68438000D03*
X130743000Y-68438000D03*
X130743000Y-69088000D03*
X130743000Y-69738000D03*
%TD*%
D17*
%TO.C,D10*%
X136017000Y-69447000D03*
X136017000Y-73047000D03*
%TD*%
D29*
%TO.C,J1*%
X113982000Y-63627000D03*
X113982000Y-61087000D03*
%TD*%
D18*
%TO.C,R3*%
X136017000Y-66532000D03*
X136017000Y-64532000D03*
%TD*%
%TO.C,R6*%
X136017000Y-88249000D03*
X136017000Y-86249000D03*
%TD*%
D17*
%TO.C,D11*%
X136017000Y-80129500D03*
X136017000Y-83729500D03*
%TD*%
D30*
%TO.C,R4*%
X98393000Y-60368500D03*
X96393000Y-60368500D03*
%TD*%
M02*
